<?xml version="1.0" encoding="UTF-8" standalone="no"?>
<svg width="300px" height="300px" viewBox="0 0 300 300" version="1.1" xmlns="http://www.w3.org/2000/svg" xmlns:xlink="http://www.w3.org/1999/xlink" xmlns:sketch="http://www.bohemiancoding.com/sketch/ns">
    <!-- Generator: Sketch 3.5.1 (25234) - http://www.bohemiancoding.com/sketch -->
    <title>acm</title>
    <desc>Created with Sketch.</desc>
    <defs>
        <path id="path-1" d="M2.84217094e-14,150.410713 L150.042105,300.368551 L300.000001,150.410713 L150.042105,0.396677078 L2.84217094e-14,150.410713 L2.84217094e-14,150.410713 L2.84217094e-14,150.410713 L2.84217094e-14,150.410713 Z"></path>
        <path id="path-3" d="M0.554507266,83.7340026 C0.554507266,129.43435 37.6088723,166.488715 83.3653953,166.488715 C129.065779,166.488715 166.092074,129.43435 166.092074,83.7340026 C166.092074,37.9774581 129.065779,0.951119667 83.3653953,0.951119667 C37.6088723,0.951119667 0.554507266,37.9774581 0.554507266,83.7340026"></path>
    </defs>
    <g id="Page-1" stroke="none" stroke-width="1" fill="none" fill-rule="evenodd" sketch:type="MSPage">
        <g id="acm" sketch:type="MSLayerGroup" transform="translate(-1.000000, -1.000000)">
            <g id="Page-1">
                <g id="acm">
                    <g id="Page-1">
                        <g id="acm">
                            <g id="Page-1">
                                <g id="ACM">
                                    <g id="layer1" transform="translate(0.091310, 0.520780)">
                                        <g id="g8264" transform="translate(0.908691, 0.082544)">
                                            <g id="g7014-Clipped" transform="translate(-0.000000, 0.000000)">
                                                <g id="Group" transform="translate(0.000000, 0.000000)">
                                                    <g id="g7014-Clipped" transform="translate(0.000000, -0.000000)">
                                                        <g transform="translate(0.000000, -0.000000)">
                                                            <mask id="mask-2" sketch:name="path-1" fill="white">
                                                                <use xlink:href="#path-1"></use>
                                                            </mask>
                                                            <g id="path-1"></g>
                                                            <g id="g7014" mask="url(#mask-2)">
                                                                <g transform="translate(0.000000, 0.000000)" id="path7016">
                                                                    <g>
                                                                        <path d="M0,300.368551 L300.000001,300.368551 L300.000001,0.396677078 L0,0.396677078 L0,300.368551 L0,300.368551 L0,300.368551 L0,300.368551 Z" id="path-3" sketch:type="MSShapeGroup"></path>
                                                                        <g id="path-3-link" fill="#353C47" sketch:type="MSShapeGroup">
                                                                            <path d="M0,300.368551 L300.000001,300.368551 L300.000001,0.396677078 L0,0.396677078 L0,300.368551 L0,300.368551 L0,300.368551 L0,300.368551 Z" id="path-3"></path>
                                                                        </g>
                                                                    </g>
                                                                </g>
                                                            </g>
                                                        </g>
                                                    </g>
                                                </g>
                                            </g>
                                            <path d="M241.948163,150.410713 C241.948163,201.191991 200.823434,242.344775 150.014035,242.344775 C99.2327143,242.344775 58.0518386,201.191991 58.0518386,150.410713 C58.0518386,99.6012641 99.2327143,58.4203813 150.014035,58.4203813 C200.823434,58.4203813 241.948163,99.6012641 241.948163,150.410713" id="path7018" fill="#FFFFFF" sketch:type="MSShapeGroup"></path>
                                            <g id="g7020-Clipped" transform="translate(66.676710, 66.676710)">
                                                <g id="Group" transform="translate(-0.000000, 0.000000)">
                                                    <g id="g7020-Clipped" transform="translate(-0.000000, 0.000000)">
                                                        <g transform="translate(-0.000000, 0.000000)">
                                                            <mask id="mask-4" sketch:name="path-3" fill="white">
                                                                <use xlink:href="#path-3"></use>
                                                            </mask>
                                                            <g id="path-3"></g>
                                                            <g id="g7020" mask="url(#mask-4)">
                                                                <g transform="translate(-0.000000, 0.000000)" id="path7022">
                                                                    <g>
                                                                        <g id="Group" sketch:type="MSShapeGroup">
                                                                            <path d="M166.092074,0.951119667 L0.554507266,0.951119667 L0.554507266,166.488715 L166.092074,166.488715 L166.092074,0.951119667 L166.092074,0.951119667 L166.092074,0.951119667 L166.092074,0.951119667 Z" id="path-6"></path>
                                                                            <g id="path-6-link" fill="#353C47">
                                                                                <path d="M166.092074,0.951119667 L0.554507266,0.951119667 L0.554507266,166.488715 L166.092074,166.488715 L166.092074,0.951119667 L166.092074,0.951119667 L166.092074,0.951119667 L166.092074,0.951119667 Z" id="path-6"></path>
                                                                            </g>
                                                                        </g>
                                                                    </g>
                                                                </g>
                                                            </g>
                                                        </g>
                                                    </g>
                                                </g>
                                            </g>
                                            <path d="M101.815291,166.523693 C100.973143,167.19705 100.215218,167.815 99.5134255,168.404492 C98.8678083,168.993769 97.9975688,169.499325 96.8466395,170.088817 C95.72378,170.678094 94.6851295,171.099355 93.5903468,171.323927 C92.5516964,171.632938 91.0919789,171.773071 89.1831177,171.773071 C85.6741834,171.773071 82.7547486,170.537961 80.4528901,168.208018 C78.1229548,165.821951 76.9439487,162.902516 76.9439487,159.281267 C76.9439487,156.277609 77.5334409,153.891541 78.7124542,152.094966 C79.91953,150.270292 81.6038194,148.810611 83.7933919,147.743876 C86.039111,146.677142 88.7339739,145.919274 91.8218412,145.498157 C94.965848,145.105066 98.3063569,144.712191 101.927577,144.515646 L101.927577,144.263407 C101.927577,142.101911 101.085429,140.557934 99.4853559,139.74387 C97.8572131,138.901708 95.4430615,138.480662 92.1867688,138.480662 C90.6989817,138.480662 89.0146924,138.761647 87.0496846,139.322825 C85.1127537,139.799995 83.2038924,140.529908 81.2950312,141.343972 L80.2844576,141.343972 L80.2844576,131.715407 C81.5196031,131.322316 83.4846109,130.929441 86.2356132,130.424172 C88.9866227,129.918975 91.737625,129.666233 94.5728435,129.666233 C101.422287,129.666233 106.390946,130.845217 109.534952,133.090936 C112.707029,135.392781 114.279032,138.901708 114.279032,143.561593 L114.279032,170.706695 L101.815291,170.706336 L101.815291,166.523693 L101.815291,166.523693 L101.815291,166.523693 L101.815291,166.523693 Z M101.815291,160.291877 L101.815291,152.010742 C99.7099278,152.234955 98.0256384,152.43186 96.7624232,152.600019 C95.4992081,152.740152 94.207916,152.99311 92.9727705,153.47028 C91.8779806,153.835344 91.0358396,154.396594 90.4744098,155.182632 C89.8568191,155.968598 89.5199756,156.979207 89.5199756,158.214317 C89.5199756,160.067089 90.0533428,161.358324 91.0358396,162.060138 C92.0183435,162.762239 93.5061306,163.070675 95.4992081,163.070675 C96.5097816,163.070675 97.6326412,162.902516 98.7274239,162.340835 C99.90643,161.891691 100.917004,161.16185 101.815291,160.291661 L101.815291,160.291877 L101.815291,160.291877 L101.815291,160.291877 L101.815291,160.291877 Z" id="path7024" fill="#FFFFFF" sketch:type="MSShapeGroup"></path>
                                            <path d="M141.536449,171.773071 C138.25208,171.773071 135.192289,171.323927 132.469357,170.509862 C129.774494,169.6677 127.416489,168.404492 125.395342,166.69214 C123.374195,164.923663 121.830261,162.762168 120.707401,160.179555 C119.584542,157.568915 119.051182,154.453007 119.051182,150.944008 C119.051182,147.098259 119.612647,143.926154 120.847757,141.203264 C122.054833,138.536428 123.654906,136.346834 125.760269,134.634482 C127.753347,132.978255 130.083282,131.743146 132.806215,130.957108 C135.473008,130.143044 138.280157,129.750097 141.199592,129.750097 C143.389164,129.750097 145.634883,130.031081 147.796386,130.564161 C150.014035,131.041331 152.203615,131.855396 154.421257,132.978255 L154.421257,143.617358 L152.821184,143.617358 C152.372041,143.140188 151.726394,142.606821 151.024609,142.101552 C150.266677,141.484249 149.536822,140.978692 148.666604,140.529549 C147.768316,139.968298 146.701603,139.631261 145.634883,139.238242 C144.455884,138.901205 143.192662,138.705019 141.789091,138.705019 C138.617015,138.705019 136.146724,139.79978 134.406288,142.045499 C132.693929,144.235093 131.767571,147.210653 131.767571,150.944152 C131.767571,154.902294 132.721998,157.905881 134.57472,159.870903 C136.427435,161.807827 138.869656,162.790338 141.985593,162.790338 C143.557597,162.790338 144.961168,162.594152 146.168243,162.285141 C147.319173,161.920077 148.329746,161.471077 149.143818,160.993834 C150.014035,160.488637 150.743898,160.011323 151.333397,159.44993 C151.92289,158.944733 152.456257,158.467418 152.821184,158.046373 L154.421257,158.046373 L154.421257,168.657378 C153.719443,168.966389 152.905401,169.330734 151.950966,169.752139 C151.024609,170.117203 150.126321,170.454241 149.115748,170.706552 C147.936749,171.099642 146.757743,171.267802 145.719099,171.464491 C144.652379,171.661395 143.276878,171.773502 141.536449,171.773502" id="path7026" fill="#FFFFFF" sketch:type="MSShapeGroup"></path>
                                            <path d="M208.68345,170.706336 L208.68345,150.775633 C208.68345,148.838709 208.655424,147.210509 208.571128,145.835051 C208.486905,144.487619 208.262333,143.36476 207.897413,142.522597 C207.560591,141.652408 206.971048,141.062844 206.241193,140.669897 C205.511331,140.24878 204.444618,140.08062 203.125256,140.08062 C202.170829,140.08062 201.244465,140.24878 200.290038,140.669897 C199.36368,141.091014 198.353107,141.708533 197.258317,142.438374 L197.258317,170.706336 L184.822645,170.706336 L184.822645,150.775633 C184.822645,148.838709 184.794619,147.210509 184.710324,145.835051 C184.598002,144.487619 184.429627,143.36476 184.064706,142.522597 C183.671687,141.652408 183.138349,141.062844 182.408494,140.669897 C181.622492,140.24878 180.583842,140.08062 179.264487,140.08062 C178.225837,140.08062 177.24334,140.304833 176.260836,140.753977 C175.278332,141.259174 174.323905,141.820639 173.425617,142.43823 L173.425617,170.706192 L160.989946,170.706192 L160.989946,130.872813 L173.425617,130.872813 L173.425617,135.280027 C175.446765,133.567676 177.383696,132.192146 179.180271,131.209635 C180.948776,130.255222 182.969924,129.749953 185.243712,129.749953 C187.657857,129.749953 189.819367,130.33923 191.615942,131.490332 C193.524803,132.64129 194.900305,134.353641 195.882808,136.683584 C198.268883,134.465963 200.542672,132.75354 202.619966,131.546528 C204.753399,130.339445 206.886832,129.749953 209.048335,129.749953 C210.901049,129.749953 212.557269,130.086991 214.045056,130.648241 C215.504774,131.265544 216.767996,132.164047 217.750493,133.315005 C218.901429,134.606312 219.715501,136.122118 220.248861,137.890667 C220.838353,139.659144 221.091002,141.932961 221.091002,144.796271 L221.091045,170.706336 L208.68345,170.706336 L208.68345,170.706336 L208.68345,170.706336 L208.68345,170.706336 Z" id="path7028" fill="#FFFFFF" sketch:type="MSShapeGroup"></path>
                                        </g>
                                    </g>
                                </g>
                            </g>
                        </g>
                    </g>
                </g>
            </g>
        </g>
    </g>
</svg>