<?xml version="1.0" encoding="utf-8"?>
<!-- Generator: Adobe Illustrator 18.1.1, SVG Export Plug-In . SVG Version: 6.00 Build 0)  -->
<!DOCTYPE svg PUBLIC "-//W3C//DTD SVG 1.1//EN" "http://www.w3.org/Graphics/SVG/1.1/DTD/svg11.dtd">
<svg version="1.1" id="Layer_1" xmlns="http://www.w3.org/2000/svg" xmlns:xlink="http://www.w3.org/1999/xlink" x="0px" y="0px"
	 viewBox="0 0 348 332" enable-background="new 0 0 348 332" xml:space="preserve">
<g>
	<g>
		<path fill="#868A91" d="M0,59.1c0.1,14.3,4.3,30.9,12.8,50c17.9,40.1,48.7,80.4,92.2,121.4c43.4,40.7,87,70.1,130.6,87.8
			c20.5,8.3,38.7,12.8,54.6,13.6c16.4,0.7,29.1-2.9,38-10.7c8.9-7.8,13.4-19.2,13.2-34c-0.1-14.2-4.3-30.8-12.8-49.7
			c-17.8-40.1-48.6-80.6-92.2-121.6c-43.6-40.9-87-70.2-130.5-87.8c-20.6-8.5-38.7-13-54.7-13.5c-16.4-0.8-29.1,2.8-38,10.6
			C4.3,32.9-0.1,44.2,0,59.1z"/>
		<g>
			<path fill="#AEB1B5" d="M335.1,223.2c-18-40.2-48.6-80.6-92-121.5c-43.5-40.9-87-70.3-130.8-88C91.8,5.4,73.7,0.9,57.7,0.1
				c-16.3-0.7-29.1,3-37.9,10.7c-9,7.8-13.5,19.1-13.3,33.9c0.1,14.4,4.3,31.1,12.8,50C37.2,134.8,68,175.3,111.5,216
				c43.3,41,86.9,70.3,130.6,88c20.6,8.3,38.7,12.8,54.6,13.6c16.4,0.7,29.1-3,38-10.7c8.9-7.8,13.4-19.1,13.3-33.9
				C347.9,258.7,343.6,242,335.1,223.2z"/>
		</g>
		<g>
			<path fill="#FFFFFF" d="M35,23.2c5.8,0.9,13.8,0.3,24-1.9c4.4-1,20,2.1,46.8,9.2c8.3,2.2,12.2,2.9,11.8,2.1
				c-0.7-1-8-4.8-22.2-11.3c-24.7-11.4-42.8-13.4-54-6.2c-3.3,2.3-5.4,4.8-6.8,7.7c-0.2,0.7-0.4,1.3-0.4,1.7
				C34.5,24.4,34.8,23.9,35,23.2z"/>
		</g>
		<g>
			<path fill="#FFFFFF" d="M318.6,287.8c-9.5,3.1-24.4,4.2-45,3.7c-17.9-0.4-28-1.1-30.5-2.3c32.3,17.2,58.6,20.5,78.8,9.5
				c20-10.8,25.2-20.8,15.5-30.1C339.4,276.6,333.1,283,318.6,287.8z"/>
		</g>
	</g>
	<g>
		<g>
			<path fill="#353C47" d="M246.5,30.7v-0.1c-2.1-2-4.4-3.1-7-3.1c-2.5,0-4.7,1.2-6.4,3.4h-0.2c-1.7,2-2.6,4.5-2.6,7.2
				c0,3.1,0.9,5.6,2.8,7.8c1.8,2.2,4.1,3.2,6.6,3.2s4.9-1,6.8-3.2c1.7-2.2,2.6-4.7,2.6-7.8C249.1,35.2,248.2,32.8,246.5,30.7z"/>
			<path fill="#353C47" d="M246.1,64.1c-0.3-0.3-0.7-0.5-1.1-0.5h-26.9c-0.4,0-0.8,0.2-1,0.5c-0.3,0.3-0.5,0.5-0.5,1v5.8
				c0,0.5,0.2,0.7,0.5,1c0.2,0.3,0.6,0.5,1,0.5h20.2v52.2h-18.9c-0.5,0-0.7,0.1-1.1,0.4c-0.2,0.2-0.4,0.6-0.4,1v5.9
				c0,0.5,0.2,0.8,0.4,1.1c0.4,0.3,0.6,0.4,1.1,0.4H267c0.4,0,0.8-0.1,1.1-0.4c0.3-0.3,0.4-0.6,0.4-1.1V126c0-0.4-0.1-0.8-0.4-1
				c-0.3-0.3-0.7-0.4-1.1-0.4h-20.5V65.1C246.5,64.6,246.3,64.4,246.1,64.1z"/>
			<path fill="#353C47" d="M269.2,76.8c-0.4,0-0.7,0.1-1,0.4c-0.3,0.3-0.4,0.6-0.4,1v5.9c0,0.3,0.1,0.7,0.4,1c0.3,0.2,0.6,0.4,1,0.4
				h11.1v52.2h-10.2c-0.5,0-0.7,0.1-1,0.4c-0.3,0.3-0.5,0.6-0.5,1v5.8c0,0.4,0.2,0.8,0.5,1c0.3,0.3,0.5,0.5,1,0.5h28.3
				c0.4,0,0.7-0.2,1-0.5c0.2-0.2,0.4-0.6,0.4-1v-6c0-0.4-0.2-0.7-0.4-1c-0.3-0.2-0.6-0.4-1-0.4h-10v-34.7
				c6-12.5,13.5-18.7,22.2-18.9c8.3,0.2,12.5,5.4,12.5,15.9v37.7h-9.5c-0.4,0-0.7,0.2-1,0.4c-0.2,0.3-0.4,0.6-0.4,1v6
				c0,0.4,0.2,0.8,0.4,1c0.3,0.3,0.6,0.5,1,0.5h27.2c0.4,0,0.6-0.2,1-0.5c0.3-0.2,0.4-0.6,0.4-1v-6c0-0.4-0.1-0.7-0.4-1
				c-0.4-0.2-0.6-0.4-1-0.4h-9.6V99.2c0-7.4-1.7-13.3-5.1-17.5c-3.5-4.2-8.5-6.4-15-6.4c-5,0-9.5,1.3-13.2,3.9
				c-3,1.9-6.1,5.1-9.3,9.5V78.2c0-0.4-0.2-0.7-0.5-1c-0.2-0.3-0.5-0.4-1-0.4H269.2z"/>
			<path fill="#353C47" d="M193.3,78.5v5.4c-3.1,0.7-7,1.3-11.8,2c-8,1.2-14.2,2.7-18.3,4.4H163c-4.2,1.8-7.7,4.3-10.3,7.5h-0.2
				c-3.7,4.3-5.4,9.3-5.4,15c0,4.9,1.5,9,4.6,12.3c3.5,4.2,9,6.5,16.7,6.5c5.7,0,10.7-1.1,14.7-3.2c3.3-1.7,6.8-4.6,10.7-8.5
				c1.4,7.9,5.5,11.8,12.4,11.7c3,0,5.9-0.9,8.8-2.5c0.2-0.2,0.4-0.5,0.6-0.7c0.2-0.1,0.2-0.3,0.2-0.6v-6c0-0.5-0.2-0.7-0.4-0.9
				c-0.2-0.3-0.6-0.5-1-0.6c-0.4,0-0.7,0.1-1,0.3c-2.9,2.1-5.2,3.1-7,3.2c-1.3,0-2.5-0.6-3.5-1.9c-1-1.5-1.6-3.2-1.6-5.1V79.5
				c0-8.6-1.9-14.7-5.8-18.5c-3.7-3.9-9.7-5.8-18.2-5.8c-8.1,0-14.6,2-19.4,5.9v0.2c-4.8,4.1-7.3,8.6-7.3,13.4
				c0,2.2,0.7,4.2,2.2,5.9c1.3,1.6,2.9,2.2,5.1,2.2c2.2,0,4.1-0.8,5.5-2.4v-0.2c1.4-1.5,2.1-3.8,2.1-6.3s-0.7-4.7-2.2-6.5
				c3.9-2.5,8.5-3.8,13.5-3.8C187.8,63.6,193.3,68.6,193.3,78.5z M193.3,93.1v14.1c-7.1,10.6-15.6,15.9-25.2,16c-3.9,0-7-1-9.3-3
				c-2.4-2.2-3.5-4.9-3.5-8.2c0-2.8,1-5.4,2.9-7.6c2.2-2.6,4.8-4.5,8.1-5.8v-0.2c3.4-1.2,8.8-2.6,16.2-3.6L193.3,93.1z"/>
			<path fill="#353C47" d="M232.9,154.7c-0.4,0-0.7,0.1-1,0.5c-0.3,0.2-0.4,0.5-0.4,1v7.6c0,0.5,0.1,0.8,0.4,1.1
				c0.3,0.3,0.6,0.4,1,0.4h13v113.5h-12.4c-0.4,0-0.7,0.2-1,0.4c-0.3,0.3-0.4,0.7-0.4,1.1v7.7c0,0.5,0.1,0.8,0.4,1
				c0.3,0.3,0.6,0.5,1,0.5h37.7c0.5,0,0.8-0.2,1-0.5c0.4-0.2,0.5-0.5,0.5-1v-7.7c0-0.4-0.1-0.8-0.5-1.1c-0.2-0.2-0.5-0.4-1-0.4
				h-16.1v-46.9h24.1c10.7,0,19.2-3.5,25.2-10.4c6-6.8,9-16.3,9-28.3s-3-21.3-8.6-28c-6-7-14-10.5-24.2-10.5H232.9z M255.1,165.3
				h23.3c16.7,0,25.2,9.4,25.2,28.1c0,18.6-8.7,27.8-26.2,27.8h-22.3V165.3z"/>
			<path fill="#353C47" d="M227.2,197.7c-2.1-9.6-5-17.2-8.5-22.6c-10.1-15.6-24.6-23.4-43.9-23.4c-9.5,0-18.2,2.5-26.2,7.8
				c-8.3,5.7-14.8,14-19.4,25.2c-4.7,11.2-7,23.9-7,38.1c0,10,1.2,19.7,3.3,29.2h-0.1c2.2,9.7,5.3,17.4,8.9,23
				c10,15.5,24.4,23.2,42.9,23.2c13.6,0,24.7-4.1,33.1-12.4c5.9-5.7,9.9-11.5,12.3-17.2h-0.2c5.4-12.6,8-26.4,8-40.8
				C230.4,217.3,229.4,207.3,227.2,197.7z M210.1,183.7c5.7,10.9,8.4,25.1,8.4,42.1c0,20-3.5,35.2-10.7,46.1
				c-7,10.2-17.1,15.5-30.2,15.5c-13.2,0-23.7-5.4-31.5-16.2c-8-11-11.9-25.7-11.9-44.2c0-9.3,1-18.4,2.9-27
				c1.8-8.6,4.3-15,7.4-19.5c7.7-12.3,18.5-18.3,32.7-18.3c6.8,0,13.4,2,19.6,6.2C202.3,172.2,206.7,177.3,210.1,183.7z"/>
			<path fill="#353C47" d="M5.8,45.7c0.3,0.3,0.6,0.4,1,0.4h11.4v85H6.8c-0.4,0-0.7,0.1-1,0.5c-0.3,0.2-0.5,0.5-0.5,1v5.8
				c0,0.4,0.2,0.7,0.5,1c0.3,0.3,0.6,0.4,1,0.4h36.6c9.1,0,16.3-2.6,21.4-7.7c5.2-5.1,7.9-12.2,7.9-21.3c0-8.9-2.8-16-8.2-21.6
				c-2.1-2.3-5-4-8.6-5.6c9.3-4.8,14-12.4,14-22.5c0-7-2.3-12.9-6.9-17.2c-4.5-4.3-10.5-6.5-18.1-6.5H6.8c-0.4,0-0.7,0.2-1,0.5
				c-0.3,0.2-0.5,0.5-0.5,1v5.8C5.3,45.1,5.5,45.4,5.8,45.7z M26.4,46.1h19.2c4.9,0,8.9,1.3,11.8,4.1c2.7,2.7,4.2,6.3,4.2,10.9
				c0,5.8-2.2,10.4-6.4,13.8c-4.5,3.6-10.7,5.3-18.1,5.3H26.4V46.1z M26.4,89H43c6.5,0,11.6,2.1,15.5,6.1c4,4.1,6,9.5,6,16.2
				c0,6.1-1.7,10.9-5.4,14.5c-3.6,3.5-8.4,5.3-14.7,5.3h-18V89z"/>
			<path fill="#353C47" d="M38.1,154.4c-0.2,0.3-0.4,0.6-0.4,1v7.8c0,0.4,0.2,0.6,0.4,1c0.4,0.2,0.7,0.4,1,0.4h13.2v113.5H39.8
				c-0.5,0-0.8,0.1-1,0.4c-0.3,0.3-0.5,0.6-0.5,1v7.7c0,0.5,0.2,0.8,0.5,1.1c0.2,0.3,0.5,0.5,1,0.5h37.9c0.3,0,0.6-0.2,1-0.5
				c0.3-0.3,0.4-0.6,0.4-1.1v-7.7c0-0.4-0.1-0.7-0.4-1c-0.4-0.3-0.7-0.4-1-0.4H61.3V231h24.2c10.7,0,19.1-3.3,25.2-10.2
				c6-6.8,8.9-16.3,8.9-28.4c0-11.9-2.9-21.2-8.6-28c-6-7-14-10.5-24.2-10.5H39.1C38.8,153.9,38.5,154.1,38.1,154.4z M84.8,164.6
				c16.7,0,25,9.3,25,28c0,18.5-8.7,27.6-26.2,27.6H61.3v-55.6H84.8z"/>
			<path fill="#353C47" d="M128.4,77.2C128.4,77.2,128.4,77.2,128.4,77.2c-0.9,1.7-1.6,3.5-1.6,5.4c0,5.6,2.4,8.5,6.9,8.3
				c2.2,0,4-0.9,5.4-2.8c1.3-1.9,1.9-3.9,1.9-6.3c0-3.7-1.4-7.4-4.2-10.7c-3.2-3.7-7.3-5.4-12.3-5.4c-8.7-0.1-16.5,5.5-23.5,16.7
				v-12c0-0.5-0.2-0.8-0.5-1.1c-0.3-0.2-0.6-0.4-1-0.4H78.2c-0.4,0-0.7,0.2-1,0.4c-0.3,0.3-0.4,0.6-0.4,1.1v5.8c0,0.4,0.1,0.7,0.4,1
				c0.3,0.3,0.6,0.5,1,0.5h14.6v52H82c-0.5,0-0.8,0.1-1,0.4c-0.3,0.2-0.5,0.6-0.5,1v6c0,0.4,0.2,0.7,0.5,1c0.2,0.3,0.5,0.4,1,0.4
				h32.5c0.5,0,0.7-0.1,1-0.4c0.3-0.3,0.5-0.6,0.5-1v-6c0-0.4-0.2-0.8-0.5-1c-0.3-0.3-0.5-0.4-1-0.4H101v-30c0-1.9,0.8-4.6,2.4-7.9
				c1.6-3.6,3.6-6.6,6.1-9.4c4.8-5.6,9.7-8.4,14.5-8.5c1.4,0,2.8,0.2,3.8,1c0.5,0.4,0.8,0.9,1,1.4C128.8,76.6,128.6,76.9,128.4,77.2
				z"/>
		</g>
		<g>
			<path fill="#353C47" d="M335.9,168.3c0,3-1,5.5-3,7.5c-2,2-4.5,3-7.5,3c-3,0-5.5-1-7.5-3c-2-2-3-4.5-3-7.5c0-3,1-5.5,3-7.5
				c2-2,4.5-3,7.5-3c3,0,5.5,1,7.5,3C334.9,162.8,335.9,165.3,335.9,168.3z M333.7,168.3c0-2.5-0.8-4.5-2.4-6.1
				c-1.6-1.6-3.6-2.3-6-2.3c-2.4,0-4.4,0.8-6,2.3c-1.6,1.6-2.4,3.6-2.4,6.1c0,2.5,0.8,4.5,2.4,6.1c1.6,1.6,3.6,2.3,6,2.3
				c2.4,0,4.4-0.8,6-2.3C333,172.8,333.7,170.8,333.7,168.3z M330.8,173.7h-3.5l-1.9-3.8h-1.3v3.8H321v-11.4h5.1
				c3,0,4.5,1.2,4.5,3.7c0,1.6-0.7,2.7-2.1,3.4L330.8,173.7z M327.4,166.1c0-0.8-0.5-1.2-1.4-1.2h-1.9v2.5h1.9
				C326.9,167.3,327.4,166.9,327.4,166.1z"/>
		</g>
	</g>
</g>
</svg>
