<svg id="Layer_1" data-name="Layer 1" xmlns="http://www.w3.org/2000/svg" viewBox="0 0 246.41 116.09"><defs><style>.cls-1{fill:#353c47;}.cls-2{fill:#4f5968;}</style></defs><title>bu-harpur-edge</title><path class="cls-1" d="M444.91,299.84V356h-14v-3.34a14.48,14.48,0,0,1-4.24,3.13,10.81,10.81,0,0,1-4.65,1,9.44,9.44,0,0,1-5.66-1.72,7.66,7.66,0,0,1-3.07-4,28.32,28.32,0,0,1-.68-7.36V322.27a29,29,0,0,1,.68-7.53,7.48,7.48,0,0,1,3.11-3.91,9.93,9.93,0,0,1,5.8-1.68,11.47,11.47,0,0,1,8.71,3.76V299.84h14Zm-14,21.73a8.77,8.77,0,0,0-.43-3.4,1.73,1.73,0,0,0-1.72-.87,1.75,1.75,0,0,0-1.68.78,8.69,8.69,0,0,0-.43,3.49v22.57a10.38,10.38,0,0,0,.42,3.7,1.59,1.59,0,0,0,1.6.89,1.78,1.78,0,0,0,1.81-1,15.27,15.27,0,0,0,.45-4.84V321.57Z" transform="translate(-272.17 -247.91)"/><path class="cls-1" d="M481.82,310v35.48a78.47,78.47,0,0,1-.33,9.29,9.26,9.26,0,0,1-2.34,4.44,12.57,12.57,0,0,1-5.61,3.58,28.26,28.26,0,0,1-9,1.23q-6.7,0-10.76-2.27t-4.2-8.94h13.61q0,3.06,2.22,3.06a2.2,2.2,0,0,0,2.12-.94A9.48,9.48,0,0,0,468,351V347.5a13.34,13.34,0,0,1-3.8,2.47,10.74,10.74,0,0,1-4.18.83,11.59,11.59,0,0,1-6.23-1.53,7.82,7.82,0,0,1-3.35-4,21.55,21.55,0,0,1-.9-7.07V321.47q0-6.56,2.36-9.44t7.19-2.88a10.66,10.66,0,0,1,4.81,1.08,11.43,11.43,0,0,1,3.87,3.24l1-3.48h13.05ZM467.76,322.2a13.32,13.32,0,0,0-.36-4,1.56,1.56,0,0,0-1.61-.87,1.77,1.77,0,0,0-1.72,1,9.94,9.94,0,0,0-.5,3.91v15.48a12.93,12.93,0,0,0,.38,4,1.54,1.54,0,0,0,1.6.92,1.72,1.72,0,0,0,1.81-1.11,18.32,18.32,0,0,0,.42-5V322.2Z" transform="translate(-272.17 -247.91)"/><path class="cls-1" d="M518.58,333.83H500.42v10a11.05,11.05,0,0,0,.45,4,1.75,1.75,0,0,0,1.74.9,2.11,2.11,0,0,0,2.13-1.2,13.09,13.09,0,0,0,.54-4.63v-6.08h13.3v3.4a30.57,30.57,0,0,1-.54,6.56,13.39,13.39,0,0,1-2.52,4.9,12.26,12.26,0,0,1-5,3.91,19.42,19.42,0,0,1-7.62,1.3A22.15,22.15,0,0,1,495,355.6a12.56,12.56,0,0,1-5.29-3.52,12.74,12.74,0,0,1-2.62-4.93,31.83,31.83,0,0,1-.73-7.83V325.88a22.86,22.86,0,0,1,1.63-9.53,11.2,11.2,0,0,1,5.35-5.35,18.85,18.85,0,0,1,8.54-1.86,19.1,19.1,0,0,1,9.74,2.24,12.32,12.32,0,0,1,5.38,5.94q1.54,3.7,1.54,10.4v6.11Zm-14.06-7.5V323a17,17,0,0,0-.38-4.62,1.51,1.51,0,0,0-1.56-1,1.71,1.71,0,0,0-1.81.89,18.44,18.44,0,0,0-.35,4.77v3.37h4.1Z" transform="translate(-272.17 -247.91)"/><path class="cls-1" d="M386,333.13V300.74h24.37V312h-9.76v10.66l9.13,0.1v3S393,328.36,386,333.13Z" transform="translate(-272.17 -247.91)"/><path class="cls-1" d="M400.66,334.17c-2.13,2.84-4.23,5.92-6.24,9.23a111.89,111.89,0,0,0-7.06,13.55h24V345.7H400.66V334.17Z" transform="translate(-272.17 -247.91)"/><path class="cls-2" d="M281.37,247.91V267h16.94V247.91h9.2v49.81h-9.2V269.6l-16.94,6.64v21.49h-9.2V247.91h9.2Z" transform="translate(-272.17 -247.91)"/><path class="cls-2" d="M314.66,267a11,11,0,0,1,3.28-3.7,13,13,0,0,1,4.48-2,21.6,21.6,0,0,1,5-.59,28.73,28.73,0,0,1,4.63.38,12.55,12.55,0,0,1,4.28,1.5,9,9,0,0,1,3.16,3.1,9.92,9.92,0,0,1,1.23,5.27V289.7a44.79,44.79,0,0,0,.23,4.67,9.63,9.63,0,0,0,.82,3.35h-8.44A16,16,0,0,1,333,296a17.13,17.13,0,0,1-.21-1.78,10.73,10.73,0,0,1-4.69,3.42,16.07,16.07,0,0,1-5.51,1,12.67,12.67,0,0,1-4-.63,8.78,8.78,0,0,1-3.28-2,9,9,0,0,1-2.2-3.35,13.21,13.21,0,0,1-.79-4.81,12.2,12.2,0,0,1,.91-5.06,8.73,8.73,0,0,1,2.34-3.17,9.81,9.81,0,0,1,3.28-1.78,30.49,30.49,0,0,1,3.72-.94q1.88-.35,3.69-0.56a19,19,0,0,0,3.22-.63,5.26,5.26,0,0,0,2.23-1.22,3,3,0,0,0,.76-2.34,6.11,6.11,0,0,0-.44-2.55,3.65,3.65,0,0,0-1.17-1.46,4.15,4.15,0,0,0-1.7-.7,11.73,11.73,0,0,0-2.08-.17,5.6,5.6,0,0,0-3.87,1.26,6.06,6.06,0,0,0-1.64,4.19h-8.32A13.12,13.12,0,0,1,314.66,267Zm16.44,14a11.7,11.7,0,0,1-1.7.52q-0.91.21-1.9,0.35t-2,.35a13.23,13.23,0,0,0-1.85.56,5.2,5.2,0,0,0-1.58.94,4.34,4.34,0,0,0-1.08,1.5,5.6,5.6,0,0,0-.41,2.3,5.39,5.39,0,0,0,.41,2.23,3.56,3.56,0,0,0,1.11,1.43,4.27,4.27,0,0,0,1.64.73,8.83,8.83,0,0,0,1.93.21,6.4,6.4,0,0,0,3.81-1,6.11,6.11,0,0,0,2-2.34,8.47,8.47,0,0,0,.79-2.76q0.15-1.39.15-2.23v-3.7A3.63,3.63,0,0,1,331.1,280.95Z" transform="translate(-272.17 -247.91)"/><path class="cls-2" d="M353.92,261.66v6.7H354a12.79,12.79,0,0,1,1.58-3.11,11.27,11.27,0,0,1,2.29-2.44,10.5,10.5,0,0,1,2.75-1.57,8.49,8.49,0,0,1,3-.56,5.58,5.58,0,0,1,1.82.35v9.21a14.14,14.14,0,0,0-1.41-.24,12.6,12.6,0,0,0-1.58-.1,7.68,7.68,0,0,0-3.87.91,7.11,7.11,0,0,0-2.55,2.48,10.91,10.91,0,0,0-1.38,3.66,23.56,23.56,0,0,0-.41,4.53v16.26H346V261.66h7.91Z" transform="translate(-272.17 -247.91)"/><path class="cls-2" d="M375.54,261.66v4.6h0.12a10,10,0,0,1,3.87-4.25,10.29,10.29,0,0,1,5.16-1.33,11.42,11.42,0,0,1,6.15,1.6,13.56,13.56,0,0,1,4.28,4.26,19.6,19.6,0,0,1,2.52,6.17,32.36,32.36,0,0,1,.82,7.36,29.22,29.22,0,0,1-.82,7,19.25,19.25,0,0,1-2.49,5.93A13.11,13.11,0,0,1,391,297.1a10.9,10.9,0,0,1-5.83,1.54,10.26,10.26,0,0,1-5.19-1.36,10.55,10.55,0,0,1-3.9-4H376v17.09l-8.32,4.92V261.66h7.91Zm10.81,28.6a7.37,7.37,0,0,0,2.23-2.55,11.75,11.75,0,0,0,1.2-3.66,25.64,25.64,0,0,0,.35-4.26,23.77,23.77,0,0,0-.38-4.26,12.66,12.66,0,0,0-1.26-3.73,7.81,7.81,0,0,0-2.26-2.65,5.54,5.54,0,0,0-3.37-1,5.64,5.64,0,0,0-3.43,1,7.6,7.6,0,0,0-2.23,2.62,12.17,12.17,0,0,0-1.2,3.7,26.06,26.06,0,0,0-.35,4.33,23.68,23.68,0,0,0,.38,4.26,12.26,12.26,0,0,0,1.23,3.66,7.24,7.24,0,0,0,2.26,2.55A6.45,6.45,0,0,0,386.36,290.26Z" transform="translate(-272.17 -247.91)"/><path class="cls-2" d="M422.78,297.72v-5H422.6a10.22,10.22,0,0,1-4.1,4.54,10.54,10.54,0,0,1-5.16,1.4,12.47,12.47,0,0,1-5.48-1,8.17,8.17,0,0,1-3.37-3,12.78,12.78,0,0,1-1.73-4.67,34.43,34.43,0,0,1-.5-6.1V261.66h8.32V282a14.65,14.65,0,0,0,1.17,6.66,4.3,4.3,0,0,0,4.16,2.2,5.39,5.39,0,0,0,4.92-2.41q1.52-2.41,1.52-7.92V261.66h8.32v36.07h-7.91Z" transform="translate(-272.17 -247.91)"/><path class="cls-2" d="M443.76,261.66v6.7h0.12a12.75,12.75,0,0,1,1.58-3.11,11.28,11.28,0,0,1,2.29-2.44,10.51,10.51,0,0,1,2.75-1.57,8.48,8.48,0,0,1,3-.56,5.58,5.58,0,0,1,1.82.35v9.21A14.17,14.17,0,0,0,454,270a12.59,12.59,0,0,0-1.58-.1,7.68,7.68,0,0,0-3.87.91,7.11,7.11,0,0,0-2.55,2.48,10.91,10.91,0,0,0-1.38,3.66,23.52,23.52,0,0,0-.41,4.53v16.26h-8.32V261.66h7.91Z" transform="translate(-272.17 -247.91)"/><path class="cls-1" d="M411.39,356.94V345.7H400.66V331.59s-9.12,3.13-14.58,9.33v16" transform="translate(-272.17 -247.91)"/></svg>