<?xml version="1.0" encoding="utf-8"?>
<!-- Generator: Adobe Illustrator 18.1.1, SVG Export Plug-In . SVG Version: 6.00 Build 0)  -->
<!DOCTYPE svg PUBLIC "-//W3C//DTD SVG 1.1//EN" "http://www.w3.org/Graphics/SVG/1.1/DTD/svg11.dtd">
<svg version="1.1" id="Layer_1" xmlns="http://www.w3.org/2000/svg" xmlns:xlink="http://www.w3.org/1999/xlink" x="0px" y="0px"
	 viewBox="0 74.3 431.8 67.4" enable-background="new 0 74.3 431.8 67.4" xml:space="preserve">
<g>
	<g>
		<g>
			<path fill="#353C47" d="M15,110.8c0-1.9,1.3-1.3,1.3-1.8c0-0.2-0.1-0.2-0.3-0.2c-0.9,0-1.4,0.1-2,0.1c-0.5,0-1,0-1.5-0.1
				c-0.2,0-0.5-0.1-0.5,0.2c0,0.6,2.1,0.1,2.1,2v3.4c0,2.9-0.4,5.5-3.9,5.5c-3.2,0-3.8-2.1-3.8-4.8v-3.7c0-2.8,1.5-1.9,1.5-2.5
				c0-0.1,0-0.2-0.2-0.2c-0.3,0-1.6,0.1-2.5,0.1s-2.2-0.1-2.5-0.1c-0.1,0-0.3,0-0.3,0.3c0,0.6,1.8,0.1,1.8,1.6v5.5
				c0,3.3,1.8,4.8,5,4.8c4.9,0,5.9-2.9,5.9-6.4L15,110.8L15,110.8z"/>
			<path fill="#353C47" d="M29.4,118.5c0,1.7-1.7,1.4-1.7,2.1c0,0.3,0.3,0.2,0.5,0.2c0.4,0,1-0.1,1.5-0.1c0.6,0,1.2,0.1,2.1,0.1
				c0.2,0,0.6,0,0.6-0.2c0-0.9-2.2,0.3-2.2-2.9v-5.8c0-0.1,0-0.3,0.1-0.3c0.1,0,0.2,0.1,0.3,0.2l8.5,8.9c0.1,0.1,0.2,0.2,0.4,0.2
				c0.2,0,0.2-0.1,0.2-0.5v-9.6c0-1.8,1.5-1.4,1.5-1.9c0,0,0-0.2-0.3-0.2c-0.2,0-0.7,0.1-1.9,0.1s-1.7-0.1-2-0.1
				c-0.2,0-0.3,0.2-0.3,0.3c0,0.5,2.1,0.2,2.1,1.8v5.7c0,0.4,0,0.6-0.1,0.6s-0.3-0.2-0.5-0.4l-7.1-7.6c-0.3-0.3-0.1-0.4-0.6-0.4
				c-1,0-1.4,0.1-1.8,0.1c-0.3,0-0.6-0.1-1-0.1c-0.2,0-0.3,0.1-0.3,0.3c0,0.9,2-0.3,2,3L29.4,118.5L29.4,118.5z"/>
			<path fill="#353C47" d="M56.9,110.6c0-1.6,1.3-1,1.3-1.6c0-0.2-0.1-0.2-0.6-0.2c-1,0-1.6,0.1-2.2,0.1c-0.6,0-1.3-0.1-2-0.1
				c-0.1,0-0.6,0-0.6,0.2c0,0.6,2,0.1,2,1.7v8.2c0,1.6-1.3,1.2-1.3,1.8c0,0.1,0,0.2,0.2,0.2c0.4,0,1.2-0.1,2-0.1
				c1.4,0,2,0.1,2.7,0.1c0.4,0,0.5-0.1,0.5-0.2c0-0.5-2,0.2-2-1.8v-8.3H56.9z"/>
			<path fill="#353C47" d="M82,110.2c0.4-1,1.2-1,1.2-1.3c0-0.3-0.2-0.2-0.6-0.2c-0.5,0-1,0.1-1.5,0.1c-0.5,0-1-0.1-1.5-0.1
				c-0.2,0-0.7,0-0.7,0.3c0,0.6,1.8,0,1.8,1.6c0,0.3,0,0.9-0.5,2l-2.5,5.2c0,0.1-0.1,0.3-0.2,0.3c-0.1,0-0.2-0.2-0.2-0.3l-2.3-5.4
				c-0.4-1.1-0.6-1.8-0.6-2.3c0-0.7,1.1-0.4,1.1-1c0-0.3-0.1-0.3-0.6-0.3c-0.3,0-0.7,0.1-1.9,0.1c-0.6,0-1.2-0.1-1.8-0.1
				c-0.2,0-0.9-0.1-0.9,0.3c0,0.1,0.2,0.2,0.3,0.2c0.7,0.2,1,0.3,1.3,1.1l4.4,9.9c0.3,0.7,0.5,0.9,0.6,0.9c0.2,0,0.3-0.1,0.4-0.5
				L82,110.2L82,110.2z"/>
			<path fill="#353C47" d="M98.1,110.8c0-1.2,0.1-1.2,2.2-1.2c3.4,0,2,2,2.9,2c0.4,0,0.3-0.5,0.3-0.7l-0.1-1.8
				c0-0.1-0.1-0.3-0.3-0.3c-1.6,0-2.8,0.1-4.1,0.1c-2.7,0-3.9-0.1-4.7-0.1c-0.2,0-0.4,0.1-0.4,0.3c0,0.6,2,0.1,2,1.7v8
				c0,2.1-1.4,1.2-1.4,1.9c0,0.1,0.1,0.2,0.3,0.2c1,0,1.7-0.1,2.2-0.1c0.9,0,1.9,0.1,4.6,0.1c1.5,0,2.5-1.4,2.5-2.8
				c0-0.3-0.1-0.4-0.2-0.4c-0.6,0-0.4,2.2-4.8,2.2c-1.3,0-1.2-0.6-1.2-1.7v-2.1c0-1-0.1-1.2,0.7-1.2h1.3c1.8,0,1.4,1.8,1.9,1.8
				c0.4,0,0.3-0.6,0.3-0.9l-0.1-3c0-0.4-0.2-0.4-0.3-0.4c-0.3,0-0.4,1.6-1.9,1.6h-1.1c-0.7,0-0.7-0.1-0.7-0.9V110.8L98.1,110.8z"/>
			<path fill="#353C47" d="M119.3,110.5c0-1.1,0.5-1.1,1.2-1.1c1.8,0,2.8,1.3,2.8,3c0,1-0.1,1.9-2.8,1.9c-0.5,0-1.2,0-1.2-0.4V110.5
				L119.3,110.5z M117.2,118.3c0,2.1-1.4,1.6-1.4,2.1c0,0.3,0.3,0.3,0.5,0.3c0.9,0,1.8-0.1,2.7-0.1c0.7,0,1.2,0.1,1.5,0.1
				c0.4,0,0.5-0.1,0.5-0.2c0-0.6-1.7,0.1-1.7-1.7v-3c0-0.6-0.1-0.7,0.9-0.7c0.9,0,1.2,0.1,1.6,0.9l1.5,2.7c0.5,1,1.1,2,2.5,2
				c0.7,0,1.9-0.4,1.9-0.9c0-0.1-0.1-0.2-0.2-0.2c-0.2,0-0.3,0.1-0.5,0.1c-0.1,0-0.4,0-0.6-0.3c-1.3-2.1-2.8-4.6-2.8-4.7
				c0-0.2,0.5-0.3,1.1-0.7c0.5-0.4,1.1-1.1,1.1-2.1c0-0.7-0.3-3.2-4.3-3.2c-1.2,0-2.3,0.1-3.5,0.1c-1.1,0-1.3-0.1-2-0.1
				c-0.2,0-0.4,0.1-0.4,0.2c0,0.6,1.9,0,1.9,1.9v7.6H117.2z"/>
			<path fill="#353C47" d="M139.8,119.6c0.1,0.4,0.1,0.5,0.5,0.6c1.1,0.2,1.9,0.6,3,0.6c2.3,0,3.9-1.5,3.9-3.7
				c0-2.1-1.2-2.9-3.1-3.7c-2.3-1-3.3-1.3-3.3-2.3c0-1.2,0.7-1.8,1.9-1.8c3,0,3.3,3.2,3.7,3.2s0.4-0.2,0.4-0.5l-0.2-2.2
				c0-0.4,0-0.6-0.2-0.6s-0.6,0.3-0.9,0.3c-0.5,0-1.3-0.6-2.7-0.6c-2,0-3.5,1.4-3.5,3.4c0,1.8,1.1,2.5,2.6,3.1
				c2.9,1.2,3.9,1.4,3.9,2.9c0,1.4-1.1,2.1-2.5,2.1c-1.9,0-3.1-1.6-3.6-3.2c-0.1-0.2-0.1-0.4-0.4-0.4c-0.4,0-0.2,0.5-0.2,0.7
				L139.8,119.6L139.8,119.6z"/>
			<path fill="#353C47" d="M163.2,110.6c0-1.6,1.3-1,1.3-1.6c0-0.2-0.1-0.2-0.6-0.2c-1,0-1.6,0.1-2.2,0.1c-0.6,0-1.3-0.1-2-0.1
				c-0.1,0-0.6,0-0.6,0.2c0,0.6,2,0.1,2,1.7v8.2c0,1.6-1.3,1.2-1.3,1.8c0,0.1,0,0.2,0.2,0.2c0.4,0,1.2-0.1,2-0.1
				c1.4,0,2,0.1,2.7,0.1c0.4,0,0.5-0.1,0.5-0.2c0-0.5-2,0.2-2-1.8v-8.3H163.2z"/>
			<path fill="#353C47" d="M181.2,118.6c0,2-2,1.2-2,1.9c0,0.4,0.3,0.3,0.6,0.3c0.7,0,1.3-0.1,2.5-0.1s1.8,0.1,2.5,0.1
				c0.5,0,0.9,0,0.9-0.3c0-0.4-2.2,0-2.2-2.1v-7.7c0-0.9,0.2-0.9,0.9-0.9h1.5c2-0.1,1.5,1.8,2.1,1.8c0.4,0,0.2-0.6,0.2-0.9l-0.2-1.6
				c0-0.2,0-0.4-0.3-0.4c-1.6,0-2.8,0.1-5.4,0.1c-2.7,0-3.7-0.1-5.4-0.1c-0.3,0-0.3,0.2-0.3,0.4l-0.3,2.2c0,0.2-0.1,0.6,0.2,0.6
				c0.7,0,0.2-2.2,2.2-2.2h1.5c0.7,0,0.9,0.1,0.9,0.9v7.9H181.2z"/>
			<path fill="#353C47" d="M203.8,115.4c0.2,0.4,0.3,0.5,0.3,1.1v2.2c0,2.1-1.9,1.3-1.9,2c0,0.1,0.2,0.2,0.4,0.2
				c0.5,0,1-0.1,2.6-0.1c2.2,0,2.5,0.1,2.7,0.1c0.3,0,0.5,0,0.5-0.2c0-0.9-2.1,0.3-2.1-1.8v-2.6c0-0.6,0-0.7,0.2-1.1l2.3-4.3
				c1.1-1.9,1.8-1.5,1.8-2c0-0.1-0.1-0.2-0.3-0.2c-0.5,0-0.6,0.1-2,0.1c-1,0-1.3-0.1-1.5-0.1c-0.2,0-0.3,0.1-0.3,0.2
				c0,0.5,1.7,0.1,1.7,1.3c0,0.1,0,0.3-0.3,1l-1.6,2.8c-0.2,0.4-0.3,0.5-0.4,0.5c-0.1,0-0.2-0.2-0.5-0.7l-1.6-3.2
				c-0.2-0.4-0.2-0.6-0.2-0.7c0-0.5,1-0.4,1-0.9c0-0.1,0-0.2-0.3-0.2c-1.1,0.1-1.8,0.1-2.6,0.1c-0.9,0-1.3-0.1-1.6-0.1
				c-0.4,0-0.6,0-0.6,0.2c0,0.5,1.1,0.1,1.8,1.4L203.8,115.4L203.8,115.4z"/>
			<path fill="#353C47" d="M8.1,79.1c0-2,0.1-3.3,2.5-3.3c3.2,0,5.8,2.2,5.8,5.4c0,2.6-1.1,3.9-3.7,3.9h-2.1c-2-0.2-2.3-0.3-2.3-2
				V79.1L8.1,79.1z M3.7,94.9c0,3.4-3.1,2.5-3.1,3.6C0.6,99,1,99,1.8,99c0.7,0,1.7-0.1,2.6-0.1c1.8,0,3.5,0.1,8.9,0.1
				c5.8,0,9.1-3,9.1-7.6c0-3.1-1.4-5-5.7-6.1v-0.1c2.6-0.9,3.8-2.8,3.8-4.9c0-0.9,0-6-8.7-6c-3-0.1-6,0-9,0c-1.7,0-1.9-0.1-2.1-0.1
				S0,74.3,0,74.8c0,1.7,3.7-0.2,3.7,4.6V94.9L3.7,94.9z M8.1,89.4c0-1.8,0.1-2.7,2.1-2.7c6.5,0,7.5,3.1,7.5,5.2
				c0,3.4-1.8,5.7-5.3,5.7c-3.4,0-4.4-1-4.4-4.3v-3.9H8.1z"/>
			<path fill="#353C47" d="M30.4,82.2c0-2.7,2.1-1.6,2.1-2.6c0-0.3-0.1-0.4-1-0.4c-1.6,0-2.7,0.1-3.6,0.1s-2.1-0.1-3.2-0.1
				c-0.2,0-1-0.1-1,0.4c0,1,3.2,0.2,3.2,2.8v13.4c0,2.7-2,1.9-2,2.9c0,0.1,0.1,0.3,0.3,0.3c0.7,0,1.9-0.1,3.2-0.1
				c2.2,0,3.3,0.1,4.3,0.1c0.6,0,1-0.1,1-0.4c0-0.9-3.2,0.4-3.2-3.1V82.2H30.4z"/>
			<path fill="#353C47" d="M37,95.2c0,2.9-2.8,2.3-2.8,3.4c0,0.4,0.5,0.3,0.9,0.3c0.7,0,1.5-0.1,2.5-0.1c1,0,1.9,0.1,3.3,0.1
				c0.3,0,1.1,0,1.1-0.3c0-1.3-3.6,0.6-3.6-4.8v-9.5c0.1-0.2,0.2-0.4,0.3-0.4s0.3,0.1,0.5,0.3l13.6,14.6c0.2,0.2,0.3,0.4,0.7,0.4
				c0.3,0,0.3-0.2,0.3-0.9V82.7c0-2.9,2.5-2.2,2.5-3.1c0-0.1,0-0.3-0.5-0.3c-0.2,0-1.3,0.1-3,0.1c-1.9,0-2.8-0.1-3.2-0.1
				c-0.4-0.1-0.5,0.2-0.5,0.3c0,1,3.4,0.4,3.4,3v9.3c0,0.7-0.1,1.1-0.2,1.1c-0.2,0-0.5-0.3-0.9-0.7L40,80c-0.5-0.5-0.2-0.7-1.1-0.7
				c-1.5,0-2.2,0.1-3,0.1c-0.5,0-1.1-0.1-1.6-0.1c-0.3,0-0.5,0.2-0.5,0.4c0,1.4,3.2-0.4,3.2,4.9V95.2L37,95.2z"/>
			<path fill="#353C47" d="M76.4,81c0-0.4,0-1.1-0.4-1.1c-0.4,0-0.5,0.7-1.2,0.7c-0.7,0-3.2-1.8-7.1-1.8c-7.1,0-10,6.2-10,10.9
				c0,2.2,1.3,9.4,9.6,9.4c3.1,0,6.3-1.3,9-2.8c0.2-0.1,0.3-0.3,0.3-0.7c0-0.4-0.1-1.2-0.1-2.3c0-3.6,1.9-2,1.9-3.3
				c0-0.3-0.2-0.4-0.3-0.4c-1.1,0-2,0.1-3.1,0.1c-1.4,0-2.7-0.1-3.9-0.1c-0.5,0-1.4-0.2-1.4,0.5c0,1.1,3.4-0.9,3.4,3.5
				c0,1.6-0.1,3.9-5.2,3.9c-4.6,0-6.6-5.1-6.6-8.9c0-7,3.7-8.7,6.4-8.7C75,80,75,86,75.6,86c0.5,0,0.7-0.1,0.7-0.5V81L76.4,81z"/>
			<path fill="#353C47" d="M99.1,82.2c0-2.8,2-1.5,2-2.6c0-0.2-0.1-0.3-0.6-0.3c-1.2,0-2.2,0.1-3.7,0.1c-1.7,0-2.5-0.1-3.6-0.1
				c-0.4,0-0.6-0.1-0.6,0.4c0,0.9,3.1-0.2,3.1,2.9v3.9c0,0.6-0.2,1.3-1,1.3h-8.4c-0.6,0-0.7-0.3-0.7-1.1v-4.6c0-2.5,2.1-1.7,2.1-2.6
				c0-0.3-0.2-0.4-0.6-0.4c-0.9,0-1.9,0.1-3.6,0.1c-1.5,0-2.3-0.1-3.2-0.1c-0.5,0-1.4,0-1.4,0.4c0,1.1,3.2-0.2,3.2,2.9V95
				c0,3.4-2.5,2.5-2.5,3.5c0,0.3,0.3,0.4,0.6,0.4c1.4,0,2.6-0.1,3.8-0.1c2,0,3,0.1,4.2,0.1c1,0,0.9-0.2,0.9-0.4c0-1-3.5,0-3.5-3.4
				v-4.4c0-1.3,0.1-1.5,1.4-1.5h7.6c1.3,0,1.2,0.3,1.2,1.5v5c0,2.7-2,1.9-2,2.9c0,0.2,0.2,0.3,0.5,0.3c1.5,0,2.6-0.1,3.6-0.1
				c1.2,0,2.9,0.1,3.7,0.1c0.3,0,0.6,0,0.6-0.3c0-1.1-3-0.1-3-3.6L99.1,82.2L99.1,82.2z"/>
			<path fill="#353C47" d="M109.7,90.6c-0.5,0-1,0-1-0.2c0-0.4,0.2-0.7,0.3-1.1l2.1-4.9c0.1-0.3,0.2-0.3,0.3-0.3s0.1,0,0.2,0.2
				l2.3,5c0.1,0.3,0.3,0.6,0.3,1.1c0,0.3-0.4,0.2-1,0.2H109.7L109.7,90.6z M114.4,92.1c0.7,0,0.9,0.3,1.8,2.5
				c0.3,0.7,0.5,1.3,0.5,1.9c0,1.7-2,1.4-2,2.2c0,0.4,0.3,0.3,0.9,0.3c0.9,0,1.9-0.1,3.1-0.1c1.9,0,2.7,0.1,3.6,0.1
				c0.7,0,1.1,0.1,1.1-0.4c0-1-1.5,0.2-2.5-1.8l-7.7-17.1c-0.3-0.9-0.4-0.9-0.6-0.9c-0.3,0-0.5,0.5-0.7,1l-7.7,16.8
				c-0.7,1.6-2.1,1.4-2.1,2c0,0.3,0.4,0.3,0.9,0.3c0.9,0,1.6-0.1,2.5-0.1c1,0,1.7,0.1,2.7,0.1c0.6,0,1.5,0.2,1.5-0.4
				c0-0.7-3.1-0.3-3.1-2.3c0-0.6,0.4-1.6,0.6-2.2c0.6-1.8,1.3-1.9,1.7-1.9H114.4L114.4,92.1z"/>
			<path fill="#353C47" d="M127.9,86.5c0-0.2,0-0.7,0.2-0.7c0.1,0,0.2,0.3,0.3,0.4l5.5,12.1c0.1,0.3,0.3,0.7,0.7,0.7
				c0.4,0,0.5-0.4,0.7-0.7l5.3-11c0.4-1,0.7-1.5,0.9-1.5c0.2,0,0.2,0.4,0.2,1.3l0.4,8.4c0.2,3.1-2,2.1-2,3.1c0,0.5,0.7,0.4,1.3,0.4
				c0.6,0,1.3-0.1,3.2-0.1c0.9,0,1.6,0.1,2.5,0.1c1,0,1.4,0,1.4-0.4c0-1.1-2.6,0.2-2.8-3.4l-0.5-12.4c-0.1-3.2,2.7-2.1,2.7-3.1
				c0-0.2-0.1-0.3-0.9-0.3s-1.3,0.1-1.8,0.1c-0.4,0-1-0.1-1.6-0.1c-0.5,0-0.6,0.3-0.7,0.5l-6.6,13.5c0,0.1-0.3,0.5-0.4,0.5
				c-0.2,0-0.2-0.2-0.3-0.4l-6.3-13.4c-0.4-0.9-0.6-0.9-1-0.9c-1,0-2,0.1-2.7,0.1c-1,0-1.4-0.1-1.7-0.1c-0.2,0-0.3,0.2-0.3,0.4
				c0,1.3,3-0.1,2.9,4.5L126,95.3c-0.1,2.9-2.5,2.2-2.5,3.2c0,0.2,0.1,0.4,0.5,0.4c0.4,0,1.4-0.1,2.8-0.1c1.3,0,1.9,0.1,2.9,0.1
				c0.7,0,0.6-0.3,0.6-0.4c0-1.2-3.1,0.4-3-4.3L127.9,86.5L127.9,86.5z"/>
			<path fill="#353C47" d="M156.8,95.3c0,3.3-3.2,2-3.2,3.1c0,0.6,0.5,0.5,1,0.5c1.2,0,2-0.1,3.9-0.1c1.9,0,2.9,0.1,3.9,0.1
				c0.9,0,1.4,0.1,1.4-0.5c0-0.7-3.6,0-3.6-3.4V82.4c0-1.4,0.3-1.5,1.5-1.5h2.5c3.3-0.1,2.3,3,3.5,3c0.7,0,0.4-1.1,0.3-1.4l-0.3-2.6
				c0-0.3,0-0.6-0.4-0.6c-2.7,0-4.6,0.1-8.6,0.1c-4.2,0-6.1-0.1-8.6-0.1c-0.4,0-0.4,0.4-0.4,0.6l-0.4,3.7c-0.1,0.3-0.2,1,0.3,1
				c1.3,0,0.4-3.6,3.6-3.6h2.3c1.2,0,1.5,0.1,1.5,1.5v12.8H156.8z"/>
			<path fill="#353C47" d="M168.9,89.8c0,5.7,3.8,9.4,9.5,9.4c9.1,0,10.8-6.8,10.8-10.8c0-5.9-4.3-9.5-9.8-9.5
				C172.8,79,168.9,83.6,168.9,89.8L168.9,89.8z M172.4,88.2c0-4.1,1.4-7.9,6.2-8c3.6-0.1,7.1,3.2,7.1,9.4c0,4.6-1.6,8.4-6.5,8.4
				C174.3,98.1,172.4,92.2,172.4,88.2L172.4,88.2z"/>
			<path fill="#353C47" d="M193.2,95.2c0,2.9-2.8,2.3-2.8,3.4c0,0.4,0.5,0.3,0.9,0.3c0.7,0,1.5-0.1,2.5-0.1s1.9,0.1,3.3,0.1
				c0.3,0,1.1,0,1.1-0.3c0-1.3-3.6,0.6-3.6-4.8v-9.5c0-0.2,0.1-0.4,0.2-0.4c0.1,0,0.3,0.1,0.5,0.3L209,98.8c0.2,0.2,0.3,0.4,0.7,0.4
				c0.3,0,0.3-0.2,0.3-0.9V82.7c0-2.9,2.5-2.2,2.5-3.1c0-0.1,0-0.3-0.5-0.3c-0.2,0-1.3,0.1-3,0.1c-1.9,0-2.8-0.1-3.2-0.1
				c-0.3,0-0.4,0.3-0.4,0.4c0,1,3.4,0.4,3.4,3V92c0,0.7-0.1,1.1-0.2,1.1c-0.2,0-0.5-0.3-0.9-0.7L196.2,80c-0.5-0.5-0.2-0.7-1.1-0.7
				c-1.5,0-2.2,0.1-3,0.1c-0.5,0-1.1-0.1-1.6-0.1c-0.3,0-0.5,0.2-0.5,0.4c0,1.4,3.2-0.4,3.2,4.9V95.2L193.2,95.2z"/>
		</g>
		<g>
			<path fill="#353C47" d="M14.7,134.9c-0.1-0.7-0.5-1.2-1.2-1.2c-0.9,0-1.2,0.5-1.2,1c0,0.4,0.3,0.7,1,1l0.7,0.3
				c1,0.3,1.5,0.9,1.5,1.6c0,1-0.9,1.6-2,1.6s-1.9-0.5-2-1.7h0.7c0.1,0.6,0.4,1.1,1.3,1.1c0.6,0,1.2-0.4,1.2-1c0-0.4-0.4-0.7-1-1
				l-0.9-0.3c-1-0.3-1.4-0.9-1.4-1.6c0-1.1,1-1.6,1.9-1.6c1.1,0,1.8,0.5,1.9,1.8C15.4,134.9,14.7,134.9,14.7,134.9z"/>
			<path fill="#353C47" d="M19.8,133.8h-1.6v-0.7h3.9v0.7h-1.6v5.2h-0.7V133.8z"/>
			<path fill="#353C47" d="M28.5,137.6h-3L25,139h-0.9l2.6-5.9h0.7L30,139h-0.9L28.5,137.6z M27,134.1l-1.2,2.9h2.3L27,134.1z"/>
			<path fill="#353C47" d="M33.3,133.8h-1.6v-0.7h3.9v0.7h-1.5v5.2h-0.7v-5.2H33.3z"/>
			<path fill="#353C47" d="M38.7,133.2H42v0.7h-2.5v1.8H42v0.7h-2.5v1.9H42v0.7h-3.3V133.2z"/>
			<path fill="#353C47" d="M49.7,133.2h0.7v3.5c0,1,0.5,1.7,1.7,1.7c1.1,0,1.7-0.7,1.7-1.7v-3.5h0.7v3.7c0,1.3-1.1,2.2-2.5,2.2
				c-1.4,0-2.5-1-2.5-2.2V133.2z"/>
			<path fill="#353C47" d="M62.3,133.2H63v5.9h-0.7l-3.4-4.6l0,0v4.6h-0.7v-5.9h0.7l3.4,4.6l0,0V133.2z"/>
			<path fill="#353C47" d="M66.5,133.2h0.7v5.9h-0.7V133.2z"/>
			<path fill="#353C47" d="M74.9,133.2h0.9l-2.3,5.9h-0.6l-2.3-5.9h0.9l1.8,4.7l0,0L74.9,133.2z"/>
			<path fill="#353C47" d="M78.7,133.2H82v0.7h-2.5v1.8H82v0.7h-2.5v1.9H82v0.7h-3.3V133.2z"/>
			<path fill="#353C47" d="M86.1,136.6v2.6h-0.7v-5.9h1.8c1.2,0,2.1,0.6,2.1,1.8c0,1.1-0.9,1.7-1.9,1.7l2.5,2.3h-1.2L86.1,136.6z
				 M86.1,136c0.1,0,0.2,0,0.7,0c1.2,0,1.6-0.5,1.6-1.2s-0.5-1.2-1.4-1.2h-1C86.1,133.7,86.1,136,86.1,136z"/>
			<path fill="#353C47" d="M95.8,134.9c-0.1-0.7-0.5-1.2-1.2-1.2c-0.9,0-1.2,0.5-1.2,1c0,0.4,0.3,0.7,1,1l0.7,0.3
				c1,0.3,1.5,0.9,1.5,1.6c0,1-0.9,1.6-2,1.6s-1.9-0.5-2-1.7h0.7c0.1,0.6,0.4,1.1,1.3,1.1c0.6,0,1.2-0.4,1.2-1c0-0.4-0.4-0.7-1-1
				l-0.9-0.3c-1-0.3-1.4-0.9-1.4-1.6c0-1.1,1-1.6,1.9-1.6c1.1,0,1.8,0.5,1.9,1.8C96.4,134.9,95.8,134.9,95.8,134.9z"/>
			<path fill="#353C47" d="M99.8,133.2h0.7v5.9h-0.7V133.2z"/>
			<path fill="#353C47" d="M105.1,133.8h-1.6v-0.7h3.9v0.7h-1.6v5.2h-0.7V133.8z"/>
			<path fill="#353C47" d="M114.2,133.2h1l-2.1,3.5v2.3h-0.7v-2.3l-2.1-3.5h1l1.6,2.8L114.2,133.2z"/>
			<path fill="#353C47" d="M125.6,133.1c2.1,0,3.3,1.6,3.3,3c0,1.5-1.2,3-3.3,3s-3.3-1.6-3.3-3C122.3,134.7,123.5,133.1,125.6,133.1
				z M125.6,138.4c1.3,0,2.5-1,2.5-2.3s-1.2-2.3-2.5-2.3c-1.3,0-2.5,1-2.5,2.3C123.2,137.5,124.3,138.4,125.6,138.4z"/>
			<path fill="#353C47" d="M132.3,133.2h3.3v0.7h-2.5v1.8h2.5v0.7h-2.5v2.7h-0.7v-6H132.3z"/>
			<path fill="#353C47" d="M147.4,133.2h0.7v5.9h-0.7l-3.4-4.6l0,0v4.6h-0.9v-5.9h0.7l3.4,4.6l0,0v-4.6H147.4z"/>
			<path fill="#353C47" d="M151.6,133.2h3.3v0.7h-2.5v1.8h2.5v0.7h-2.5v1.9h2.5v0.7h-3.3V133.2z"/>
			<path fill="#353C47" d="M165.1,133.2h0.9L164,139h-0.6l-1.5-4.7l0,0l-1.5,4.7h-0.6l-1.9-5.9h0.9l1.4,4.5l0,0l1.5-4.5h0.7l1.5,4.5
				l0,0L165.1,133.2z"/>
			<path fill="#353C47" d="M176.7,133.2h1l-2.1,3.5v2.3h-0.7v-2.3l-2.1-3.5h1l1.6,2.8L176.7,133.2z"/>
			<path fill="#353C47" d="M183.4,133.1c2.1,0,3.3,1.6,3.3,3c0,1.5-1.2,3-3.3,3c-2.1,0-3.3-1.6-3.3-3S181.3,133.1,183.4,133.1z
				 M183.4,138.4c1.3,0,2.5-1,2.5-2.3s-1.2-2.3-2.5-2.3s-2.5,1-2.5,2.3C181,137.5,182.1,138.4,183.4,138.4z"/>
			<path fill="#353C47" d="M190.9,136.6v2.6h-0.7v-5.9h1.8c1.2,0,2.1,0.6,2.1,1.8c0,1.1-0.9,1.7-1.9,1.7l2.5,2.3h-1.2L190.9,136.6z
				 M190.9,136c0.1,0,0.2,0,0.7,0c1.2,0,1.6-0.5,1.6-1.2s-0.5-1.2-1.4-1.2h-1V136z"/>
			<path fill="#353C47" d="M201,133.2h1.1l-2.9,2.9l2.9,3h-1.2l-2.6-2.7v2.7h-0.7v-5.9h0.7v2.7L201,133.2z"/>
		</g>
	</g>
	<line fill="none" stroke="#353C47" stroke-width="1.25" x1="230.1" y1="78" x2="230.1" y2="141.7"/>
	<g>
		<path fill="#353C47" d="M247,104.6v-1.9h1.9v1.9H247z M247,115.1v-8.7h1.8v8.7H247z"/>
		<path fill="#353C47" d="M256.8,115.1v-5.3c0-1.4-0.7-1.9-1.8-1.9c-1.1,0-1.8,0.6-1.8,1.9v5.3h-1.8v-8.7h1.7v0.9
			c0.6-0.6,1.5-1,2.3-1c0.9,0,1.6,0.3,2.1,0.7c0.6,0.6,0.9,1.5,0.9,2.5v5.7H256.8z"/>
		<path fill="#353C47" d="M266.5,115.1v-5.3c0-1.4-0.7-1.9-1.8-1.9s-1.8,0.6-1.8,1.9v5.3h-1.8v-8.7h1.7v0.9c0.6-0.6,1.5-1,2.3-1
			s1.6,0.3,2.1,0.7c0.6,0.6,0.9,1.5,0.9,2.5v5.7H266.5z"/>
		<path fill="#353C47" d="M276.6,114.2c-0.5,0.6-1.5,1.1-2.7,1.1c-1.2,0-2-0.4-2.7-1.1c-0.9-0.9-1.1-2-1.1-3.5s0.2-2.6,1.1-3.4
			c0.5-0.6,1.4-1.1,2.7-1.1c1.2,0,2,0.4,2.7,1.1c0.9,0.9,1.1,2,1.1,3.4C277.7,112.3,277.5,113.3,276.6,114.2z M275.3,108.3
			c-0.3-0.3-0.7-0.5-1.3-0.5s-1,0.2-1.3,0.5c-0.5,0.5-0.6,1.5-0.6,2.5c0,1,0.1,1.9,0.6,2.5c0.3,0.3,0.7,0.5,1.3,0.5s1-0.2,1.3-0.5
			c0.5-0.5,0.6-1.5,0.6-2.5C275.9,109.8,275.9,108.9,275.3,108.3z"/>
		<path fill="#353C47" d="M283.1,115.1h-1.5l-3.2-8.7h1.9l2.1,6.2l2-6.2h1.9L283.1,115.1z"/>
		<path fill="#353C47" d="M292.3,115.1v-0.7c-0.6,0.6-1.3,0.9-2.3,0.9s-1.8-0.2-2.3-0.7c-0.4-0.4-0.7-1.2-0.7-1.9
			c0-1.5,1.1-2.6,3-2.6h2.3v-0.6c0-1.1-0.5-1.6-1.9-1.6c-1,0-1.4,0.2-1.9,0.9l-1.2-1.1c0.9-1,1.7-1.3,3.2-1.3c2.5,0,3.6,1.1,3.6,3
			v5.9C294,115.1,292.3,115.1,292.3,115.1z M292.3,111.3h-2c-1.1,0-1.6,0.4-1.6,1.3c0,0.7,0.5,1.3,1.6,1.3c0.6,0,1.2,0,1.6-0.5
			c0.2-0.2,0.4-0.6,0.4-1.3V111.3z"/>
		<path fill="#353C47" d="M299.2,115.1c-1.6,0-2.5-1.2-2.5-2.5v-4.8h-1v-1.4h1v-2.7h1.8v2.7h1.7v1.4h-1.7v4.8c0,0.6,0.3,1.1,1,1.1
			h0.7v1.5h-1.1V115.1z"/>
		<path fill="#353C47" d="M302.3,104.6v-1.9h1.9v1.9H302.3z M302.3,115.1v-8.7h1.8v8.7H302.3z"/>
		<path fill="#353C47" d="M312.7,114.2c-0.5,0.6-1.5,1.1-2.7,1.1c-1.2,0-2-0.4-2.7-1.1c-0.9-0.9-1.1-2-1.1-3.5s0.2-2.6,1.1-3.4
			c0.5-0.6,1.4-1.1,2.7-1.1c1.3,0,2,0.4,2.7,1.1c0.9,0.9,1.1,2,1.1,3.4C313.6,112.3,313.4,113.3,312.7,114.2z M311.3,108.3
			c-0.3-0.3-0.7-0.5-1.3-0.5s-1,0.2-1.3,0.5c-0.5,0.5-0.6,1.5-0.6,2.5c0,1,0.1,1.9,0.6,2.5c0.3,0.3,0.7,0.5,1.3,0.5s1-0.2,1.3-0.5
			c0.5-0.5,0.6-1.5,0.6-2.5S311.8,108.9,311.3,108.3z"/>
		<path fill="#353C47" d="M321.2,115.1v-5.3c0-1.4-0.7-1.9-1.8-1.9c-1.1,0-1.8,0.6-1.8,1.9v5.3h-1.8v-8.7h1.7v0.9
			c0.6-0.6,1.5-1,2.3-1c0.9,0,1.6,0.3,2.1,0.7c0.6,0.6,0.9,1.5,0.9,2.5v5.7H321.2z"/>
		<path fill="#353C47" d="M336.5,111.9c0,0.1,0,0.3,0,0.4c0,0.1,0,0.2,0.1,0.3c0.1,0.1,0.1,0.1,0.2,0.1c0.3,0,0.5-0.1,0.9-0.3
			c0.3-0.2,0.5-0.4,0.7-0.7c0.2-0.3,0.4-0.7,0.5-1.2c0.1-0.4,0.2-1,0.2-1.5c0-0.9-0.1-1.5-0.4-2.1c-0.3-0.6-0.6-1.2-1.2-1.6
			c-0.5-0.4-1.1-0.7-1.7-1c-0.6-0.2-1.4-0.3-2.1-0.3c-0.9,0-1.6,0.1-2.3,0.4c-0.7,0.3-1.3,0.7-1.8,1.3c-0.5,0.5-0.9,1.2-1.2,1.9
			c-0.3,0.7-0.4,1.5-0.4,2.3c0,0.9,0.1,1.7,0.4,2.5s0.7,1.4,1.3,1.8c0.5,0.5,1.2,1,1.9,1.2c0.7,0.3,1.5,0.4,2.5,0.4
			c0.9,0,1.7-0.1,2.5-0.4c0.7-0.3,1.4-0.7,1.9-1.2h1.7c-0.6,1.1-1.6,1.8-2.7,2.5s-2.2,0.9-3.5,0.9c-1.1,0-2.1-0.2-3-0.5
			c-1-0.4-1.8-0.9-2.5-1.6c-0.6-0.7-1.3-1.5-1.7-2.5c-0.4-1-0.6-1.9-0.6-3c0-1.1,0.2-2,0.6-3c0.4-1,1-1.7,1.7-2.5
			c0.7-0.6,1.5-1.2,2.5-1.6c1-0.4,1.9-0.6,3-0.6c1,0,1.8,0.1,2.7,0.4c0.9,0.3,1.6,0.7,2.2,1.3c0.6,0.5,1.2,1.2,1.6,1.9
			c0.4,0.7,0.6,1.6,0.6,2.6c0,1.1-0.2,1.9-0.5,2.7c-0.3,0.7-0.9,1.4-1.4,1.8c-0.5,0.4-1.1,0.9-1.6,1.1s-1,0.3-1.3,0.3
			c-0.4,0-0.7-0.1-1.1-0.3c-0.2-0.2-0.4-0.5-0.4-0.9l0,0c-0.2,0.4-0.5,0.7-1,0.9c-0.4,0.2-0.9,0.3-1.3,0.3s-0.9-0.1-1.2-0.3
			c-0.4-0.2-0.7-0.4-1.1-0.7c-0.3-0.3-0.5-0.6-0.6-1.1c-0.2-0.4-0.2-0.9-0.2-1.4c0-0.6,0.1-1.3,0.3-1.9c0.2-0.6,0.5-1.2,0.9-1.7
			c0.4-0.5,0.9-0.9,1.4-1.2s1.2-0.4,1.8-0.4c0.4,0,0.9,0.1,1.4,0.3c0.4,0.2,0.9,0.5,1.1,1.1l0.3-1.1h1.7l-1.3,5.2
			C336.5,111.6,336.5,111.7,336.5,111.9z M331.5,112.2c0.3,0.3,0.6,0.5,1.2,0.5c0.3,0,0.7-0.1,1-0.3c0.3-0.2,0.5-0.4,0.7-0.7
			c0.2-0.3,0.4-0.6,0.5-1c0.1-0.3,0.2-0.7,0.2-1.1c0-0.5-0.1-1-0.4-1.3c-0.3-0.3-0.6-0.5-1.1-0.5c-0.3,0-0.7,0.1-1.1,0.3
			c-0.3,0.2-0.5,0.4-0.9,0.7c-0.2,0.3-0.4,0.6-0.5,1s-0.2,0.7-0.2,1.1C331.1,111.4,331.2,111.8,331.5,112.2z"/>
		<path fill="#353C47" d="M349.7,114.5c-0.5,0.5-1.3,0.7-2.1,0.7c-1,0-1.7-0.2-2.3-1.1v1h-1.8v-12.4h1.8v4.5c0.6-0.7,1.4-1,2.3-1
			c0.9,0,1.6,0.3,2.1,0.7c0.9,0.9,1,2.3,1,3.7S350.5,113.7,349.7,114.5z M347,107.9c-1.6,0-1.8,1.4-1.8,2.9c0,1.6,0.2,2.9,1.8,2.9
			c1.6,0,1.8-1.4,1.8-2.9C348.8,109.2,348.6,107.9,347,107.9z"/>
		<path fill="#353C47" d="M352.8,104.6v-1.9h1.9v1.9H352.8z M352.9,115.1v-8.7h1.8v8.7H352.9z"/>
		<path fill="#353C47" d="M362.6,115.1v-5.3c0-1.4-0.7-1.9-1.8-1.9c-1.1,0-1.8,0.6-1.8,1.9v5.3h-1.7v-8.7h1.7v0.9
			c0.6-0.6,1.5-1,2.3-1c0.9,0,1.6,0.3,2.1,0.7c0.6,0.6,0.9,1.5,0.9,2.5v5.7H362.6z"/>
		<path fill="#353C47" d="M369.9,118.8c-1.4,0-2.1-0.3-3.1-1.2l1.2-1.2c0.5,0.5,1.1,0.7,1.9,0.7c1.5,0,2-1.1,2-2.2v-1.2
			c-0.6,0.7-1.4,1-2.2,1c-0.9,0-1.6-0.3-2.1-0.7c-0.9-0.9-1-2.1-1-3.6s0.1-2.8,1-3.6c0.5-0.5,1.3-0.7,2.1-0.7c1,0,1.6,0.2,2.3,1.1
			v-1h1.7v8.7C373.7,117.3,372.2,118.8,369.9,118.8z M370,107.9c-1.6,0-1.8,1.4-1.8,2.8c0,1.4,0.2,2.8,1.8,2.8s1.8-1.4,1.8-2.8
			C371.9,109.3,371.6,107.9,370,107.9z"/>
		<path fill="#353C47" d="M381.6,115.1v-5.4c0-1.4-0.7-1.9-1.8-1.9c-1,0-1.8,0.6-1.8,1.9v5.4h-1.8v-12.4h1.8v4.5
			c0.6-0.6,1.4-1,2.2-1c1.9,0,3.1,1.3,3.1,3.2v5.7H381.6z"/>
		<path fill="#353C47" d="M390.6,115.1v-0.7c-0.6,0.6-1.3,0.9-2.3,0.9s-1.8-0.2-2.3-0.7c-0.4-0.4-0.7-1.2-0.7-1.9
			c0-1.5,1.1-2.6,3-2.6h2.3v-0.6c0-1.1-0.5-1.6-1.9-1.6c-1,0-1.4,0.2-1.9,0.9l-1.2-1.1c0.9-1,1.7-1.3,3.2-1.3c2.5,0,3.6,1.1,3.6,3
			v5.9C392.3,115.1,390.6,115.1,390.6,115.1z M390.6,111.3h-2c-1.1,0-1.6,0.4-1.6,1.3c0,0.7,0.5,1.3,1.6,1.3c0.6,0,1.2,0,1.6-0.5
			c0.2-0.2,0.4-0.6,0.4-1.3V111.3z"/>
		<path fill="#353C47" d="M405.7,115.1v-5.3c0-1.4-0.7-1.9-1.8-1.9c-1,0-1.8,0.6-1.8,1.9v5.4h-1.8v-5.3c0-1.4-0.7-1.9-1.8-1.9
			s-1.7,0.4-1.7,1.8v5.3h-1.8v-8.7h1.7v0.9c0.6-0.6,1.5-1,2.3-1c1.1,0,1.9,0.4,2.5,1.3c0.7-0.9,1.6-1.3,2.8-1.3
			c0.9,0,1.7,0.3,2.2,0.7c0.6,0.6,1,1.5,1,2.5v5.7H405.7z"/>
		<path fill="#353C47" d="M412.6,115.1c-1.6,0-2.5-1.2-2.5-2.5v-4.8h-1v-1.4h1v-2.7h1.8v2.7h1.7v1.4H412v4.8c0,0.6,0.3,1.1,1,1.1
			h0.7v1.5h-1.1V115.1z"/>
		<path fill="#353C47" d="M421.5,114.2c-0.5,0.6-1.5,1.1-2.7,1.1c-1.2,0-2-0.4-2.7-1.1c-0.9-0.9-1.1-2-1.1-3.5s0.2-2.6,1.1-3.4
			c0.5-0.6,1.4-1.1,2.7-1.1c1.3,0,2,0.4,2.7,1.1c0.9,0.9,1.1,2,1.1,3.4C422.6,112.3,422.4,113.3,421.5,114.2z M420.3,108.3
			c-0.3-0.3-0.7-0.5-1.3-0.5s-1,0.2-1.3,0.5c-0.5,0.5-0.6,1.5-0.6,2.5c0,1,0.1,1.9,0.6,2.5c0.3,0.3,0.7,0.5,1.3,0.5s1-0.2,1.3-0.5
			c0.5-0.5,0.6-1.5,0.6-2.5C420.8,109.8,420.8,108.9,420.3,108.3z"/>
		<path fill="#353C47" d="M430.2,115.1v-5.3c0-1.4-0.7-1.9-1.8-1.9s-1.8,0.5-1.8,1.9v5.3h-1.8v-8.7h1.7v0.9c0.6-0.6,1.5-1,2.3-1
			s1.6,0.3,2.1,0.7c0.6,0.6,0.9,1.5,0.9,2.5v5.7H430.2z"/>
	</g>
</g>
</svg>
