<?xml version="1.0" encoding="utf-8"?>
<!-- Generator: Adobe Illustrator 18.1.1, SVG Export Plug-In . SVG Version: 6.00 Build 0)  -->
<!DOCTYPE svg PUBLIC "-//W3C//DTD SVG 1.1//EN" "http://www.w3.org/Graphics/SVG/1.1/DTD/svg11.dtd">
<svg version="1.1" id="Layer_1" xmlns="http://www.w3.org/2000/svg" xmlns:xlink="http://www.w3.org/1999/xlink" x="0px" y="0px"
	 viewBox="0 0 326.8 48" enable-background="new 0 0 326.8 48" xml:space="preserve">
<g>
	<g>
		<path fill="#353C47" d="M171.3,12.7v3.1h3.7v0.8h-3.7v3.8h-0.9v-8.5h5.3v0.8H171.3z"/>
		<path fill="#353C47" d="M178.5,20.4c-0.5,0-0.9-0.2-1.1-0.5s-0.4-0.7-0.4-1.1v-7h0.9v6.9c0,0.3,0.1,0.5,0.2,0.6s0.3,0.2,0.6,0.2
			h0.5v0.7H178.5z"/>
		<path fill="#353C47" d="M180.7,17.7c0,0.6,0.1,1.1,0.4,1.5c0.3,0.4,0.7,0.5,1.3,0.5c0.3,0,0.6-0.1,0.9-0.2
			c0.2-0.1,0.5-0.3,0.7-0.5l0.6,0.5c-0.2,0.2-0.3,0.3-0.5,0.4c-0.1,0.1-0.3,0.2-0.5,0.3c-0.2,0.1-0.4,0.1-0.6,0.2
			c-0.2,0-0.4,0.1-0.7,0.1c-0.4,0-0.7-0.1-1.1-0.2c-0.3-0.1-0.6-0.3-0.8-0.6s-0.4-0.6-0.5-0.9s-0.2-0.8-0.2-1.4c0-1,0.2-1.7,0.6-2.2
			c0.4-0.5,1-0.8,1.8-0.8c0.8,0,1.4,0.3,1.8,0.8s0.6,1.2,0.6,2.1v0.4H180.7z M183.8,16.7c0-0.1,0-0.2,0-0.2c0-0.1,0-0.1,0-0.2
			c0-0.1,0-0.1-0.1-0.2c-0.1-0.3-0.3-0.5-0.5-0.6s-0.5-0.2-0.8-0.2c-0.3,0-0.6,0.1-0.8,0.2s-0.4,0.4-0.5,0.6
			c-0.1,0.2-0.1,0.3-0.1,0.4s0,0.3,0,0.6h3.1C183.8,16.9,183.8,16.8,183.8,16.7z"/>
		<path fill="#353C47" d="M186.4,12.8v-1h1v1H186.4z M186.4,20.4v-5.9h0.9v5.9H186.4z"/>
		<path fill="#353C47" d="M193.4,19.5c-0.1,0.2-0.3,0.4-0.5,0.6c-0.2,0.2-0.5,0.3-0.8,0.4s-0.6,0.1-1,0.1c-0.5,0-1-0.1-1.3-0.2
			c-0.4-0.1-0.8-0.3-1.1-0.7l0.6-0.6c0.2,0.2,0.5,0.4,0.8,0.5c0.3,0.1,0.7,0.2,1,0.2c0.5,0,0.9-0.1,1.2-0.3s0.4-0.4,0.4-0.8
			c0-0.3-0.1-0.5-0.2-0.6c-0.2-0.1-0.4-0.2-0.8-0.3l-1-0.1c-0.6,0-1-0.2-1.3-0.5c-0.3-0.3-0.5-0.6-0.5-1.1c0-0.3,0.1-0.5,0.2-0.7
			c0.1-0.2,0.3-0.4,0.4-0.5c0.2-0.1,0.4-0.3,0.7-0.3c0.3-0.1,0.6-0.1,0.9-0.1c0.4,0,0.8,0.1,1.2,0.2c0.4,0.1,0.7,0.3,0.9,0.5
			l-0.6,0.6c-0.2-0.2-0.4-0.3-0.7-0.4c-0.3-0.1-0.6-0.1-0.9-0.1c-0.4,0-0.8,0.1-1,0.3c-0.2,0.2-0.3,0.4-0.3,0.7
			c0,0.3,0.1,0.5,0.2,0.6c0.2,0.1,0.4,0.2,0.8,0.3l0.9,0.1c0.3,0,0.5,0.1,0.7,0.1c0.2,0.1,0.4,0.2,0.6,0.3c0.2,0.1,0.3,0.3,0.4,0.5
			c0.1,0.2,0.1,0.4,0.1,0.7C193.6,19,193.5,19.2,193.4,19.5z"/>
		<path fill="#353C47" d="M198.9,20.4v-3.6c0-0.5-0.1-0.9-0.4-1.2c-0.3-0.3-0.6-0.4-1.1-0.4s-0.8,0.1-1.1,0.4
			c-0.3,0.3-0.4,0.7-0.4,1.2v3.6h-0.9v-8.5h0.9v3.3c0.4-0.5,1-0.7,1.7-0.7c0.7,0,1.2,0.2,1.6,0.6c0.4,0.4,0.6,0.9,0.6,1.6v3.8H198.9
			z"/>
		<path fill="#353C47" d="M209.4,20.4v-3.6c0-0.5-0.1-0.9-0.4-1.2c-0.3-0.3-0.6-0.4-1.1-0.4c-0.4,0-0.8,0.1-1.1,0.4
			c-0.3,0.3-0.4,0.6-0.4,1.1v3.7h-0.9v-3.6c0-0.5-0.1-0.9-0.4-1.2c-0.3-0.3-0.6-0.4-1.1-0.4s-0.8,0.1-1.1,0.4
			c-0.3,0.3-0.4,0.7-0.4,1.2v3.6h-0.9v-5.9h0.9v0.6c0.2-0.2,0.5-0.4,0.7-0.5s0.6-0.2,0.9-0.2c0.4,0,0.8,0.1,1.1,0.2
			c0.3,0.2,0.6,0.4,0.7,0.7c0.5-0.7,1.1-1,1.9-1c0.3,0,0.6,0,0.9,0.1c0.3,0.1,0.5,0.2,0.7,0.4c0.4,0.4,0.6,1,0.6,1.6v3.8H209.4z"/>
		<path fill="#353C47" d="M215.6,20.4v-0.6c-0.2,0.2-0.5,0.4-0.7,0.5s-0.6,0.1-1,0.1c-0.4,0-0.7,0-1-0.1s-0.5-0.2-0.7-0.4
			c-0.1-0.1-0.3-0.3-0.3-0.5s-0.1-0.4-0.1-0.7c0-0.5,0.2-0.9,0.5-1.2c0.3-0.3,0.9-0.5,1.5-0.5h1.8v-0.6c0-0.4-0.1-0.8-0.3-1
			c-0.2-0.2-0.6-0.3-1.2-0.3c-0.4,0-0.7,0.1-0.9,0.2c-0.2,0.1-0.4,0.3-0.6,0.5l-0.6-0.5c0.3-0.3,0.6-0.6,0.9-0.7
			c0.3-0.1,0.7-0.2,1.2-0.2c0.8,0,1.4,0.2,1.8,0.5s0.6,0.8,0.6,1.5v4H215.6z M215.6,17.7h-1.7c-0.9,0-1.3,0.3-1.3,1
			c0,0.3,0.1,0.6,0.3,0.8c0.2,0.2,0.6,0.2,1,0.2c0.3,0,0.5,0,0.7-0.1c0.2,0,0.4-0.2,0.6-0.3c0.2-0.2,0.3-0.5,0.3-1V17.7z"/>
		<path fill="#353C47" d="M222.2,20.4v-3.6c0-0.5-0.1-0.9-0.4-1.2c-0.3-0.3-0.6-0.4-1.1-0.4c-0.4,0-0.8,0.1-1.1,0.4
			c-0.3,0.3-0.4,0.7-0.4,1.2v3.6h-0.9v-5.9h0.9v0.6c0.2-0.2,0.5-0.4,0.7-0.5s0.6-0.2,0.9-0.2c0.6,0,1.1,0.2,1.5,0.6
			c0.4,0.4,0.6,0.9,0.6,1.6v3.8H222.2z"/>
		<path fill="#353C47" d="M233.3,19c-0.2,0.3-0.4,0.6-0.6,0.8c-0.3,0.2-0.6,0.4-0.9,0.5c-0.3,0.1-0.7,0.2-1.1,0.2
			c-0.4,0-0.8-0.1-1.2-0.2c-0.4-0.2-0.7-0.4-1-0.7c-0.2-0.2-0.4-0.4-0.5-0.6c-0.1-0.2-0.2-0.5-0.2-0.7c-0.1-0.3-0.1-0.6-0.1-0.9
			s0-0.7,0-1.2c0-0.5,0-0.9,0-1.2s0-0.6,0.1-0.9c0.1-0.3,0.1-0.5,0.2-0.7c0.1-0.2,0.3-0.4,0.5-0.6c0.3-0.3,0.6-0.5,1-0.7
			c0.4-0.2,0.8-0.2,1.2-0.2c0.4,0,0.7,0.1,1.1,0.2c0.3,0.1,0.6,0.3,0.9,0.5c0.3,0.2,0.5,0.5,0.6,0.8c0.2,0.3,0.3,0.7,0.4,1.1h-0.9
			c-0.1-0.5-0.3-0.9-0.7-1.3c-0.4-0.3-0.8-0.5-1.3-0.5c-0.3,0-0.6,0.1-0.8,0.2c-0.3,0.1-0.5,0.3-0.7,0.4c-0.1,0.1-0.2,0.3-0.3,0.4
			c-0.1,0.2-0.1,0.3-0.2,0.6c0,0.2-0.1,0.5-0.1,0.8c0,0.3,0,0.7,0,1.1c0,0.4,0,0.8,0,1.1c0,0.3,0,0.6,0.1,0.8c0,0.2,0.1,0.4,0.2,0.6
			s0.2,0.3,0.3,0.4c0.2,0.2,0.4,0.3,0.7,0.4c0.3,0.1,0.5,0.2,0.8,0.2c0.5,0,1-0.2,1.3-0.5c0.4-0.3,0.6-0.7,0.7-1.3h0.9
			C233.6,18.3,233.5,18.7,233.3,19z"/>
		<path fill="#353C47" d="M236,17.7c0,0.6,0.1,1.1,0.4,1.5c0.3,0.4,0.7,0.5,1.3,0.5c0.3,0,0.6-0.1,0.9-0.2c0.2-0.1,0.5-0.3,0.7-0.5
			l0.6,0.5c-0.2,0.2-0.3,0.3-0.5,0.4c-0.1,0.1-0.3,0.2-0.5,0.3c-0.2,0.1-0.4,0.1-0.6,0.2c-0.2,0-0.4,0.1-0.7,0.1
			c-0.4,0-0.7-0.1-1.1-0.2c-0.3-0.1-0.6-0.3-0.8-0.6s-0.4-0.6-0.5-0.9s-0.2-0.8-0.2-1.4c0-1,0.2-1.7,0.6-2.2c0.4-0.5,1-0.8,1.8-0.8
			c0.8,0,1.4,0.3,1.8,0.8s0.6,1.2,0.6,2.1v0.4H236z M239.1,16.7c0-0.1,0-0.2,0-0.2c0-0.1,0-0.1,0-0.2c0-0.1,0-0.1-0.1-0.2
			c-0.1-0.3-0.3-0.5-0.5-0.6s-0.5-0.2-0.8-0.2c-0.3,0-0.6,0.1-0.8,0.2s-0.4,0.4-0.5,0.6c-0.1,0.2-0.1,0.3-0.1,0.4s0,0.3,0,0.6h3.1
			C239.1,16.9,239.1,16.8,239.1,16.7z"/>
		<path fill="#353C47" d="M245.4,20.4v-3.6c0-0.5-0.1-0.9-0.4-1.2c-0.3-0.3-0.6-0.4-1.1-0.4c-0.4,0-0.8,0.1-1.1,0.4
			c-0.3,0.3-0.4,0.7-0.4,1.2v3.6h-0.9v-5.9h0.9v0.6c0.2-0.2,0.5-0.4,0.7-0.5s0.6-0.2,0.9-0.2c0.6,0,1.1,0.2,1.5,0.6
			c0.4,0.4,0.6,0.9,0.6,1.6v3.8H245.4z"/>
		<path fill="#353C47" d="M249.9,20.4c-0.3,0-0.5,0-0.7-0.1c-0.2-0.1-0.3-0.2-0.5-0.3c-0.1-0.1-0.2-0.3-0.3-0.5
			c-0.1-0.2-0.1-0.4-0.1-0.6v-3.6h-0.7v-0.7h0.7v-1.8h0.9v1.8h1.3v0.7h-1.3v3.6c0,0.3,0.1,0.5,0.2,0.6c0.1,0.2,0.3,0.2,0.6,0.2h0.5
			v0.7H249.9z"/>
		<path fill="#353C47" d="M252.6,17.7c0,0.6,0.1,1.1,0.4,1.5c0.3,0.4,0.7,0.5,1.3,0.5c0.3,0,0.6-0.1,0.9-0.2
			c0.2-0.1,0.5-0.3,0.7-0.5l0.6,0.5c-0.2,0.2-0.3,0.3-0.5,0.4c-0.1,0.1-0.3,0.2-0.5,0.3c-0.2,0.1-0.4,0.1-0.6,0.2
			c-0.2,0-0.4,0.1-0.7,0.1c-0.4,0-0.7-0.1-1.1-0.2c-0.3-0.1-0.6-0.3-0.8-0.6s-0.4-0.6-0.5-0.9s-0.2-0.8-0.2-1.4c0-1,0.2-1.7,0.6-2.2
			c0.4-0.5,1-0.8,1.8-0.8c0.8,0,1.4,0.3,1.8,0.8c0.4,0.5,0.6,1.2,0.6,2.1v0.4H252.6z M255.7,16.7c0-0.1,0-0.2,0-0.2
			c0-0.1,0-0.1,0-0.2c0-0.1,0-0.1-0.1-0.2c-0.1-0.3-0.3-0.5-0.5-0.6s-0.5-0.2-0.8-0.2c-0.3,0-0.6,0.1-0.8,0.2s-0.4,0.4-0.5,0.6
			c-0.1,0.2-0.1,0.3-0.1,0.4s0,0.3,0,0.6h3.1C255.7,16.9,255.7,16.8,255.7,16.7z"/>
		<path fill="#353C47" d="M261.6,15.6c-0.2-0.2-0.3-0.3-0.5-0.3c-0.1-0.1-0.3-0.1-0.6-0.1c-0.2,0-0.4,0-0.6,0.1
			c-0.2,0.1-0.3,0.2-0.4,0.3c-0.1,0.1-0.2,0.3-0.3,0.5c-0.1,0.2-0.1,0.4-0.1,0.6v3.6h-0.9v-5.9h0.9v0.7c0.2-0.2,0.4-0.4,0.7-0.6
			c0.3-0.1,0.6-0.2,1-0.2c0.3,0,0.5,0,0.8,0.1c0.2,0.1,0.4,0.2,0.7,0.4L261.6,15.6z"/>
		<path fill="#353C47" d="M267.1,15.2v5.2h-0.9v-5.2h-0.8v-0.7h0.8v-1.1c0-0.2,0-0.4,0.1-0.6c0.1-0.2,0.2-0.4,0.3-0.5
			c0.1-0.1,0.3-0.3,0.5-0.3c0.2-0.1,0.4-0.1,0.7-0.1h0.6v0.7h-0.5c-0.3,0-0.5,0.1-0.6,0.2c-0.1,0.2-0.2,0.4-0.2,0.6v1.1h1.3v0.7
			H267.1z"/>
		<path fill="#353C47" d="M273.9,18.8c-0.1,0.4-0.3,0.8-0.6,1.1c-0.2,0.2-0.5,0.4-0.7,0.5c-0.3,0.1-0.6,0.2-1,0.2
			c-0.4,0-0.7-0.1-1-0.2c-0.3-0.1-0.5-0.3-0.7-0.5c-0.2-0.2-0.3-0.3-0.4-0.5c-0.1-0.2-0.2-0.4-0.2-0.6c-0.1-0.2-0.1-0.4-0.1-0.6
			c0-0.2,0-0.4,0-0.7c0-0.2,0-0.4,0-0.7c0-0.2,0.1-0.4,0.1-0.6c0.1-0.2,0.1-0.4,0.2-0.6c0.1-0.2,0.2-0.3,0.4-0.5
			c0.2-0.2,0.5-0.4,0.7-0.5s0.6-0.2,1-0.2c0.4,0,0.7,0.1,1,0.2c0.3,0.1,0.5,0.3,0.7,0.5c0.3,0.3,0.5,0.7,0.6,1.1
			c0.1,0.4,0.1,0.8,0.1,1.3S274,18.4,273.9,18.8z M273.1,17c0-0.2,0-0.3-0.1-0.5c0-0.2-0.1-0.3-0.1-0.5c-0.1-0.1-0.1-0.3-0.3-0.4
			c-0.3-0.3-0.6-0.4-1.1-0.4c-0.4,0-0.8,0.1-1.1,0.4c-0.1,0.1-0.2,0.2-0.3,0.4c-0.1,0.1-0.1,0.3-0.1,0.5s-0.1,0.3-0.1,0.5
			c0,0.2,0,0.3,0,0.5s0,0.3,0,0.5c0,0.2,0,0.3,0.1,0.5s0.1,0.3,0.1,0.5c0.1,0.1,0.1,0.3,0.3,0.4c0.3,0.3,0.6,0.4,1.1,0.4
			c0.4,0,0.8-0.1,1.1-0.4c0.1-0.1,0.2-0.2,0.3-0.4c0.1-0.1,0.1-0.3,0.1-0.5c0-0.2,0.1-0.3,0.1-0.5s0-0.3,0-0.5S273.1,17.1,273.1,17z
			"/>
		<path fill="#353C47" d="M279,15.6c-0.2-0.2-0.3-0.3-0.5-0.3c-0.1-0.1-0.3-0.1-0.6-0.1c-0.2,0-0.4,0-0.6,0.1
			c-0.2,0.1-0.3,0.2-0.4,0.3c-0.1,0.1-0.2,0.3-0.3,0.5c-0.1,0.2-0.1,0.4-0.1,0.6v3.6h-0.9v-5.9h0.9v0.7c0.2-0.2,0.4-0.4,0.7-0.6
			c0.3-0.1,0.6-0.2,1-0.2c0.3,0,0.5,0,0.8,0.1c0.2,0.1,0.4,0.2,0.7,0.4L279,15.6z"/>
		<path fill="#353C47" d="M289,19c-0.2,0.3-0.4,0.6-0.6,0.8c-0.3,0.2-0.6,0.4-0.9,0.5c-0.3,0.1-0.7,0.2-1.1,0.2
			c-0.4,0-0.8-0.1-1.2-0.2c-0.4-0.2-0.7-0.4-1-0.7c-0.2-0.2-0.4-0.4-0.5-0.6c-0.1-0.2-0.2-0.5-0.2-0.7c-0.1-0.3-0.1-0.6-0.1-0.9
			s0-0.7,0-1.2c0-0.5,0-0.9,0-1.2s0-0.6,0.1-0.9c0.1-0.3,0.1-0.5,0.2-0.7c0.1-0.2,0.3-0.4,0.5-0.6c0.3-0.3,0.6-0.5,1-0.7
			c0.4-0.2,0.8-0.2,1.2-0.2c0.4,0,0.7,0.1,1.1,0.2c0.3,0.1,0.6,0.3,0.9,0.5c0.3,0.2,0.5,0.5,0.6,0.8c0.2,0.3,0.3,0.7,0.4,1.1h-0.9
			c-0.1-0.5-0.3-0.9-0.7-1.3c-0.4-0.3-0.8-0.5-1.3-0.5c-0.3,0-0.6,0.1-0.8,0.2c-0.3,0.1-0.5,0.3-0.7,0.4c-0.1,0.1-0.2,0.3-0.3,0.4
			c-0.1,0.2-0.1,0.3-0.2,0.6c0,0.2-0.1,0.5-0.1,0.8c0,0.3,0,0.7,0,1.1c0,0.4,0,0.8,0,1.1c0,0.3,0,0.6,0.1,0.8c0,0.2,0.1,0.4,0.2,0.6
			s0.2,0.3,0.3,0.4c0.2,0.2,0.4,0.3,0.7,0.4c0.3,0.1,0.5,0.2,0.8,0.2c0.5,0,1-0.2,1.3-0.5c0.4-0.3,0.6-0.7,0.7-1.3h0.9
			C289.3,18.3,289.1,18.7,289,19z"/>
		<path fill="#353C47" d="M294.4,20.4v-0.6c-0.2,0.2-0.5,0.4-0.7,0.5s-0.6,0.1-1,0.1c-0.4,0-0.7,0-1-0.1s-0.5-0.2-0.7-0.4
			c-0.1-0.1-0.3-0.3-0.3-0.5s-0.1-0.4-0.1-0.7c0-0.5,0.2-0.9,0.5-1.2c0.3-0.3,0.9-0.5,1.5-0.5h1.8v-0.6c0-0.4-0.1-0.8-0.3-1
			c-0.2-0.2-0.6-0.3-1.2-0.3c-0.4,0-0.7,0.1-0.9,0.2c-0.2,0.1-0.4,0.3-0.6,0.5l-0.6-0.5c0.3-0.3,0.6-0.6,0.9-0.7
			c0.3-0.1,0.7-0.2,1.2-0.2c0.8,0,1.4,0.2,1.8,0.5s0.6,0.8,0.6,1.5v4H294.4z M294.4,17.7h-1.7c-0.9,0-1.3,0.3-1.3,1
			c0,0.3,0.1,0.6,0.3,0.8c0.2,0.2,0.6,0.2,1,0.2c0.3,0,0.5,0,0.7-0.1c0.2,0,0.4-0.2,0.6-0.3c0.2-0.2,0.3-0.5,0.3-1V17.7z"/>
		<path fill="#353C47" d="M300.6,15.6c-0.2-0.2-0.3-0.3-0.5-0.3c-0.1-0.1-0.3-0.1-0.6-0.1c-0.2,0-0.4,0-0.6,0.1
			c-0.2,0.1-0.3,0.2-0.4,0.3c-0.1,0.1-0.2,0.3-0.3,0.5c-0.1,0.2-0.1,0.4-0.1,0.6v3.6h-0.9v-5.9h0.9v0.7c0.2-0.2,0.4-0.4,0.7-0.6
			c0.3-0.1,0.6-0.2,1-0.2c0.3,0,0.5,0,0.8,0.1c0.2,0.1,0.4,0.2,0.7,0.4L300.6,15.6z"/>
		<path fill="#353C47" d="M302.3,17.7c0,0.6,0.1,1.1,0.4,1.5c0.3,0.4,0.7,0.5,1.3,0.5c0.3,0,0.6-0.1,0.9-0.2
			c0.2-0.1,0.5-0.3,0.7-0.5l0.6,0.5c-0.2,0.2-0.3,0.3-0.5,0.4c-0.1,0.1-0.3,0.2-0.5,0.3c-0.2,0.1-0.4,0.1-0.6,0.2
			c-0.2,0-0.4,0.1-0.7,0.1c-0.4,0-0.7-0.1-1.1-0.2c-0.3-0.1-0.6-0.3-0.8-0.6s-0.4-0.6-0.5-0.9s-0.2-0.8-0.2-1.4c0-1,0.2-1.7,0.6-2.2
			c0.4-0.5,1-0.8,1.8-0.8c0.8,0,1.4,0.3,1.8,0.8s0.6,1.2,0.6,2.1v0.4H302.3z M305.4,16.7c0-0.1,0-0.2,0-0.2c0-0.1,0-0.1,0-0.2
			c0-0.1,0-0.1-0.1-0.2c-0.1-0.3-0.3-0.5-0.5-0.6s-0.5-0.2-0.8-0.2c-0.3,0-0.6,0.1-0.8,0.2s-0.4,0.4-0.5,0.6
			c-0.1,0.2-0.1,0.3-0.1,0.4s0,0.3,0,0.6h3.1C305.4,16.9,305.4,16.8,305.4,16.7z"/>
		<path fill="#353C47" d="M308.6,17.7c0,0.6,0.1,1.1,0.4,1.5c0.3,0.4,0.7,0.5,1.3,0.5c0.3,0,0.6-0.1,0.9-0.2
			c0.2-0.1,0.5-0.3,0.7-0.5l0.6,0.5c-0.2,0.2-0.3,0.3-0.5,0.4c-0.1,0.1-0.3,0.2-0.5,0.3c-0.2,0.1-0.4,0.1-0.6,0.2
			c-0.2,0-0.4,0.1-0.7,0.1c-0.4,0-0.7-0.1-1.1-0.2c-0.3-0.1-0.6-0.3-0.8-0.6s-0.4-0.6-0.5-0.9s-0.2-0.8-0.2-1.4c0-1,0.2-1.7,0.6-2.2
			c0.4-0.5,1-0.8,1.8-0.8c0.8,0,1.4,0.3,1.8,0.8s0.6,1.2,0.6,2.1v0.4H308.6z M311.7,16.7c0-0.1,0-0.2,0-0.2c0-0.1,0-0.1,0-0.2
			c0-0.1,0-0.1-0.1-0.2c-0.1-0.3-0.3-0.5-0.5-0.6s-0.5-0.2-0.8-0.2c-0.3,0-0.6,0.1-0.8,0.2s-0.4,0.4-0.5,0.6
			c-0.1,0.2-0.1,0.3-0.1,0.4s0,0.3,0,0.6h3.1C311.7,16.9,311.7,16.8,311.7,16.7z"/>
		<path fill="#353C47" d="M317.6,15.6c-0.2-0.2-0.3-0.3-0.5-0.3c-0.1-0.1-0.3-0.1-0.6-0.1c-0.2,0-0.4,0-0.6,0.1
			c-0.2,0.1-0.3,0.2-0.4,0.3c-0.1,0.1-0.2,0.3-0.3,0.5c-0.1,0.2-0.1,0.4-0.1,0.6v3.6h-0.9v-5.9h0.9v0.7c0.2-0.2,0.4-0.4,0.7-0.6
			c0.3-0.1,0.6-0.2,1-0.2c0.3,0,0.5,0,0.8,0.1c0.2,0.1,0.4,0.2,0.7,0.4L317.6,15.6z"/>
		<path fill="#353C47" d="M173.5,36.3v-0.6c-0.2,0.2-0.5,0.4-0.7,0.5s-0.6,0.1-1,0.1c-0.4,0-0.7,0-1-0.1s-0.5-0.2-0.7-0.4
			c-0.1-0.1-0.3-0.3-0.3-0.5s-0.1-0.4-0.1-0.7c0-0.5,0.2-0.9,0.5-1.2c0.3-0.3,0.9-0.5,1.5-0.5h1.8v-0.6c0-0.4-0.1-0.8-0.3-1
			c-0.2-0.2-0.6-0.3-1.2-0.3c-0.4,0-0.7,0.1-0.9,0.2c-0.2,0.1-0.4,0.3-0.6,0.5l-0.6-0.5c0.3-0.3,0.6-0.6,0.9-0.7
			c0.3-0.1,0.7-0.2,1.2-0.2c0.8,0,1.4,0.2,1.8,0.5s0.6,0.8,0.6,1.5v4H173.5z M173.5,33.6h-1.7c-0.9,0-1.3,0.3-1.3,1
			c0,0.3,0.1,0.6,0.3,0.8c0.2,0.2,0.6,0.2,1,0.2c0.3,0,0.5,0,0.7-0.1c0.2,0,0.4-0.2,0.6-0.3c0.2-0.2,0.3-0.5,0.3-1V33.6z"/>
		<path fill="#353C47" d="M180.2,36.3v-3.6c0-0.5-0.1-0.9-0.4-1.2c-0.3-0.3-0.6-0.4-1.1-0.4c-0.4,0-0.8,0.1-1.1,0.4
			c-0.3,0.3-0.4,0.7-0.4,1.2v3.6h-0.9v-5.9h0.9V31c0.2-0.2,0.5-0.4,0.7-0.5s0.6-0.2,0.9-0.2c0.6,0,1.1,0.2,1.5,0.6
			c0.4,0.4,0.6,0.9,0.6,1.6v3.8H180.2z"/>
		<path fill="#353C47" d="M186.5,36.3v-0.7c-0.2,0.3-0.5,0.5-0.8,0.6s-0.6,0.2-0.9,0.2c-0.3,0-0.6,0-0.8-0.1s-0.5-0.2-0.6-0.4
			c-0.2-0.2-0.3-0.3-0.4-0.5s-0.2-0.4-0.2-0.6c-0.1-0.2-0.1-0.4-0.1-0.7s0-0.5,0-0.7c0-0.2,0-0.5,0-0.7c0-0.2,0.1-0.5,0.1-0.7
			c0.1-0.2,0.1-0.4,0.2-0.6c0.1-0.2,0.2-0.4,0.4-0.5c0.2-0.2,0.4-0.3,0.6-0.4s0.5-0.1,0.8-0.1c0.3,0,0.6,0,0.9,0.1
			c0.3,0.1,0.5,0.3,0.8,0.6l0-3.3h0.9v8.5H186.5z M186.5,32.5c0-0.3-0.1-0.5-0.2-0.7s-0.3-0.4-0.4-0.5s-0.5-0.2-0.8-0.2
			c-0.3,0-0.6,0.1-0.8,0.2s-0.3,0.3-0.4,0.5s-0.2,0.4-0.2,0.7c0,0.3-0.1,0.6-0.1,0.8s0,0.6,0.1,0.8c0,0.3,0.1,0.5,0.2,0.7
			s0.3,0.4,0.4,0.5s0.5,0.2,0.8,0.2c0.3,0,0.6-0.1,0.8-0.2s0.3-0.3,0.4-0.5s0.2-0.4,0.2-0.7c0-0.3,0-0.6,0-0.8
			S186.5,32.8,186.5,32.5z"/>
		<path fill="#353C47" d="M198.1,31.3c-0.1,0.3-0.3,0.6-0.5,0.8c-0.2,0.2-0.5,0.4-0.8,0.5s-0.7,0.2-1.1,0.2h-2.3v3.5h-0.9v-8.5h3.2
			c0.4,0,0.8,0.1,1.1,0.2s0.6,0.3,0.8,0.5c0.2,0.2,0.4,0.5,0.5,0.8c0.1,0.3,0.2,0.7,0.2,1S198.2,31,198.1,31.3z M196.8,29
			c-0.3-0.3-0.8-0.4-1.3-0.4h-2.2V32h2.2c0.5,0,1-0.1,1.3-0.4s0.5-0.7,0.5-1.3C197.4,29.7,197.2,29.3,196.8,29z"/>
		<path fill="#353C47" d="M203,31.5c-0.2-0.2-0.3-0.3-0.5-0.3c-0.1-0.1-0.3-0.1-0.6-0.1c-0.2,0-0.4,0-0.6,0.1
			c-0.2,0.1-0.3,0.2-0.4,0.3c-0.1,0.1-0.2,0.3-0.3,0.5s-0.1,0.4-0.1,0.6v3.6h-0.9v-5.9h0.9v0.7c0.2-0.2,0.4-0.4,0.7-0.6
			c0.3-0.1,0.6-0.2,1-0.2c0.3,0,0.5,0,0.8,0.1c0.2,0.1,0.4,0.2,0.7,0.4L203,31.5z"/>
		<path fill="#353C47" d="M208.6,34.6c-0.1,0.4-0.3,0.8-0.6,1.1c-0.2,0.2-0.5,0.4-0.7,0.5c-0.3,0.1-0.6,0.2-1,0.2
			c-0.4,0-0.7-0.1-1-0.2c-0.3-0.1-0.5-0.3-0.7-0.5c-0.2-0.2-0.3-0.3-0.4-0.5c-0.1-0.2-0.2-0.4-0.2-0.6c-0.1-0.2-0.1-0.4-0.1-0.6
			c0-0.2,0-0.4,0-0.7c0-0.2,0-0.4,0-0.7c0-0.2,0.1-0.4,0.1-0.6c0.1-0.2,0.1-0.4,0.2-0.6c0.1-0.2,0.2-0.3,0.4-0.5
			c0.2-0.2,0.5-0.4,0.7-0.5s0.6-0.2,1-0.2c0.4,0,0.7,0.1,1,0.2c0.3,0.1,0.5,0.3,0.7,0.5c0.3,0.3,0.5,0.7,0.6,1.1
			c0.1,0.4,0.1,0.8,0.1,1.3S208.7,34.2,208.6,34.6z M207.9,32.8c0-0.2,0-0.3-0.1-0.5c0-0.2-0.1-0.3-0.1-0.5
			c-0.1-0.1-0.1-0.3-0.3-0.4c-0.3-0.3-0.6-0.4-1.1-0.4c-0.4,0-0.8,0.1-1.1,0.4c-0.1,0.1-0.2,0.2-0.3,0.4c-0.1,0.1-0.1,0.3-0.1,0.5
			s-0.1,0.3-0.1,0.5c0,0.2,0,0.3,0,0.5s0,0.3,0,0.5c0,0.2,0,0.3,0.1,0.5s0.1,0.3,0.1,0.5c0.1,0.1,0.1,0.3,0.3,0.4
			c0.3,0.3,0.6,0.4,1.1,0.4c0.4,0,0.8-0.1,1.1-0.4c0.1-0.1,0.2-0.2,0.3-0.4c0.1-0.1,0.1-0.3,0.1-0.5c0-0.2,0.1-0.3,0.1-0.5
			s0-0.3,0-0.5S207.9,33,207.9,32.8z"/>
		<path fill="#353C47" d="M211.5,31.1v5.2h-0.9v-5.2h-0.8v-0.7h0.8v-1.1c0-0.2,0-0.4,0.1-0.6c0.1-0.2,0.2-0.4,0.3-0.5
			c0.1-0.1,0.3-0.3,0.5-0.3c0.2-0.1,0.4-0.1,0.7-0.1h0.6v0.7h-0.5c-0.3,0-0.5,0.1-0.6,0.2c-0.1,0.2-0.2,0.4-0.2,0.6v1.1h1.3v0.7
			H211.5z"/>
		<path fill="#353C47" d="M214.5,33.6c0,0.6,0.1,1.1,0.4,1.5c0.3,0.4,0.7,0.5,1.3,0.5c0.3,0,0.6-0.1,0.9-0.2
			c0.2-0.1,0.5-0.3,0.7-0.5l0.6,0.5c-0.2,0.2-0.3,0.3-0.5,0.4c-0.1,0.1-0.3,0.2-0.5,0.3c-0.2,0.1-0.4,0.1-0.6,0.2
			c-0.2,0-0.4,0.1-0.7,0.1c-0.4,0-0.7-0.1-1.1-0.2c-0.3-0.1-0.6-0.3-0.8-0.6s-0.4-0.6-0.5-0.9s-0.2-0.8-0.2-1.4c0-1,0.2-1.7,0.6-2.2
			c0.4-0.5,1-0.8,1.8-0.8c0.8,0,1.4,0.3,1.8,0.8s0.6,1.2,0.6,2.1v0.4H214.5z M217.5,32.6c0-0.1,0-0.2,0-0.2c0-0.1,0-0.1,0-0.2
			c0-0.1,0-0.1-0.1-0.2c-0.1-0.3-0.3-0.5-0.5-0.6S216.3,31,216,31c-0.3,0-0.6,0.1-0.8,0.2s-0.4,0.4-0.5,0.6
			c-0.1,0.2-0.1,0.3-0.1,0.4s0,0.3,0,0.6h3.1C217.6,32.8,217.6,32.7,217.5,32.6z"/>
		<path fill="#353C47" d="M224.2,35.3c-0.1,0.2-0.3,0.4-0.5,0.6c-0.2,0.2-0.5,0.3-0.8,0.4s-0.6,0.1-1,0.1c-0.5,0-1-0.1-1.3-0.2
			c-0.4-0.1-0.8-0.3-1.1-0.7l0.6-0.6c0.2,0.2,0.5,0.4,0.8,0.5c0.3,0.1,0.7,0.2,1,0.2c0.5,0,0.9-0.1,1.2-0.3s0.4-0.4,0.4-0.8
			c0-0.3-0.1-0.5-0.2-0.6c-0.2-0.1-0.4-0.2-0.8-0.3l-1-0.1c-0.6,0-1-0.2-1.3-0.5c-0.3-0.3-0.5-0.6-0.5-1.1c0-0.3,0.1-0.5,0.2-0.7
			c0.1-0.2,0.3-0.4,0.4-0.5c0.2-0.1,0.4-0.3,0.7-0.3c0.3-0.1,0.6-0.1,0.9-0.1c0.4,0,0.8,0.1,1.2,0.2c0.4,0.1,0.7,0.3,0.9,0.5
			l-0.6,0.6c-0.2-0.2-0.4-0.3-0.7-0.4c-0.3-0.1-0.6-0.1-0.9-0.1c-0.4,0-0.8,0.1-1,0.3c-0.2,0.2-0.3,0.4-0.3,0.7
			c0,0.3,0.1,0.5,0.2,0.6c0.2,0.1,0.4,0.2,0.8,0.3l0.9,0.1c0.3,0,0.5,0.1,0.7,0.1c0.2,0.1,0.4,0.2,0.6,0.3c0.2,0.1,0.3,0.3,0.4,0.5
			c0.1,0.2,0.1,0.4,0.1,0.7C224.4,34.8,224.4,35.1,224.2,35.3z"/>
		<path fill="#353C47" d="M229.9,35.3c-0.1,0.2-0.3,0.4-0.5,0.6c-0.2,0.2-0.5,0.3-0.8,0.4s-0.6,0.1-1,0.1c-0.5,0-1-0.1-1.3-0.2
			c-0.4-0.1-0.8-0.3-1.1-0.7l0.6-0.6c0.2,0.2,0.5,0.4,0.8,0.5c0.3,0.1,0.7,0.2,1,0.2c0.5,0,0.9-0.1,1.2-0.3s0.4-0.4,0.4-0.8
			c0-0.3-0.1-0.5-0.2-0.6c-0.2-0.1-0.4-0.2-0.8-0.3l-1-0.1c-0.6,0-1-0.2-1.3-0.5c-0.3-0.3-0.5-0.6-0.5-1.1c0-0.3,0.1-0.5,0.2-0.7
			c0.1-0.2,0.3-0.4,0.4-0.5c0.2-0.1,0.4-0.3,0.7-0.3c0.3-0.1,0.6-0.1,0.9-0.1c0.4,0,0.8,0.1,1.2,0.2c0.4,0.1,0.7,0.3,0.9,0.5
			l-0.6,0.6c-0.2-0.2-0.4-0.3-0.7-0.4c-0.3-0.1-0.6-0.1-0.9-0.1c-0.4,0-0.8,0.1-1,0.3c-0.2,0.2-0.3,0.4-0.3,0.7
			c0,0.3,0.1,0.5,0.2,0.6c0.2,0.1,0.4,0.2,0.8,0.3l0.9,0.1c0.3,0,0.5,0.1,0.7,0.1c0.2,0.1,0.4,0.2,0.6,0.3c0.2,0.1,0.3,0.3,0.4,0.5
			c0.1,0.2,0.1,0.4,0.1,0.7C230.1,34.8,230,35.1,229.9,35.3z"/>
		<path fill="#353C47" d="M231.6,28.7v-1h1v1H231.6z M231.6,36.3v-5.9h0.9v5.9H231.6z"/>
		<path fill="#353C47" d="M238.9,34.6c-0.1,0.4-0.3,0.8-0.6,1.1c-0.2,0.2-0.5,0.4-0.7,0.5c-0.3,0.1-0.6,0.2-1,0.2
			c-0.4,0-0.7-0.1-1-0.2c-0.3-0.1-0.5-0.3-0.7-0.5c-0.2-0.2-0.3-0.3-0.4-0.5c-0.1-0.2-0.2-0.4-0.2-0.6c-0.1-0.2-0.1-0.4-0.1-0.6
			c0-0.2,0-0.4,0-0.7c0-0.2,0-0.4,0-0.7c0-0.2,0.1-0.4,0.1-0.6c0.1-0.2,0.1-0.4,0.2-0.6c0.1-0.2,0.2-0.3,0.4-0.5
			c0.2-0.2,0.5-0.4,0.7-0.5s0.6-0.2,1-0.2c0.4,0,0.7,0.1,1,0.2c0.3,0.1,0.5,0.3,0.7,0.5c0.3,0.3,0.5,0.7,0.6,1.1
			c0.1,0.4,0.1,0.8,0.1,1.3S239,34.2,238.9,34.6z M238.2,32.8c0-0.2,0-0.3-0.1-0.5c0-0.2-0.1-0.3-0.1-0.5c-0.1-0.1-0.1-0.3-0.3-0.4
			c-0.3-0.3-0.6-0.4-1.1-0.4c-0.4,0-0.8,0.1-1.1,0.4c-0.1,0.1-0.2,0.2-0.3,0.4c-0.1,0.1-0.1,0.3-0.1,0.5s-0.1,0.3-0.1,0.5
			c0,0.2,0,0.3,0,0.5s0,0.3,0,0.5c0,0.2,0,0.3,0.1,0.5s0.1,0.3,0.1,0.5c0.1,0.1,0.1,0.3,0.3,0.4c0.3,0.3,0.6,0.4,1.1,0.4
			c0.4,0,0.8-0.1,1.1-0.4c0.1-0.1,0.2-0.2,0.3-0.4c0.1-0.1,0.1-0.3,0.1-0.5c0-0.2,0.1-0.3,0.1-0.5s0-0.3,0-0.5S238.2,33,238.2,32.8z
			"/>
		<path fill="#353C47" d="M244.6,36.3v-3.6c0-0.5-0.1-0.9-0.4-1.2c-0.3-0.3-0.6-0.4-1.1-0.4c-0.4,0-0.8,0.1-1.1,0.4
			c-0.3,0.3-0.4,0.7-0.4,1.2v3.6h-0.9v-5.9h0.9V31c0.2-0.2,0.5-0.4,0.7-0.5s0.6-0.2,0.9-0.2c0.6,0,1.1,0.2,1.5,0.6
			c0.4,0.4,0.6,0.9,0.6,1.6v3.8H244.6z"/>
		<path fill="#353C47" d="M250.8,36.3v-0.6c-0.2,0.2-0.5,0.4-0.7,0.5s-0.6,0.1-1,0.1c-0.4,0-0.7,0-1-0.1s-0.5-0.2-0.7-0.4
			c-0.1-0.1-0.3-0.3-0.3-0.5s-0.1-0.4-0.1-0.7c0-0.5,0.2-0.9,0.5-1.2c0.3-0.3,0.9-0.5,1.5-0.5h1.8v-0.6c0-0.4-0.1-0.8-0.3-1
			c-0.2-0.2-0.6-0.3-1.2-0.3c-0.4,0-0.7,0.1-0.9,0.2c-0.2,0.1-0.4,0.3-0.6,0.5l-0.6-0.5c0.3-0.3,0.6-0.6,0.9-0.7
			c0.3-0.1,0.7-0.2,1.2-0.2c0.8,0,1.4,0.2,1.8,0.5s0.6,0.8,0.6,1.5v4H250.8z M250.8,33.6h-1.7c-0.9,0-1.3,0.3-1.3,1
			c0,0.3,0.1,0.6,0.3,0.8c0.2,0.2,0.6,0.2,1,0.2c0.3,0,0.5,0,0.7-0.1c0.2,0,0.4-0.2,0.6-0.3c0.2-0.2,0.3-0.5,0.3-1V33.6z"/>
		<path fill="#353C47" d="M255.1,36.3c-0.5,0-0.9-0.2-1.1-0.5s-0.4-0.7-0.4-1.1v-7h0.9v6.9c0,0.3,0.1,0.5,0.2,0.6s0.3,0.2,0.6,0.2
			h0.5v0.7H255.1z"/>
		<path fill="#353C47" d="M266,32.9c0,0.3,0,0.6-0.1,1s-0.1,0.6-0.2,0.9c-0.1,0.3-0.3,0.5-0.5,0.8c-0.3,0.3-0.6,0.5-0.9,0.6
			s-0.8,0.2-1.2,0.2h-2.9v-8.5h2.9c0.4,0,0.9,0.1,1.2,0.2s0.7,0.3,0.9,0.6c0.2,0.2,0.4,0.5,0.5,0.7c0.1,0.3,0.2,0.5,0.2,0.8
			s0.1,0.6,0.1,0.9c0,0.3,0,0.6,0,0.9S266,32.5,266,32.9z M265.1,31.1c0-0.3,0-0.5-0.1-0.7c0-0.2-0.1-0.5-0.2-0.7
			c-0.1-0.2-0.2-0.4-0.3-0.5c-0.2-0.2-0.5-0.4-0.8-0.5c-0.3-0.1-0.6-0.1-0.9-0.1H261v6.9h1.9c0.3,0,0.6,0,0.9-0.1
			c0.3-0.1,0.5-0.3,0.8-0.5c0.1-0.2,0.3-0.3,0.3-0.6c0.1-0.2,0.1-0.5,0.2-0.7c0-0.3,0-0.5,0.1-0.8s0-0.6,0-0.8
			C265.1,31.7,265.1,31.4,265.1,31.1z"/>
		<path fill="#353C47" d="M268.4,33.6c0,0.6,0.1,1.1,0.4,1.5c0.3,0.4,0.7,0.5,1.3,0.5c0.3,0,0.6-0.1,0.9-0.2
			c0.2-0.1,0.5-0.3,0.7-0.5l0.6,0.5c-0.2,0.2-0.3,0.3-0.5,0.4c-0.1,0.1-0.3,0.2-0.5,0.3c-0.2,0.1-0.4,0.1-0.6,0.2
			c-0.2,0-0.4,0.1-0.7,0.1c-0.4,0-0.7-0.1-1.1-0.2c-0.3-0.1-0.6-0.3-0.8-0.6s-0.4-0.6-0.5-0.9s-0.2-0.8-0.2-1.4c0-1,0.2-1.7,0.6-2.2
			c0.4-0.5,1-0.8,1.8-0.8c0.8,0,1.4,0.3,1.8,0.8s0.6,1.2,0.6,2.1v0.4H268.4z M271.5,32.6c0-0.1,0-0.2,0-0.2c0-0.1,0-0.1,0-0.2
			c0-0.1,0-0.1-0.1-0.2c-0.1-0.3-0.3-0.5-0.5-0.6S270.3,31,270,31c-0.3,0-0.6,0.1-0.8,0.2s-0.4,0.4-0.5,0.6
			c-0.1,0.2-0.1,0.3-0.1,0.4s0,0.3,0,0.6h3.1C271.5,32.8,271.5,32.7,271.5,32.6z"/>
		<path fill="#353C47" d="M276,36.3h-0.8l-2.2-5.9h0.9l1.6,4.7l1.6-4.7h0.9L276,36.3z"/>
		<path fill="#353C47" d="M279.6,33.6c0,0.6,0.1,1.1,0.4,1.5c0.3,0.4,0.7,0.5,1.3,0.5c0.3,0,0.6-0.1,0.9-0.2
			c0.2-0.1,0.5-0.3,0.7-0.5l0.6,0.5c-0.2,0.2-0.3,0.3-0.5,0.4c-0.1,0.1-0.3,0.2-0.5,0.3c-0.2,0.1-0.4,0.1-0.6,0.2
			c-0.2,0-0.4,0.1-0.7,0.1c-0.4,0-0.7-0.1-1.1-0.2c-0.3-0.1-0.6-0.3-0.8-0.6s-0.4-0.6-0.5-0.9s-0.2-0.8-0.2-1.4c0-1,0.2-1.7,0.6-2.2
			c0.4-0.5,1-0.8,1.8-0.8c0.8,0,1.4,0.3,1.8,0.8s0.6,1.2,0.6,2.1v0.4H279.6z M282.7,32.6c0-0.1,0-0.2,0-0.2c0-0.1,0-0.1,0-0.2
			c0-0.1,0-0.1-0.1-0.2c-0.1-0.3-0.3-0.5-0.5-0.6s-0.5-0.2-0.8-0.2c-0.3,0-0.6,0.1-0.8,0.2s-0.4,0.4-0.5,0.6
			c-0.1,0.2-0.1,0.3-0.1,0.4s0,0.3,0,0.6h3.1C282.8,32.8,282.8,32.7,282.7,32.6z"/>
		<path fill="#353C47" d="M286.8,36.3c-0.5,0-0.9-0.2-1.1-0.5s-0.4-0.7-0.4-1.1v-7h0.9v6.9c0,0.3,0.1,0.5,0.2,0.6s0.3,0.2,0.6,0.2
			h0.5v0.7H286.8z"/>
		<path fill="#353C47" d="M292.9,34.6c-0.1,0.4-0.3,0.8-0.6,1.1c-0.2,0.2-0.5,0.4-0.7,0.5c-0.3,0.1-0.6,0.2-1,0.2
			c-0.4,0-0.7-0.1-1-0.2c-0.3-0.1-0.5-0.3-0.7-0.5c-0.2-0.2-0.3-0.3-0.4-0.5c-0.1-0.2-0.2-0.4-0.2-0.6c-0.1-0.2-0.1-0.4-0.1-0.6
			c0-0.2,0-0.4,0-0.7c0-0.2,0-0.4,0-0.7c0-0.2,0.1-0.4,0.1-0.6c0.1-0.2,0.1-0.4,0.2-0.6c0.1-0.2,0.2-0.3,0.4-0.5
			c0.2-0.2,0.5-0.4,0.7-0.5s0.6-0.2,1-0.2c0.4,0,0.7,0.1,1,0.2c0.3,0.1,0.5,0.3,0.7,0.5c0.3,0.3,0.5,0.7,0.6,1.1
			c0.1,0.4,0.1,0.8,0.1,1.3S293,34.2,292.9,34.6z M292.2,32.8c0-0.2,0-0.3-0.1-0.5c0-0.2-0.1-0.3-0.1-0.5c-0.1-0.1-0.1-0.3-0.3-0.4
			c-0.3-0.3-0.6-0.4-1.1-0.4c-0.4,0-0.8,0.1-1.1,0.4c-0.1,0.1-0.2,0.2-0.3,0.4c-0.1,0.1-0.1,0.3-0.1,0.5s-0.1,0.3-0.1,0.5
			c0,0.2,0,0.3,0,0.5s0,0.3,0,0.5c0,0.2,0,0.3,0.1,0.5s0.1,0.3,0.1,0.5c0.1,0.1,0.1,0.3,0.3,0.4c0.3,0.3,0.6,0.4,1.1,0.4
			c0.4,0,0.8-0.1,1.1-0.4c0.1-0.1,0.2-0.2,0.3-0.4c0.1-0.1,0.1-0.3,0.1-0.5c0-0.2,0.1-0.3,0.1-0.5s0-0.3,0-0.5S292.2,33,292.2,32.8z
			"/>
		<path fill="#353C47" d="M299.5,34c0,0.2-0.1,0.5-0.1,0.7c-0.1,0.2-0.1,0.4-0.2,0.6s-0.2,0.4-0.4,0.5c-0.2,0.2-0.4,0.3-0.6,0.4
			c-0.2,0.1-0.5,0.1-0.8,0.1c-0.3,0-0.6-0.1-0.9-0.2c-0.3-0.1-0.5-0.3-0.8-0.6v3.3h-0.9v-8.5h0.9v0.7c0.2-0.3,0.5-0.5,0.8-0.6
			c0.3-0.1,0.6-0.1,0.9-0.1c0.3,0,0.6,0,0.8,0.1c0.2,0.1,0.5,0.2,0.6,0.4c0.2,0.2,0.3,0.3,0.4,0.5c0.1,0.2,0.2,0.4,0.2,0.6
			c0.1,0.2,0.1,0.4,0.1,0.7c0,0.2,0,0.5,0,0.7C299.5,33.6,299.5,33.8,299.5,34z M298.6,32.5c0-0.3-0.1-0.5-0.2-0.7
			c-0.1-0.2-0.3-0.4-0.5-0.5s-0.5-0.2-0.8-0.2c-0.3,0-0.6,0.1-0.8,0.2c-0.2,0.1-0.3,0.3-0.5,0.5c-0.1,0.2-0.2,0.4-0.2,0.7
			c0,0.3-0.1,0.6-0.1,0.8s0,0.6,0.1,0.8c0,0.3,0.1,0.5,0.2,0.7c0.1,0.2,0.3,0.4,0.5,0.5c0.2,0.1,0.5,0.2,0.8,0.2
			c0.3,0,0.6-0.1,0.8-0.2s0.3-0.3,0.5-0.5c0.1-0.2,0.2-0.4,0.2-0.7c0-0.3,0-0.6,0-0.8S298.6,32.8,298.6,32.5z"/>
		<path fill="#353C47" d="M308.8,36.3v-3.6c0-0.5-0.1-0.9-0.4-1.2c-0.3-0.3-0.6-0.4-1.1-0.4c-0.4,0-0.8,0.1-1.1,0.4
			c-0.3,0.3-0.4,0.6-0.4,1.1v3.7H305v-3.6c0-0.5-0.1-0.9-0.4-1.2c-0.3-0.3-0.6-0.4-1.1-0.4s-0.8,0.1-1.1,0.4
			c-0.3,0.3-0.4,0.7-0.4,1.2v3.6h-0.9v-5.9h0.9V31c0.2-0.2,0.5-0.4,0.7-0.5s0.6-0.2,0.9-0.2c0.4,0,0.8,0.1,1.1,0.2
			c0.3,0.2,0.6,0.4,0.7,0.7c0.5-0.7,1.1-1,1.9-1c0.3,0,0.6,0,0.9,0.1c0.3,0.1,0.5,0.2,0.7,0.4c0.4,0.4,0.6,1,0.6,1.6v3.8H308.8z"/>
		<path fill="#353C47" d="M312.2,33.6c0,0.6,0.1,1.1,0.4,1.5c0.3,0.4,0.7,0.5,1.3,0.5c0.3,0,0.6-0.1,0.9-0.2
			c0.2-0.1,0.5-0.3,0.7-0.5l0.6,0.5c-0.2,0.2-0.3,0.3-0.5,0.4c-0.1,0.1-0.3,0.2-0.5,0.3c-0.2,0.1-0.4,0.1-0.6,0.2
			c-0.2,0-0.4,0.1-0.7,0.1c-0.4,0-0.7-0.1-1.1-0.2c-0.3-0.1-0.6-0.3-0.8-0.6s-0.4-0.6-0.5-0.9s-0.2-0.8-0.2-1.4c0-1,0.2-1.7,0.6-2.2
			c0.4-0.5,1-0.8,1.8-0.8c0.8,0,1.4,0.3,1.8,0.8s0.6,1.2,0.6,2.1v0.4H312.2z M315.3,32.6c0-0.1,0-0.2,0-0.2c0-0.1,0-0.1,0-0.2
			c0-0.1,0-0.1-0.1-0.2c-0.1-0.3-0.3-0.5-0.5-0.6s-0.5-0.2-0.8-0.2c-0.3,0-0.6,0.1-0.8,0.2s-0.4,0.4-0.5,0.6
			c-0.1,0.2-0.1,0.3-0.1,0.4s0,0.3,0,0.6h3.1C315.3,32.8,315.3,32.7,315.3,32.6z"/>
		<path fill="#353C47" d="M321.7,36.3v-3.6c0-0.5-0.1-0.9-0.4-1.2c-0.3-0.3-0.6-0.4-1.1-0.4c-0.4,0-0.8,0.1-1.1,0.4
			c-0.3,0.3-0.4,0.7-0.4,1.2v3.6h-0.9v-5.9h0.9V31c0.2-0.2,0.5-0.4,0.7-0.5s0.6-0.2,0.9-0.2c0.6,0,1.1,0.2,1.5,0.6
			c0.4,0.4,0.6,0.9,0.6,1.6v3.8H321.7z"/>
		<path fill="#353C47" d="M326.2,36.3c-0.3,0-0.5,0-0.7-0.1c-0.2-0.1-0.3-0.2-0.5-0.3c-0.1-0.1-0.2-0.3-0.3-0.5
			c-0.1-0.2-0.1-0.4-0.1-0.6v-3.6h-0.7v-0.7h0.7v-1.8h0.9v1.8h1.3v0.7h-1.3v3.6c0,0.3,0.1,0.5,0.2,0.6c0.1,0.2,0.3,0.2,0.6,0.2h0.5
			v0.7H326.2z"/>
	</g>
	<g>
		<line fill="#353C47" x1="158.4" y1="3.7" x2="158.4" y2="48"/>
	</g>
	<g>
		<g>
			<g>
				<path fill="#353C47" d="M10.3,27.1c0-1.4,0.8-1,0.8-1.3c0-0.1-0.1-0.2-0.2-0.2c-0.6,0-1,0.1-1.4,0.1c-0.3,0-0.7,0-1-0.1
					c-0.2,0-0.4-0.1-0.4,0.1c0,0.5,1.5,0.1,1.5,1.5v2.5c0,2.1-0.3,4.1-2.7,4.1c-2.2,0-2.6-1.6-2.6-3.5v-2.7c0-2.1,1-1.4,1-1.8
					c0-0.1,0-0.2-0.1-0.2c-0.2,0-1.1,0.1-1.7,0.1c-0.6,0-1.5-0.1-1.7-0.1c-0.1,0-0.3,0-0.3,0.2c0,0.5,1.3,0.1,1.3,1.2V31
					c0,2.4,1.2,3.5,3.5,3.5c3.3,0,4-2.1,4-4.7V27.1L10.3,27.1z"/>
			</g>
			<g>
				<path fill="#353C47" d="M19.8,32.8c0,1.3-1.2,1.1-1.2,1.6c0,0.2,0.2,0.2,0.4,0.2c0.3,0,0.7-0.1,1-0.1c0.4,0,0.8,0.1,1.4,0.1
					c0.2,0,0.5,0,0.5-0.2c0-0.6-1.5,0.3-1.5-2.1v-4.3c0-0.1,0-0.2,0.1-0.2c0.1,0,0.1,0.1,0.2,0.2l5.8,6.5c0.1,0.1,0.1,0.2,0.3,0.2
					c0.1,0,0.1-0.1,0.1-0.4v-7c0-1.3,1-1,1-1.4c0,0,0-0.2-0.2-0.2c-0.1,0-0.5,0.1-1.3,0.1c-0.8,0-1.2-0.1-1.4-0.1
					c-0.2,0-0.2,0.1-0.2,0.2c0,0.4,1.5,0.2,1.5,1.3v4.2c0,0.3,0,0.5-0.1,0.5c-0.1,0-0.2-0.2-0.4-0.3l-4.9-5.5
					c-0.2-0.2-0.1-0.3-0.5-0.3c-0.6,0-1,0.1-1.3,0.1c-0.2,0-0.4-0.1-0.7-0.1c-0.1,0-0.2,0.1-0.2,0.2c0,0.6,1.4-0.2,1.4,2.2V32.8
					L19.8,32.8z"/>
			</g>
			<g>
				<path fill="#353C47" d="M39.1,26.9c0-1.2,0.9-0.7,0.9-1.2c0-0.2-0.1-0.2-0.4-0.2c-0.7,0-1.1,0.1-1.6,0.1c-0.4,0-0.9-0.1-1.4-0.1
					c-0.1,0-0.4,0-0.4,0.2c0,0.4,1.4,0.1,1.4,1.2v6c0,1.2-0.9,0.9-0.9,1.3c0,0.1,0,0.2,0.1,0.2c0.3,0,0.8-0.1,1.4-0.1
					c0.9,0,1.4,0.1,1.8,0.1c0.3,0,0.4-0.1,0.4-0.2c0-0.4-1.4,0.2-1.4-1.4V26.9L39.1,26.9z"/>
			</g>
			<g>
				<path fill="#353C47" d="M56.2,26.7c0.3-0.7,0.8-0.7,0.8-1c0-0.2-0.2-0.2-0.4-0.2c-0.3,0-0.7,0.1-1,0.1c-0.4,0-0.7-0.1-1-0.1
					c-0.1,0-0.5,0-0.5,0.2c0,0.4,1.2,0,1.2,1.2c0,0.2,0,0.6-0.4,1.5l-1.7,3.8c0,0.1-0.1,0.3-0.2,0.3c-0.1,0-0.1-0.2-0.2-0.3l-1.6-4
					c-0.3-0.8-0.5-1.4-0.5-1.7c0-0.5,0.7-0.3,0.7-0.7c0-0.2-0.1-0.2-0.4-0.2c-0.2,0-0.5,0.1-1.3,0.1c-0.4,0-0.8-0.1-1.2-0.1
					c-0.2,0-0.6-0.1-0.6,0.2c0,0.1,0.2,0.2,0.2,0.2c0.5,0.1,0.7,0.3,0.9,0.8l3,7.3c0.2,0.5,0.3,0.7,0.5,0.7c0.1,0,0.2-0.1,0.3-0.4
					L56.2,26.7L56.2,26.7z"/>
			</g>
			<g>
				<path fill="#353C47" d="M67.2,27.1c0-0.9,0-0.9,1.5-0.9c2.3,0,1.4,1.5,2,1.5c0.3,0,0.2-0.4,0.2-0.6l0-1.2c0-0.1-0.1-0.2-0.2-0.2
					c-1.1,0-1.9,0.1-2.8,0.1c-1.8,0-2.7-0.1-3.2-0.1c-0.2,0-0.3,0.1-0.3,0.2c0,0.5,1.4,0.1,1.4,1.2v5.9c0,1.5-0.9,0.9-0.9,1.4
					c0,0.1,0.1,0.1,0.2,0.1c0.7,0,1.2-0.1,1.5-0.1c0.6,0,1.3,0.1,3.2,0.1c1,0,1.7-1,1.7-2c0-0.2-0.1-0.3-0.1-0.3
					c-0.5,0-0.3,1.6-3.3,1.6c-0.9,0-0.8-0.5-0.8-1.2V31c0-0.7,0-0.9,0.5-0.9h0.9c1.3,0,0.9,1.3,1.3,1.3c0.3,0,0.2-0.5,0.2-0.6
					l-0.1-2.2c0-0.3-0.1-0.3-0.2-0.3c-0.2,0-0.3,1.2-1.3,1.2h-0.8c-0.5,0-0.5-0.1-0.5-0.6V27.1L67.2,27.1z"/>
			</g>
			<g>
				<path fill-rule="evenodd" clip-rule="evenodd" fill="#353C47" d="M82.4,26.9c0-0.8,0.4-0.8,0.8-0.8c1.2,0,1.9,0.9,1.9,2.2
					c0,0.7-0.1,1.4-1.9,1.4c-0.4,0-0.8,0-0.8-0.3V26.9L82.4,26.9z M80.9,32.7c0,1.6-1,1.2-1,1.6c0,0.3,0.3,0.2,0.4,0.2
					c0.6,0,1.2-0.1,1.9-0.1c0.5,0,0.8,0.1,1,0.1c0.3,0,0.4-0.1,0.4-0.2c0-0.5-1.2,0.1-1.2-1.3v-2.2c0-0.4-0.1-0.5,0.6-0.5
					c0.6,0,0.8,0.1,1.1,0.7l1,2c0.4,0.7,0.8,1.5,1.7,1.5c0.5,0,1.3-0.3,1.3-0.7c0-0.1-0.1-0.2-0.2-0.2c-0.1,0-0.2,0.1-0.4,0.1
					c-0.1,0-0.3,0-0.4-0.2c-0.9-1.6-1.9-3.4-1.9-3.5c0-0.1,0.4-0.2,0.7-0.5c0.4-0.3,0.7-0.8,0.7-1.6c0-0.6-0.2-2.3-2.9-2.3
					c-0.8,0-1.6,0.1-2.4,0.1c-0.8,0-0.9-0.1-1.4-0.1c-0.1,0-0.3,0.1-0.3,0.2c0,0.5,1.3,0,1.3,1.4V32.7L80.9,32.7z"/>
			</g>
			<g>
				<path fill="#353C47" d="M95.9,33.6c0.1,0.3,0,0.4,0.3,0.5c0.7,0.2,1.3,0.5,2.1,0.5c1.6,0,2.7-1.1,2.7-2.8c0-1.6-0.8-2.1-2.1-2.7
					c-1.6-0.7-2.3-0.9-2.3-1.7c0-0.8,0.5-1.3,1.3-1.3c2.1,0,2.3,2.3,2.5,2.3c0.3,0,0.3-0.2,0.3-0.4l-0.1-1.7c0-0.3,0-0.5-0.2-0.5
					c-0.2,0-0.5,0.2-0.6,0.2c-0.4,0-0.9-0.5-1.9-0.5c-1.4,0-2.4,1.1-2.4,2.5c0,1.3,0.7,1.8,1.8,2.3c1.9,0.9,2.7,1.1,2.7,2.1
					c0,1-0.7,1.6-1.7,1.6c-1.3,0-2.1-1.1-2.5-2.3c0-0.2-0.1-0.3-0.3-0.3c-0.3,0-0.2,0.4-0.1,0.5L95.9,33.6L95.9,33.6z"/>
			</g>
			<g>
				<path fill="#353C47" d="M112.3,26.9c0-1.2,0.9-0.7,0.9-1.2c0-0.2-0.1-0.2-0.4-0.2c-0.7,0-1.1,0.1-1.6,0.1
					c-0.4,0-0.9-0.1-1.4-0.1c-0.1,0-0.4,0-0.4,0.2c0,0.4,1.4,0.1,1.4,1.2v6c0,1.2-0.9,0.9-0.9,1.3c0,0.1,0,0.2,0.1,0.2
					c0.3,0,0.8-0.1,1.4-0.1c0.9,0,1.4,0.1,1.8,0.1c0.3,0,0.4-0.1,0.4-0.2c0-0.4-1.4,0.2-1.4-1.4V26.9L112.3,26.9z"/>
			</g>
			<g>
				<path fill="#353C47" d="M124.9,32.8c0,1.5-1.4,0.9-1.4,1.4c0,0.3,0.2,0.3,0.4,0.3c0.5,0,0.9-0.1,1.7-0.1c0.8,0,1.2,0.1,1.7,0.1
					c0.3,0,0.6,0,0.6-0.3c0-0.4-1.5,0-1.5-1.5V27c0-0.6,0.1-0.7,0.6-0.7h1c1.4-0.1,1,1.3,1.5,1.3c0.3,0,0.2-0.5,0.2-0.6l-0.1-1.2
					c0-0.1,0-0.3-0.2-0.3c-1.1,0-1.9,0.1-3.7,0.1c-1.8,0-2.6-0.1-3.7-0.1c-0.2,0-0.2,0.2-0.2,0.3l-0.2,1.7c0,0.2-0.1,0.4,0.2,0.4
					c0.5,0,0.2-1.6,1.5-1.6h1c0.5,0,0.6,0.1,0.6,0.7V32.8L124.9,32.8z"/>
			</g>
			<g>
				<path fill="#353C47" d="M139.7,30.5c0.1,0.3,0.2,0.4,0.2,0.8v1.6c0,1.6-1.3,0.9-1.3,1.5c0,0.1,0.1,0.1,0.3,0.1
					c0.3,0,0.7-0.1,1.8-0.1c1.5,0,1.7,0.1,1.8,0.1c0.2,0,0.4,0,0.4-0.2c0-0.6-1.5,0.2-1.5-1.4v-1.9c0-0.5,0-0.5,0.2-0.8l1.6-3.1
					c0.7-1.4,1.3-1.1,1.3-1.5c0-0.1-0.1-0.1-0.2-0.1c-0.3,0-0.5,0.1-1.4,0.1c-0.6,0-0.9-0.1-1-0.1c-0.1,0-0.2,0.1-0.2,0.2
					c0,0.4,1.2,0.1,1.2,0.9c0,0.1,0,0.3-0.2,0.7l-1.1,2.1c-0.1,0.3-0.2,0.4-0.3,0.4c-0.1,0-0.2-0.2-0.4-0.6l-1.1-2.3
					c-0.1-0.3-0.2-0.5-0.2-0.6c0-0.4,0.7-0.3,0.7-0.6c0-0.1,0-0.2-0.2-0.2c-0.7,0.1-1.3,0.1-1.8,0.1c-0.6,0-0.9-0.1-1.1-0.1
					c-0.3,0-0.4,0-0.4,0.2c0,0.4,0.7,0.1,1.2,1L139.7,30.5L139.7,30.5z"/>
			</g>
		</g>
		<g>
			<g>
				<path fill-rule="evenodd" clip-rule="evenodd" fill="#353C47" d="M5.6,3.6c0-1.5,0-2.5,1.7-2.5c2.2,0,4,1.7,4,4.1
					c0,1.9-0.7,2.9-2.6,2.9H7.3C5.9,8,5.6,7.9,5.6,6.6V3.6L5.6,3.6z M2.6,15.3c0,2.5-2.1,1.8-2.1,2.7c0,0.4,0.2,0.4,0.8,0.4
					c0.5,0,1.2-0.1,1.7-0.1c1.2,0,2.5,0.1,6.1,0.1c4,0,6.3-2.2,6.3-5.7c0-2.3-0.9-3.7-3.9-4.6V8.1c1.7-0.6,2.7-2,2.7-3.7
					c0-0.6,0-4.5-6.1-4.5C6.1,0,4,0.1,1.9,0.1C0.8,0.1,0.6,0,0.4,0C0.3,0,0,0,0,0.4c0,1.3,2.6-0.2,2.6,3.4V15.3L2.6,15.3z M5.6,11.3
					c0-1.4,0-2,1.5-2c4.5,0,5.2,2.3,5.2,3.9c0,2.5-1.3,4.2-3.7,4.2c-2.4,0-3-0.7-3-3.2V11.3L5.6,11.3z"/>
			</g>
			<g>
				<path fill="#353C47" d="M20.5,5.9c0-2,1.5-1.2,1.5-1.9c0-0.3-0.1-0.3-0.7-0.3c-1.1,0-1.8,0.1-2.5,0.1c-0.7,0-1.5-0.1-2.2-0.1
					c-0.2,0-0.7-0.1-0.7,0.3c0,0.7,2.2,0.1,2.2,2v10c0,2-1.4,1.4-1.4,2.2c0,0.1,0,0.2,0.2,0.2c0.5,0,1.4-0.1,2.2-0.1
					c1.5,0,2.3,0.1,3,0.1c0.5,0,0.6-0.1,0.6-0.3c0-0.7-2.2,0.3-2.2-2.3V5.9L20.5,5.9z"/>
			</g>
			<g>
				<path fill="#353C47" d="M25.4,15.6c0,2.1-1.9,1.7-1.9,2.6c0,0.4,0.4,0.2,0.6,0.2c0.5,0,1.1-0.1,1.7-0.1c0.7,0,1.4,0.1,2.3,0.1
					c0.3,0,0.7,0,0.7-0.3c0-1-2.5,0.4-2.5-3.6V7.5c0-0.2,0-0.3,0.2-0.3c0.1,0,0.2,0.1,0.4,0.3l9.5,10.8c0.1,0.2,0.2,0.3,0.5,0.3
					c0.2,0,0.2-0.2,0.2-0.6V6.2c0-2.2,1.7-1.7,1.7-2.3c0-0.1,0-0.3-0.4-0.3c-0.2,0-0.9,0.1-2.1,0.1c-1.4,0-1.9-0.1-2.2-0.1
					c-0.3,0-0.3,0.2-0.3,0.4c0,0.7,2.4,0.3,2.4,2.2v6.9c0,0.5,0,0.8-0.2,0.8c-0.1,0-0.4-0.2-0.6-0.5l-7.9-9.2
					c-0.4-0.4-0.1-0.5-0.7-0.5c-1,0-1.6,0.1-2.1,0.1c-0.4,0-0.7-0.1-1.1-0.1c-0.2,0-0.3,0.2-0.3,0.4c0,1,2.2-0.4,2.2,3.6V15.6
					L25.4,15.6z"/>
			</g>
			<g>
				<path fill="#353C47" d="M52.1,5c0-0.3,0-0.8-0.3-0.8c-0.3,0-0.4,0.6-0.8,0.6c-0.5,0-2.2-1.4-4.9-1.4c-5,0-7,4.6-7,8.1
					c0,1.6,0.9,7,6.7,7c2.1,0,4.3-1,6.2-2c0.2-0.1,0.2-0.2,0.2-0.5c0-0.3-0.1-0.9-0.1-1.7c0-2.7,1.4-1.5,1.4-2.4
					c0-0.2-0.1-0.3-0.2-0.3c-0.7,0-1.4,0.1-2.1,0.1c-0.9,0-1.8-0.1-2.8-0.1c-0.3,0-1-0.2-1,0.4c0,0.8,2.3-0.6,2.3,2.6
					c0,1.2-0.1,3-3.6,3c-3.2,0-4.6-3.8-4.6-6.6c0-5.3,2.6-6.5,4.4-6.5c5.2,0,5.2,4.5,5.6,4.5c0.4,0,0.5-0.1,0.5-0.4V5L52.1,5z"/>
			</g>
			<g>
				<path fill="#353C47" d="M67.4,5.8c0-2,1.4-1.1,1.4-1.9c0-0.2-0.1-0.2-0.4-0.2c-0.8,0-1.6,0.1-2.6,0.1c-1.2,0-1.7-0.1-2.5-0.1
					c-0.3,0-0.5,0-0.5,0.3c0,0.6,2.2-0.1,2.2,2.1v2.9c0,0.5-0.1,0.9-0.7,0.9h-5.8C58.1,10,58,9.7,58,9.2V5.9C58,4,59.5,4.6,59.5,4
					c0-0.2-0.2-0.3-0.5-0.3c-0.6,0-1.4,0.1-2.5,0.1c-1,0-1.6-0.1-2.2-0.1c-0.4,0-1,0-1,0.3c0,0.8,2.2-0.1,2.2,2.1v9.3
					c0,2.6-1.7,1.8-1.7,2.7c0,0.3,0.2,0.3,0.4,0.3c1,0,1.8-0.1,2.6-0.1c1.4,0,2.1,0.1,2.9,0.1c0.6,0,0.6-0.2,0.6-0.3
					c0-0.8-2.4,0-2.4-2.6v-3.3c0-0.9,0.1-1.1,1-1.1h5.3c0.9,0,0.8,0.2,0.8,1.1V16c0,2-1.4,1.5-1.4,2.2c0,0.1,0.1,0.2,0.4,0.2
					c1,0,1.8-0.1,2.5-0.1c0.8,0,2,0.1,2.6,0.1c0.3,0,0.4,0,0.4-0.2c0-0.8-2,0-2-2.7V5.8L67.4,5.8z"/>
			</g>
			<g>
				<path fill-rule="evenodd" clip-rule="evenodd" fill="#353C47" d="M75.1,12.2c-0.4,0-0.6,0-0.6-0.2c0-0.3,0.1-0.5,0.2-0.8
					l1.5-3.7c0.1-0.2,0.2-0.2,0.2-0.2c0.1,0,0,0,0.2,0.2l1.6,3.8c0.1,0.2,0.2,0.5,0.2,0.8c0,0.2-0.3,0.2-0.6,0.2H75.1L75.1,12.2z
					 M78.4,13.3c0.5,0,0.6,0.2,1.3,1.8c0.2,0.6,0.4,0.9,0.4,1.4c0,1.3-1.4,1-1.4,1.6c0,0.3,0.3,0.2,0.6,0.2c0.6,0,1.3-0.1,2.2-0.1
					c1.3,0,1.8,0.1,2.5,0.1c0.5,0,0.7,0,0.7-0.3c0-0.7-1.1,0.1-1.7-1.4L77.6,4c-0.3-0.6-0.3-0.7-0.5-0.7c-0.3,0-0.4,0.4-0.5,0.7
					l-5.3,12.6c-0.5,1.2-1.5,1-1.5,1.5c0,0.3,0.3,0.2,0.6,0.2c0.6,0,1.1-0.1,1.7-0.1c0.6,0,1.2,0.1,1.9,0.1c0.4,0,1,0.1,1-0.3
					c0-0.6-2.1-0.2-2.1-1.7c0-0.5,0.3-1.2,0.4-1.6c0.5-1.4,0.9-1.5,1.2-1.5H78.4L78.4,13.3z"/>
			</g>
			<g>
				<path fill="#353C47" d="M88.1,9c0-0.1,0-0.5,0.1-0.5c0.1,0,0.2,0.2,0.2,0.4l3.8,9c0.1,0.2,0.2,0.6,0.5,0.6
					c0.3,0,0.4-0.3,0.5-0.6L97,9.6c0.3-0.7,0.5-1.1,0.6-1.1c0.1,0,0.1,0.3,0.2,0.9l0.3,6.3c0.1,2.3-1.4,1.6-1.4,2.3
					c0,0.4,0.5,0.3,0.9,0.3c0.5,0,0.9-0.1,2.2-0.1c0.6,0,1.1,0.1,1.7,0.1c0.7,0,0.9,0,0.9-0.4c0-0.8-1.8,0.1-1.9-2.6l-0.3-9.2
					C100,3.8,102,4.7,102,3.9c0-0.2,0-0.2-0.6-0.2c-0.6,0-0.9,0.1-1.3,0.1c-0.3,0-0.7-0.1-1.1-0.1c-0.4,0-0.4,0.3-0.5,0.4l-4.6,10.1
					c0,0.1-0.2,0.4-0.3,0.4c-0.1,0-0.2-0.1-0.3-0.3L89,4.3c-0.3-0.6-0.5-0.6-0.7-0.6c-0.6,0-1.4,0.1-1.8,0.1c-0.6,0-0.9-0.1-1.2-0.1
					c-0.1,0-0.2,0.2-0.2,0.3c0,0.9,2.1-0.1,2,3.4l-0.3,8.4c-0.1,2.2-1.7,1.7-1.7,2.4c0,0.1,0.1,0.3,0.4,0.3c0.3,0,1-0.1,1.9-0.1
					c0.9,0,1.3,0.1,2,0.1c0.5,0,0.5-0.2,0.5-0.3c0-0.9-2.2,0.4-2-3.2L88.1,9L88.1,9z"/>
			</g>
			<g>
				<path fill="#353C47" d="M108.1,15.7c0,2.5-2.2,1.5-2.2,2.3c0,0.5,0.3,0.4,0.7,0.4c0.8,0,1.4-0.1,2.8-0.1c1.3,0,2,0.1,2.8,0.1
					c0.6,0,1,0.1,1-0.4c0-0.6-2.5,0-2.5-2.5V6c0-1,0.2-1.1,1-1.1h1.7c2.3-0.1,1.6,2.2,2.4,2.2c0.5,0,0.3-0.8,0.3-1.1l-0.2-1.9
					c0-0.2,0-0.5-0.3-0.5c-1.8,0-3.2,0.1-6,0.1c-2.9,0-4.2-0.1-6-0.1C103,3.7,103,4,103,4.2l-0.3,2.7c0,0.3-0.2,0.7,0.3,0.7
					c0.9,0,0.3-2.7,2.5-2.7h1.7c0.8,0,1,0.1,1,1.1V15.7L108.1,15.7z"/>
			</g>
			<g>
				<path fill-rule="evenodd" clip-rule="evenodd" fill="#353C47" d="M116.2,11.5c0,4.2,2.7,7,6.6,7c6.3,0,7.5-5.1,7.5-8
					c0-4.4-2.9-7.1-6.8-7.1C118.8,3.5,116.2,7,116.2,11.5L116.2,11.5z M118.6,10.3c0-3,1-5.9,4.3-6c2.5,0,4.9,2.4,4.9,7
					c0,3.5-1.1,6.2-4.5,6.3C119.9,17.7,118.6,13.4,118.6,10.3L118.6,10.3z"/>
			</g>
			<g>
				<path fill="#353C47" d="M132.7,15.6c0,2.1-1.9,1.7-1.9,2.6c0,0.4,0.4,0.2,0.6,0.2c0.5,0,1.1-0.1,1.7-0.1c0.7,0,1.4,0.1,2.3,0.1
					c0.3,0,0.7,0,0.7-0.3c0-1-2.5,0.4-2.5-3.6V7.5c0-0.2,0-0.3,0.2-0.3c0.1,0,0.2,0.1,0.4,0.3l9.5,10.8c0.1,0.2,0.2,0.3,0.5,0.3
					c0.2,0,0.2-0.2,0.2-0.6V6.2c0-2.2,1.7-1.7,1.7-2.3c0-0.1,0-0.3-0.4-0.3c-0.2,0-0.9,0.1-2.1,0.1c-1.4,0-1.9-0.1-2.2-0.1
					c-0.3,0-0.3,0.2-0.3,0.4c0,0.7,2.4,0.3,2.4,2.2v6.9c0,0.5,0,0.8-0.2,0.8c-0.1,0-0.4-0.2-0.6-0.5l-7.9-9.2
					c-0.4-0.4-0.1-0.5-0.7-0.5c-1,0-1.6,0.1-2.1,0.1c-0.4,0-0.7-0.1-1.1-0.1c-0.2,0-0.3,0.2-0.3,0.4c0,1,2.2-0.4,2.2,3.6V15.6
					L132.7,15.6z"/>
			</g>
		</g>
		<g>
			<g>
				<path fill="#353C47" d="M10.1,44.8C10,44.3,9.7,44,9.2,44c-0.6,0-0.8,0.4-0.8,0.7c0,0.3,0.2,0.5,0.6,0.7l0.5,0.2
					c0.7,0.3,1,0.7,1,1.2c0,0.7-0.6,1.2-1.4,1.2c-0.8,0-1.3-0.4-1.4-1.3h0.5c0,0.5,0.3,0.8,0.9,0.8c0.5,0,0.8-0.3,0.8-0.7
					c0-0.3-0.3-0.6-0.7-0.7l-0.6-0.2c-0.6-0.2-1-0.6-1-1.2c0-0.7,0.6-1.2,1.3-1.2c0.7,0,1.3,0.4,1.3,1.3H10.1z"/>
			</g>
			<g>
				<path fill="#353C47" d="M13.3,44.1h-1.1v-0.5h2.7v0.5h-1.1v3.8h-0.5V44.1z"/>
			</g>
			<g>
				<path fill="#353C47" d="M18.9,46.9h-2l-0.4,1h-0.6l1.8-4.3h0.5l1.8,4.3h-0.6L18.9,46.9z M17.9,44.3l-0.8,2.1h1.6L17.9,44.3z"/>
			</g>
			<g>
				<path fill="#353C47" d="M22,44.1h-1.1v-0.5h2.7v0.5h-1.1v3.8H22V44.1z"/>
			</g>
			<g>
				<path fill="#353C47" d="M25.7,43.6h2.2v0.5h-1.7v1.4h1.7V46h-1.7v1.4h1.7v0.5h-2.2V43.6z"/>
			</g>
			<g>
				<path fill="#353C47" d="M33.9,43.6h0.5v2.6c0,0.7,0.4,1.3,1.2,1.3c0.8,0,1.2-0.6,1.2-1.3v-2.6h0.5v2.8c0,0.9-0.7,1.6-1.7,1.6
					c-1,0-1.7-0.7-1.7-1.6V43.6z"/>
			</g>
			<g>
				<path fill="#353C47" d="M42.1,43.6h0.5v4.3h-0.5l-2.3-3.4h0v3.4h-0.5v-4.3h0.5l2.3,3.4h0V43.6z"/>
			</g>
			<g>
				<path fill="#353C47" d="M45,43.6h0.5v4.3H45V43.6z"/>
			</g>
			<g>
				<path fill="#353C47" d="M50.7,43.6h0.6l-1.6,4.3h-0.5l-1.6-4.3h0.6l1.2,3.5h0L50.7,43.6z"/>
			</g>
			<g>
				<path fill="#353C47" d="M53,43.6h2.2v0.5h-1.7v1.4h1.7V46h-1.7v1.4h1.7v0.5H53V43.6z"/>
			</g>
			<g>
				<path fill="#353C47" d="M58.1,46.1v1.8h-0.5v-4.3h1.2c0.8,0,1.5,0.5,1.5,1.3c0,0.8-0.6,1.3-1.3,1.3l1.7,1.7h-0.8L58.1,46.1z
					 M58.1,45.7c0.1,0,0.2,0,0.5,0c0.8,0,1.1-0.4,1.1-0.8c0-0.5-0.3-0.8-0.9-0.8h-0.7V45.7z"/>
			</g>
			<g>
				<path fill="#353C47" d="M64.3,44.8C64.3,44.3,64,44,63.5,44c-0.6,0-0.8,0.4-0.8,0.7c0,0.3,0.2,0.5,0.6,0.7l0.5,0.2
					c0.7,0.3,1,0.7,1,1.2c0,0.7-0.6,1.2-1.4,1.2c-0.8,0-1.3-0.4-1.4-1.3h0.5c0,0.5,0.3,0.8,0.9,0.8c0.5,0,0.8-0.3,0.8-0.7
					c0-0.3-0.3-0.6-0.7-0.7l-0.6-0.2c-0.6-0.2-1-0.6-1-1.2c0-0.7,0.6-1.2,1.3-1.2c0.7,0,1.3,0.4,1.3,1.3H64.3z"/>
			</g>
			<g>
				<path fill="#353C47" d="M67.1,43.6h0.5v4.3h-0.5V43.6z"/>
			</g>
			<g>
				<path fill="#353C47" d="M70.6,44.1h-1.1v-0.5h2.7v0.5h-1.1v3.8h-0.5V44.1z"/>
			</g>
			<g>
				<path fill="#353C47" d="M76.4,43.6h0.6l-1.5,2.6v1.7H75v-1.7l-1.5-2.6h0.6l1.1,2L76.4,43.6z"/>
			</g>
			<g>
				<path fill="#353C47" d="M85.3,43.5c1.5,0,2.3,1.2,2.3,2.2c0,1.1-0.8,2.2-2.3,2.2c-1.5,0-2.3-1.2-2.3-2.2
					C83,44.7,83.8,43.5,85.3,43.5z M85.3,47.5c0.9,0,1.7-0.7,1.7-1.7c0-1-0.8-1.7-1.7-1.7c-0.9,0-1.7,0.7-1.7,1.7
					C83.6,46.8,84.4,47.5,85.3,47.5z"/>
			</g>
			<g>
				<path fill="#353C47" d="M89.6,43.6h2.2v0.5h-1.7v1.4h1.7V46h-1.7v1.9h-0.5V43.6z"/>
			</g>
			<g>
				<path fill="#353C47" d="M101.1,43.6h0.5v4.3h-0.5l-2.3-3.4h0v3.4h-0.5v-4.3h0.5l2.3,3.4h0V43.6z"/>
			</g>
			<g>
				<path fill="#353C47" d="M103.9,43.6h2.2v0.5h-1.7v1.4h1.7V46h-1.7v1.4h1.7v0.5h-2.2V43.6z"/>
			</g>
			<g>
				<path fill="#353C47" d="M112.9,43.6h0.6l-1.3,4.3h-0.4l-1-3.4h0l-1,3.4h-0.4l-1.3-4.3h0.6l1,3.3h0l1-3.3h0.5l1,3.3h0L112.9,43.6
					z"/>
			</g>
			<g>
				<path fill="#353C47" d="M122,43.6h0.6l-1.5,2.6v1.7h-0.5v-1.7l-1.5-2.6h0.6l1.1,2L122,43.6z"/>
			</g>
			<g>
				<path fill="#353C47" d="M126.1,43.5c1.5,0,2.3,1.2,2.3,2.2c0,1.1-0.8,2.2-2.3,2.2c-1.5,0-2.3-1.2-2.3-2.2
					C123.8,44.7,124.6,43.5,126.1,43.5z M126.1,47.5c0.9,0,1.7-0.7,1.7-1.7c0-1-0.8-1.7-1.7-1.7c-0.9,0-1.7,0.7-1.7,1.7
					C124.3,46.8,125.2,47.5,126.1,47.5z"/>
			</g>
			<g>
				<path fill="#353C47" d="M130.9,46.1v1.8h-0.5v-4.3h1.2c0.8,0,1.5,0.5,1.5,1.3c0,0.8-0.6,1.3-1.3,1.3l1.7,1.7h-0.8L130.9,46.1z
					 M130.9,45.7c0.1,0,0.2,0,0.5,0c0.8,0,1.1-0.4,1.1-0.8c0-0.5-0.3-0.8-0.9-0.8h-0.7V45.7z"/>
			</g>
			<g>
				<path fill="#353C47" d="M137.7,43.6h0.7l-1.9,2.1l2,2.2h-0.8l-1.7-2v2h-0.5v-4.3h0.5v2L137.7,43.6z"/>
			</g>
		</g>
	</g>
</g>
</svg>
