<?xml version="1.0" encoding="utf-8"?>
<!-- Generator: Adobe Illustrator 18.1.1, SVG Export Plug-In . SVG Version: 6.00 Build 0)  -->
<!DOCTYPE svg PUBLIC "-//W3C//DTD SVG 1.1//EN" "http://www.w3.org/Graphics/SVG/1.1/DTD/svg11.dtd">
<svg version="1.1" id="Layer_1" xmlns="http://www.w3.org/2000/svg" xmlns:xlink="http://www.w3.org/1999/xlink" x="0px" y="0px"
	 viewBox="0 0 509.7 509.7" enable-background="new 0 0 509.7 509.7" xml:space="preserve">
<rect y="0" fill="#353C47" width="509.7" height="509.7"/>
<g>
	<path fill="#FFFFFF" d="M147.6,340.5h-38c-2.8,0-5,2.3-5,5v36.4h5h3.2v-31c0-1.8,1.5-3.3,3.3-3.3h25c1.8,0,3.3,1.5,3.3,3.3v31h8.2
		v-36.4C152.6,342.7,150.4,340.5,147.6,340.5"/>
	<path fill="#FFFFFF" d="M451.5,340.4h-38c-2.8,0-5.1,2.3-5.1,5v31.3c0,2.8,2.3,5.1,5.1,5.1h43v-7.1H420c-1.8,0-3.3-1.5-3.3-3.3
		v-6.8h39.9v-0.1v-19.1C456.6,342.7,454.3,340.4,451.5,340.4 M416.7,357.6v-6.8c0-1.8,1.5-3.3,3.3-3.3h25c1.8,0,3.3,1.5,3.3,3.3v6.8
		H416.7z"/>
	<path fill="#FFFFFF" d="M199.7,340.5l-10.1,31c-0.7,1.9-1.5,3.3-3.3,3.3h-4.4c-1.8,0-2.6-1.5-3.3-3.3l-10.1-31h-3.2h-5l11.2,36.4
		c1.1,3.3,2.3,5,5.1,5h15c2.8,0,4-1.7,5.1-5l11.2-36.4H199.7z"/>
	<rect x="215.9" y="340.5" fill="#FFFFFF" width="8.2" height="41.4"/>
	<path fill="#FFFFFF" d="M277,357.7h-31.4c-1.8,0-3.3-1.5-3.3-3.3v-3.6c0-1.8,1.5-3.3,3.3-3.3H282v-7h-42.8c-2.8,0-5,2.2-5,5v14.2
		c0,2.8,2.2,5,5,5h31.4c1.8,0,3.3,1.5,3.3,3.3v3.5c0,1.8-1.5,3.3-3.3,3.3h-36.3h-0.1v7H277c2.8,0,5-2.3,5-5v-14.1
		C282,359.9,279.8,357.7,277,357.7"/>
	<path fill="#FFFFFF" d="M89.4,340.5h-38c-2.8,0-5,2.3-5,5v31.3c0,2.8,2.2,5,5,5h43v-7.1H57.9c-1.8,0-3.3-1.5-3.3-3.3v-6.8h39.9
		v-0.1v-19.1C94.5,342.7,92.2,340.5,89.4,340.5 M86.2,357.6H54.6v-6.8c0-1.8,1.5-3.3,3.3-3.3h25c1.8,0,3.3,1.5,3.3,3.3V357.6z"/>
	<path fill="#FFFFFF" d="M355.4,340.4c-2.8,0-5,2.3-5,5.1v31.3c0,2.8,2.2,5.1,5,5.1h38c2.8,0,5.1-2.3,5.1-5.1v-19.3h-24v7.3h15.8
		v6.7c0,1.8-1.5,3.3-3.3,3.3h-25c-1.8,0-3.3-1.5-3.3-3.3v-20.6c0-1.8,1.5-3.3,3.3-3.3h36.5v-7.1H355.4z"/>
	<path fill="#FFFFFF" d="M335.2,340.5h-38c-2.8,0-5,2.3-5,5v36.4h8.2V371H332v10.9h8.2v-36.4C340.2,342.7,337.9,340.5,335.2,340.5
		 M332,364.5h-31.7v-13.7c0-1.8,1.5-3.3,3.3-3.3h25c1.8,0,3.3,1.5,3.3,3.3V364.5z"/>
	<path fill="#FFFFFF" d="M177.5,300.8c0.7,0.7,1.5,1.3,2.3,1.9c0.8,0.6,1.7,1,2.7,1.4c1.9,0.8,4,1.2,6,1.2h160l-137.7-37.9
		L177.5,300.8z"/>
	<path fill="#FFFFFF" d="M344.3,124.8h-160c-2.1,0-4.2,0.4-6.1,1.2c-0.9,0.4-1.8,0.9-2.7,1.5c-0.8,0.6-1.6,1.2-2.3,1.9
		c-0.7,0.7-1.4,1.5-1.9,2.3c-0.6,0.8-1.1,1.8-1.5,2.7c-0.8,1.9-1.2,4-1.2,6.1v144.2c0,1.1,0.1,2.2,0.3,3.2c0.2,1,0.5,2,1,3
		c0.4,0.9,0.9,1.9,1.5,2.7c0.6,0.8,1.3,1.6,2,2.4L344.3,124.8z"/>
</g>
</svg>
