<?xml version="1.0" encoding="UTF-8" standalone="no"?>
<svg width="528px" height="91px" viewBox="0 0 528 91" version="1.1" xmlns="http://www.w3.org/2000/svg" xmlns:xlink="http://www.w3.org/1999/xlink" xmlns:sketch="http://www.bohemiancoding.com/sketch/ns">
    <!-- Generator: Sketch 3.5.1 (25234) - http://www.bohemiancoding.com/sketch -->
    <title>lockheed-martin</title>
    <desc>Created with Sketch.</desc>
    <defs></defs>
    <g id="Page-1" stroke="none" stroke-width="1" fill="none" fill-rule="evenodd" sketch:type="MSPage">
        <g id="lockheed-martin" sketch:type="MSLayerGroup" transform="translate(-3.000000, -3.000000)" fill="#353C47">
            <g id="Page-1" sketch:type="MSShapeGroup">
                <g id="lockheed-martin">
                    <g id="g3" transform="translate(1.636068, 1.874709)">
                        <path d="M529.096177,36.8592619 L490.481711,36.8592619 L500.037815,1.56018039 L467.274029,36.8592619 L313.401237,36.8592619 C313.401237,36.8592619 312.816169,36.8592619 312.816169,37.2493069 C312.816169,37.4443294 313.011191,37.6393521 313.401237,37.6393521 L464.348689,39.9796226 L445.431503,60.4569903 C445.431503,60.4569903 445.041457,60.8470353 445.23648,61.042058 C445.431503,61.2370805 445.626526,61.042058 445.821549,60.8470353 L467.274029,40.1746451 L486.386238,40.5646903 L482.680811,56.9465843 L420.858662,90.2954404 C420.858662,90.2954404 420.468617,90.4904629 420.663639,90.6854854 C420.858662,90.8805079 421.053683,90.8805079 421.248706,90.6854854 L482.095742,60.4569903 L475.269952,91.4655757 C475.269952,91.4655757 475.074931,92.0506432 475.464975,92.0506432 C475.659998,92.0506432 475.855021,91.8556207 475.855021,91.6605982 L484.631036,59.0918325 L529.096177,36.8592619 L529.096177,36.8592619 L529.096177,36.8592619 Z M470.589412,36.8592619 L491.846869,16.3818941 L487.36135,36.8592619 L470.589412,36.8592619 L470.589412,36.8592619 L470.589412,36.8592619 Z M489.506598,40.3696676 L512.51926,40.7597129 L485.606148,55.3864041 L489.506598,40.3696676 L489.506598,40.3696676 L489.506598,40.3696676 Z" id="path5"></path>
                        <path d="M5.07058628,48.5606148 L11.701353,48.5606148 L9.16605982,60.8470353 L15.2117588,60.8470353 L14.2366461,65.5275765 L1.36515785,65.5275765 L5.07058628,48.5606148" id="polyline7"></path>
                        <path d="M35.1040589,56.9465843 C35.8841491,53.0461333 36.8592619,52.4610658 37.8343746,52.4610658 C39.0045099,52.4610658 39.5895776,53.0461333 38.6144649,56.9465843 C37.8343746,60.8470353 36.8592619,61.432103 35.8841491,61.432103 C34.9090364,61.432103 34.3239686,60.8470353 35.1040589,56.9465843 L35.1040589,56.9465843 L35.1040589,56.9465843 Z M28.2782697,56.9465843 C27.1081344,62.2121933 29.2533824,65.9176218 35.1040589,65.9176218 C40.9547354,65.9176218 44.6601638,62.2121933 45.8302991,56.9465843 C47.0004343,51.6809756 44.8551863,47.9755471 39.0045099,47.9755471 C32.9588109,48.1705696 29.2533824,51.6809756 28.2782697,56.9465843 L28.2782697,56.9465843 L28.2782697,56.9465843 Z" id="path9"></path>
                        <path d="M74.4986138,59.286855 C73.523501,63.9673963 69.4280275,65.9176218 65.1375315,65.9176218 C59.286855,65.9176218 57.141607,62.2121933 58.3117423,56.9465843 C59.286855,51.6809756 63.187306,48.1705696 68.84296,48.1705696 C73.133456,48.1705696 76.4488393,49.9257726 75.278704,54.8013363 L69.0379825,54.8013363 C69.4280275,52.8511108 68.6479373,52.4610658 67.8678473,52.4610658 C66.1126443,52.4610658 65.5275765,54.2162688 64.942509,56.9465843 C64.3574413,59.4818775 64.1624188,61.432103 65.722599,61.432103 C66.5026893,61.432103 67.2827795,60.8470353 67.6728245,59.0918325 L74.4986138,59.0918325" id="path11"></path>
                        <path d="M91.4655757,48.5606148 L98.0963424,48.5606148 L96.5361619,55.7764491 L96.5361619,55.7764491 L101.606748,48.5606148 L108.62756,48.5606148 L102.386838,56.5565393 L105.702222,65.5275765 L98.4863874,65.5275765 L96.1461169,57.9216971 L96.1461169,57.9216971 L94.3909139,65.5275765 L87.9551697,65.5275765 L91.4655757,48.5606148" id="polyline13"></path>
                        <path d="M130.275063,59.286855 L127.349725,59.286855 L125.984567,65.5275765 L119.3538,65.5275765 L122.864206,48.5606148 L129.689995,48.5606148 L128.324838,54.2162688 L131.250176,54.2162688 L132.420311,48.5606148 L139.2461,48.5606148 L135.540672,65.5275765 L128.909905,65.5275765 L130.275063,59.286855" id="polyline15"></path>
                        <path d="M154.847904,48.5606148 L167.719392,48.5606148 L166.74428,53.0461333 L160.308535,53.0461333 L159.91849,54.8013363 L165.964189,54.8013363 L164.989077,59.0918325 L158.943378,59.0918325 L158.553333,61.042058 L165.184099,61.042058 L164.208986,65.5275765 L151.142476,65.5275765 L154.847904,48.5606148" id="polyline17"></path>
                        <path d="M183.711241,48.5606148 L196.58273,48.5606148 L195.607617,53.0461333 L189.171873,53.0461333 L188.781828,54.8013363 L194.827527,54.8013363 L193.852414,59.0918325 L187.806715,59.0918325 L187.41667,61.042058 L194.242459,61.042058 L193.267346,65.5275765 L180.200836,65.5275765 L183.711241,48.5606148" id="polyline19"></path>
                        <path d="M218.425254,52.4610658 L219.010323,52.4610658 C220.180459,52.4610658 220.570502,52.8511108 220.960548,53.6312011 C221.155571,54.4112913 221.155571,55.5814266 220.765525,57.141607 C220.375482,58.7017873 219.985436,60.0669453 219.400367,60.6520128 C218.8153,61.2370805 218.035211,61.8221481 217.060098,61.8221481 L216.475029,61.8221481 L218.425254,52.4610658 L218.425254,52.4610658 L218.425254,52.4610658 Z M209.064173,65.5275765 L217.450142,65.5275765 C222.71575,65.5275765 226.616203,62.4072158 227.786338,57.3366295 C228.956474,52.2660433 227.396292,48.7556373 220.765525,48.7556373 L212.769601,48.7556373 L209.064173,65.5275765 L209.064173,65.5275765 L209.064173,65.5275765 Z" id="path21"></path>
                        <path d="M272.446502,53.4361786 L272.446502,53.4361786 L267.375915,65.5275765 L261.330217,65.5275765 L261.525239,53.4361786 L261.330217,53.4361786 L258.794923,65.5275765 L253.139268,65.5275765 L256.649675,48.5606148 L266.010756,48.5606148 L265.815735,58.7017873 L265.815735,58.7017873 L269.716186,48.5606148 L279.077267,48.5606148 L275.566863,65.5275765 L269.911209,65.5275765 L272.446502,53.4361786" id="polyline23"></path>
                        <path d="M298.774545,58.7017873 L301.504862,52.2660433 L301.504862,52.2660433 L301.504862,58.7017873 L298.774545,58.7017873 L298.774545,58.7017873 L298.774545,58.7017873 Z M289.218441,65.5275765 L295.654185,65.5275765 L296.82432,62.7972608 L301.699885,62.7972608 L301.699885,65.5275765 L308.720695,65.5275765 L306.965493,48.5606148 L298.189478,48.5606148 L289.218441,65.5275765 L289.218441,65.5275765 L289.218441,65.5275765 Z" id="path25"></path>
                        <path d="M332.318423,55.5814266 L333.098515,52.4610658 L333.488559,52.4610658 C334.853717,52.4610658 335.633807,52.6560883 335.243763,54.0212461 C335.04874,55.3864041 333.878605,55.7764491 332.708469,55.7764491 L332.318423,55.7764491 L332.318423,55.5814266 L332.318423,55.5814266 Z M323.542409,65.5275765 L330.173175,65.5275765 L331.343311,59.4818775 L332.123401,59.4818775 C333.293536,59.4818775 333.488559,59.8719226 333.488559,60.6520128 C333.488559,62.0171708 333.098515,64.1624188 333.293536,65.5275765 L339.924303,65.5275765 C339.72928,62.9922835 340.314349,60.6520128 340.119326,59.0918325 C340.119326,57.7266746 339.339236,57.141607 337.779055,56.9465843 L337.779055,56.9465843 C340.509372,56.3615168 341.679507,54.8013363 342.069551,52.8511108 C342.849643,49.7307501 340.899415,48.5606148 337.193988,48.5606148 L327.247838,48.5606148 L323.542409,65.5275765 L323.542409,65.5275765 L323.542409,65.5275765 Z" id="path27"></path>
                        <path d="M361.181762,53.0461333 L357.086287,53.0461333 L358.061402,48.5606148 L373.078138,48.5606148 L372.103025,53.0461333 L368.00755,53.0461333 L365.277235,65.5275765 L358.646468,65.5275765 L361.181762,53.0461333" id="polyline29"></path>
                        <path d="M388.484917,48.5606148 L395.310707,48.5606148 L391.60528,65.5275765 L384.974513,65.5275765 L388.484917,48.5606148" id="polyline31"></path>
                        <path d="M411.497579,48.5606148 L419.688527,48.5606148 L421.053683,58.7017873 L421.053683,58.7017873 L423.198931,48.5606148 L428.659563,48.5606148 L425.149158,65.5275765 L417.153233,65.5275765 L415.593052,55.1913815 L415.593052,55.1913815 L413.447804,65.5275765 L407.987172,65.5275765 L411.497579,48.5606148" id="polyline33"></path>
                    </g>
                </g>
            </g>
        </g>
    </g>
</svg>