<?xml version="1.0" encoding="utf-8"?>
<!-- Generator: Adobe Illustrator 18.1.1, SVG Export Plug-In . SVG Version: 6.00 Build 0)  -->
<!DOCTYPE svg PUBLIC "-//W3C//DTD SVG 1.1//EN" "http://www.w3.org/Graphics/SVG/1.1/DTD/svg11.dtd">
<svg version="1.1" id="Layer_1" xmlns:svg="http://www.w3.org/2000/svg"
	 xmlns="http://www.w3.org/2000/svg" xmlns:xlink="http://www.w3.org/1999/xlink" x="0px" y="0px" viewBox="-152 193.6 270.5 46.4"
	 enable-background="new -152 193.6 270.5 46.4" xml:space="preserve">
<g id="g3" transform="matrix(0.9141682,0,0,0.9141682,12.432996,1.9892794)">
	<path id="path5" fill="#353C47" d="M104.3,229.9H84.5l4.9-18.1l-16.8,18.1H-6.3c0,0-0.3,0-0.3,0.2c0,0.1,0.1,0.2,0.3,0.2l77.4,1.2
		L61.4,242c0,0-0.2,0.2-0.1,0.3c0.1,0.1,0.2,0,0.3-0.1l11-10.6l9.8,0.2l-1.9,8.4l-31.7,17.1c0,0-0.2,0.1-0.1,0.2
		c0.1,0.1,0.2,0.1,0.3,0l31.2-15.5l-3.5,15.9c0,0-0.1,0.3,0.1,0.3c0.1,0,0.2-0.1,0.2-0.2l4.5-16.7L104.3,229.9 M74.3,229.9
		l10.9-10.5l-2.3,10.5H74.3z M84,231.7l11.8,0.2L82,239.4L84,231.7z"/>
	<polyline id="polyline7" fill="#353C47" points="-164.4,235.9 -161,235.9 -162.3,242.2 -159.2,242.2 -159.7,244.6 -166.3,244.6 
		-164.4,235.9 	"/>
	<path id="path9" fill="#353C47" d="M-149,240.2c0.4-2,0.9-2.3,1.4-2.3c0.6,0,0.9,0.3,0.4,2.3c-0.4,2-0.9,2.3-1.4,2.3
		C-149.1,242.5-149.4,242.2-149,240.2 M-152.5,240.2c-0.6,2.7,0.5,4.6,3.5,4.6c3,0,4.9-1.9,5.5-4.6c0.6-2.7-0.5-4.6-3.5-4.6
		C-150.1,235.7-152,237.5-152.5,240.2z"/>
	<path id="path11" fill="#353C47" d="M-128.8,241.4c-0.5,2.4-2.6,3.4-4.8,3.4c-3,0-4.1-1.9-3.5-4.6c0.5-2.7,2.5-4.5,5.4-4.5
		c2.2,0,3.9,0.9,3.3,3.4h-3.2c0.2-1-0.2-1.2-0.6-1.2c-0.9,0-1.2,0.9-1.5,2.3c-0.3,1.3-0.4,2.3,0.4,2.3c0.4,0,0.8-0.3,1-1.2H-128.8"
		/>
	<polyline id="polyline13" fill="#353C47" points="-120.1,235.9 -116.7,235.9 -117.5,239.6 -117.5,239.6 -114.9,235.9 -111.3,235.9 
		-114.5,240 -112.8,244.6 -116.5,244.6 -117.7,240.7 -117.7,240.7 -118.6,244.6 -121.9,244.6 -120.1,235.9 	"/>
	<polyline id="polyline15" fill="#353C47" points="-100.2,241.4 -101.7,241.4 -102.4,244.6 -105.8,244.6 -104,235.9 -100.5,235.9 
		-101.2,238.8 -99.7,238.8 -99.1,235.9 -95.6,235.9 -97.5,244.6 -100.9,244.6 -100.2,241.4 	"/>
	<polyline id="polyline17" fill="#353C47" points="-87.6,235.9 -81,235.9 -81.5,238.2 -84.8,238.2 -85,239.1 -81.9,239.1 
		-82.4,241.3 -85.5,241.3 -85.7,242.3 -82.3,242.3 -82.8,244.6 -89.5,244.6 -87.6,235.9 	"/>
	<polyline id="polyline19" fill="#353C47" points="-72.8,235.9 -66.2,235.9 -66.7,238.2 -70,238.2 -70.2,239.1 -67.1,239.1 
		-67.6,241.3 -70.7,241.3 -70.9,242.3 -67.4,242.3 -67.9,244.6 -74.6,244.6 -72.8,235.9 	"/>
	<path id="path21" fill="#353C47" d="M-55,237.9h0.3c0.6,0,0.8,0.2,1,0.6c0.1,0.4,0.1,1-0.1,1.8c-0.2,0.8-0.4,1.5-0.7,1.8
		c-0.3,0.3-0.7,0.6-1.2,0.6H-56L-55,237.9 M-59.8,244.6h4.3c2.7,0,4.7-1.6,5.3-4.2c0.6-2.6-0.2-4.4-3.6-4.4h-4.1L-59.8,244.6z"/>
	<polyline id="polyline23" fill="#353C47" points="-27.3,238.4 -27.3,238.4 -29.9,244.6 -33,244.6 -32.9,238.4 -33,238.4 
		-34.3,244.6 -37.2,244.6 -35.4,235.9 -30.6,235.9 -30.7,241.1 -30.7,241.1 -28.7,235.9 -23.9,235.9 -25.7,244.6 -28.6,244.6 
		-27.3,238.4 	"/>
	<path id="path25" fill="#353C47" d="M-13.8,241.1l1.4-3.3h0v3.3H-13.8 M-18.7,244.6h3.3l0.6-1.4h2.5l0,1.4h3.6l-0.9-8.7h-4.5
		L-18.7,244.6z"/>
	<path id="path27" fill="#353C47" d="M3.4,239.5l0.4-1.6H4c0.7,0,1.1,0.1,0.9,0.8c-0.1,0.7-0.7,0.9-1.3,0.9H3.4 M-1.1,244.6h3.4
		l0.6-3.1h0.4c0.6,0,0.7,0.2,0.7,0.6c0,0.7-0.2,1.8-0.1,2.5h3.4c-0.1-1.3,0.2-2.5,0.1-3.3c0-0.7-0.4-1-1.2-1.1v0
		c1.4-0.3,2-1.1,2.2-2.1c0.4-1.6-0.6-2.2-2.5-2.2H0.8L-1.1,244.6z"/>
	<polyline id="polyline29" fill="#353C47" points="18.2,238.2 16.1,238.2 16.6,235.9 24.3,235.9 23.8,238.2 21.7,238.2 20.3,244.6 
		16.9,244.6 18.2,238.2 	"/>
	<polyline id="polyline31" fill="#353C47" points="32.2,235.9 35.7,235.9 33.8,244.6 30.4,244.6 32.2,235.9 	"/>
	<polyline id="polyline33" fill="#353C47" points="44,235.9 48.2,235.9 48.9,241.1 48.9,241.1 50,235.9 52.8,235.9 51,244.6 
		46.9,244.6 46.1,239.3 46.1,239.3 45,244.6 42.2,244.6 44,235.9 	"/>
</g>
</svg>
