<?xml version="1.0" encoding="utf-8"?>
<!-- Generator: Adobe Illustrator 18.1.1, SVG Export Plug-In . SVG Version: 6.00 Build 0)  -->
<!DOCTYPE svg PUBLIC "-//W3C//DTD SVG 1.1//EN" "http://www.w3.org/Graphics/SVG/1.1/DTD/svg11.dtd">
<svg version="1.1" id="Layer_1" xmlns="http://www.w3.org/2000/svg" xmlns:xlink="http://www.w3.org/1999/xlink" x="0px" y="0px"
	 viewBox="-177.1 193 112.1 48" enable-background="new -177.1 193 112.1 48" xml:space="preserve">
<g id="guides">
</g>
<g id="Layer_2">
	<g>
		<g>
			<g>
				<defs>
					<rect id="SVGID_1_" x="-177.1" y="193" width="111.8" height="47.7"/>
				</defs>
				<clipPath id="SVGID_2_">
					<use xlink:href="#SVGID_1_"  overflow="visible"/>
				</clipPath>
				<path clip-path="url(#SVGID_2_)" fill="#353C47" d="M-177,230.5c0,0.7,0.4,1,1,1h7.6c0.7,0,1-0.4,1-1v-28.2h-9.7
					C-177,202.4-177,230.5-177,230.5z M-161.2,230.5c0,0.3,0.1,0.5,0.3,0.7c0.2,0.2,0.4,0.3,0.7,0.3h6.9c0.3,0,0.5-0.1,0.7-0.3
					c0.2-0.2,0.3-0.5,0.3-0.7v-28.2h-9V230.5z M-146,202.4v28.2c0,0.3,0.1,0.5,0.3,0.7c0.2,0.2,0.4,0.3,0.7,0.3h7.7
					c0.3,0,0.5-0.1,0.7-0.3c0.2-0.2,0.3-0.5,0.3-0.7v-28.2H-146"/>
			</g>
			<g>
				<defs>
					<rect id="SVGID_3_" x="-177.1" y="193" width="111.8" height="47.7"/>
				</defs>
				<clipPath id="SVGID_4_">
					<use xlink:href="#SVGID_3_"  overflow="visible"/>
				</clipPath>
				<path clip-path="url(#SVGID_4_)" fill="#353C47" d="M-119.6,194v37.5h-8.7c-0.7,0-1-0.3-1-1V194c0-0.7,0.3-1,1-1h7.6
					C-119.9,193-119.6,193.4-119.6,194"/>
			</g>
			<g>
				<defs>
					<rect id="SVGID_5_" x="-177.1" y="193" width="111.8" height="47.7"/>
				</defs>
				<clipPath id="SVGID_6_">
					<use xlink:href="#SVGID_5_"  overflow="visible"/>
				</clipPath>
				<path clip-path="url(#SVGID_6_)" fill="#353C47" d="M-87.7,194v37.5h-8.7c-0.7,0-1-0.3-1-1V194c0-0.7,0.3-1,1-1h7.6
					C-88,193-87.7,193.4-87.7,194"/>
			</g>
			<g>
				<defs>
					<rect id="SVGID_7_" x="-177.1" y="193" width="111.8" height="47.7"/>
				</defs>
				<clipPath id="SVGID_8_">
					<use xlink:href="#SVGID_7_"  overflow="visible"/>
				</clipPath>
				<path clip-path="url(#SVGID_8_)" fill="#353C47" d="M-64.9,194v37.5h-8.7c-0.7,0-1-0.3-1-1V194c0-0.7,0.3-1,1-1h7.6
					C-65.3,193-64.9,193.4-64.9,194"/>
			</g>
		</g>
		<path fill="#353C47" d="M-136.3,199.4v2.9H-177V194c0-0.7,0.4-1,1-1h33.2c0.9,0,1.7,0.2,2.5,0.5c0.8,0.3,1.5,0.8,2,1.4
			c0.6,0.6,1,1.2,1.4,2C-136.5,197.7-136.3,198.6-136.3,199.4"/>
		<path fill="#353C47" d="M-103.4,223.3v7.3c0,0.3-0.1,0.5-0.3,0.7c-0.2,0.2-0.4,0.3-0.7,0.3h-15.2v-9.4h15.2c0.3,0,0.5,0.1,0.7,0.3
			C-103.5,222.7-103.4,223-103.4,223.3"/>
		<g>
			<rect x="-87.7" y="207.4" fill="#353C47" width="13" height="9.4"/>
			<path fill="#353C47" d="M-170.8,235.9c0,0,0,0.1,0,0.1c0,0.1,0,0.1,0,0.2v4.6c0,0,0,0.1,0,0.1c0,0-0.1,0-0.1,0h-1.2
				c0,0-0.1,0-0.1,0c0,0,0-0.1,0-0.1v-4.3h-1v4.3c0,0,0,0.1,0,0.1c0,0-0.1,0-0.1,0h-1.1c0,0-0.1,0-0.1,0c0,0,0-0.1,0-0.1v-4.3h-1
				v4.3c0,0.1-0.1,0.2-0.2,0.2h-1.2c-0.1,0-0.2-0.1-0.2-0.2v-5.6c0,0,0-0.1,0-0.1c0,0,0.1-0.1,0.1-0.1h5c0,0,0.1,0,0.2,0
				c0.1,0,0.1,0,0.1,0L-170.8,235.9z M-164.5,235.9c0,0,0,0.1,0,0.2c0,0.1,0,0.1,0,0.2v4.6c0,0,0,0.1,0,0.1c0,0-0.1,0-0.1,0h-1.2
				c0,0-0.1,0-0.1,0c0,0,0-0.1,0-0.1v-1.5c0,0,0-0.1,0-0.1c0,0-0.1,0-0.1,0h-1.7c0,0-0.1,0-0.1,0c0,0,0,0.1,0,0.1v1.5
				c0,0,0,0.1,0,0.1c0,0-0.1,0-0.1,0h-1.2c0,0-0.1,0-0.1,0c0,0,0-0.1,0-0.1v-4.7c0,0,0-0.1,0-0.1c0-0.1,0-0.1,0-0.1l0.8-0.8
				c0,0,0.1,0,0.1,0c0.1,0,0.1,0,0.2,0h2.7c0,0,0.1,0,0.2,0c0.1,0,0.1,0,0.1,0L-164.5,235.9z M-166,236.4h-2v1.5h2V236.4z
				 M-159.3,235c0,0,0.1,0,0.1,0.1c0,0,0,0.1,0,0.1v4.6c0,0,0,0.1,0,0.2c0,0.1,0,0.1,0,0.1l-0.8,0.8c0,0-0.1,0-0.1,0.1
				c-0.1,0-0.1,0-0.2,0h-2.2c0,0-0.1,0-0.2,0c-0.1,0-0.1,0-0.1-0.1l-0.8-0.8c0,0,0-0.1-0.1-0.1c0-0.1,0-0.1,0-0.2v-1.7
				c0,0,0-0.1,0-0.1c0,0,0.1,0,0.1,0h1.2c0,0,0.1,0,0.1,0c0,0,0,0.1,0,0.1v1.2c0,0,0,0.1,0,0.1c0,0,0.1,0,0.1,0h1.2c0,0,0.1,0,0.1,0
				c0,0,0-0.1,0-0.1v-4.2c0,0,0-0.1,0-0.1c0,0,0.1-0.1,0.1-0.1C-160.4,235-159.3,235-159.3,235z M-152.9,235.9c0,0,0,0.1,0,0.1
				c0,0.1,0,0.1,0,0.2v3.7c0,0,0,0.1,0,0.2c0,0.1,0,0.1,0,0.1l-0.8,0.8c0,0-0.1,0-0.2,0.1c-0.1,0-0.1,0-0.2,0h-2.7c0,0-0.1,0-0.2,0
				c-0.1,0-0.1,0-0.1-0.1l-0.8-0.8c0,0,0-0.1-0.1-0.1c0-0.1,0-0.1,0-0.2v-3.7c0,0,0-0.1,0-0.2c0-0.1,0-0.1,0.1-0.1l0.8-0.8
				c0,0,0.1,0,0.1,0c0.1,0,0.1,0,0.2,0h2.7c0,0,0.1,0,0.2,0c0.1,0,0.1,0,0.2,0L-152.9,235.9z M-154.3,236.5h-2v3.1h2V236.5z
				 M-146.4,240.9c0,0,0,0.1,0,0.1c0,0,0,0-0.1,0h-1.4c0,0-0.1,0-0.1,0c0,0-0.1-0.1-0.1-0.1l-1-1.6c0,0,0,0-0.1,0h-1c0,0,0,0,0,0
				v1.6c0,0.1-0.1,0.2-0.2,0.2h-1.2c-0.1,0-0.2-0.1-0.2-0.2v-5.6c0,0,0-0.1,0-0.1c0,0,0.1-0.1,0.1-0.1h3.7c0,0,0.1,0,0.2,0
				c0.1,0,0.1,0,0.2,0l0.8,0.8c0,0,0,0.1,0,0.1c0,0.1,0,0.1,0,0.2v1.9c0,0,0,0.1,0,0.1c0,0,0,0.1-0.1,0.1l-0.8,0.8L-146.4,240.9z
				 M-148.1,236.4h-2.1v1.4h2.1V236.4z M-138.4,239.6c0,0,0.1,0,0.1,0c0,0,0,0.1,0,0.1v1.1c0,0,0,0.1,0,0.1c0,0-0.1,0-0.1,0h-3.7
				c-0.1,0-0.2-0.1-0.2-0.2v-5.6c0-0.1,0.1-0.2,0.2-0.2h1.2c0.1,0,0.2,0.1,0.2,0.2v4.2c0,0,0,0.1,0,0.1c0,0,0.1,0,0.1,0
				L-138.4,239.6L-138.4,239.6z M-135.9,236.4C-136,236.4-136,236.4-135.9,236.4l0,1c0,0,0,0,0,0h2.4c0,0,0.1,0,0.1,0
				c0,0,0,0.1,0,0.1v0.9c0,0.1-0.1,0.2-0.2,0.2h-2.4c0,0,0,0,0,0v0.9c0,0,0,0,0,0h2.9c0,0,0.1,0,0.1,0c0,0,0,0.1,0,0.1v1.1
				c0,0,0,0.1,0,0.1c0,0-0.1,0-0.1,0h-3.2c0,0-0.1,0-0.2,0c-0.1,0-0.1,0-0.1-0.1l-0.8-0.8c0,0,0-0.1-0.1-0.1c0-0.1,0-0.1,0-0.2v-3.7
				c0,0,0-0.1,0-0.2c0-0.1,0-0.1,0.1-0.1l0.8-0.8c0,0,0.1,0,0.1,0c0.1,0,0.1,0,0.2,0h3.2c0,0,0.1,0,0.1,0.1c0,0,0,0.1,0,0.1v1.1
				c0,0,0,0.1,0,0.1c0,0-0.1,0-0.1,0L-135.9,236.4L-135.9,236.4z M-126.7,235.9c0,0,0,0.1,0,0.2c0,0.1,0,0.1,0,0.2v4.6
				c0,0,0,0.1,0,0.1c0,0-0.1,0-0.1,0h-1.2c0,0-0.1,0-0.1,0c0,0,0-0.1,0-0.1v-1.5c0,0,0-0.1,0-0.1c0,0-0.1,0-0.1,0h-1.7
				c0,0-0.1,0-0.1,0c0,0,0,0.1,0,0.1v1.5c0,0,0,0.1,0,0.1c0,0-0.1,0-0.1,0h-1.2c0,0-0.1,0-0.1,0c0,0,0-0.1,0-0.1v-4.7
				c0,0,0-0.1,0-0.1c0-0.1,0-0.1,0-0.1l0.8-0.8c0,0,0.1,0,0.1,0c0.1,0,0.1,0,0.2,0h2.7c0,0,0.1,0,0.2,0c0.1,0,0.1,0,0.1,0
				L-126.7,235.9z M-128.1,236.4h-2v1.5h2V236.4z M-120.5,237.8c0,0,0.1,0,0.1,0.1c0,0,0,0.1,0,0.1v1.9c0,0,0,0.1,0,0.2
				c0,0.1,0,0.1,0,0.1l-0.8,0.8c0,0-0.1,0-0.2,0.1c-0.1,0-0.1,0-0.2,0h-2.7c0,0-0.1,0-0.2,0c-0.1,0-0.1,0-0.1-0.1l-0.8-0.8
				c0,0,0-0.1-0.1-0.1c0-0.1,0-0.1,0-0.2v-3.7c0,0,0-0.1,0-0.2c0-0.1,0-0.1,0.1-0.1l0.8-0.8c0,0,0.1,0,0.1,0c0.1,0,0.1,0,0.2,0h3.4
				c0,0,0.1,0,0.1,0.1c0,0,0,0.1,0,0.1v1.1c0,0,0,0.1,0,0.1c0,0-0.1,0-0.1,0h-2.9c0,0-0.1,0-0.1,0c0,0,0,0.1,0,0.1v2.8
				c0,0,0,0.1,0,0.1c0,0,0.1,0,0.1,0h1.7c0,0,0.1,0,0.1,0c0,0,0-0.1,0-0.1v-1.5c0,0,0-0.1,0-0.1c0,0,0.1-0.1,0.1-0.1L-120.5,237.8
				L-120.5,237.8z M-114.2,235c0,0,0.1,0,0.1,0.1c0,0,0,0.1,0,0.1v4.7h0c0,0,0,0.1,0,0.1c0,0,0,0.1,0,0.1l-0.8,0.8
				c0,0-0.1,0-0.1,0.1c-0.1,0-0.1,0-0.2,0h-2.7c0,0-0.1,0-0.2,0c-0.1,0-0.1,0-0.1-0.1l-0.8-0.8c0,0,0-0.1-0.1-0.1c0-0.1,0-0.1,0-0.2
				v-4.6c0,0,0-0.1,0-0.1c0,0,0.1-0.1,0.1-0.1h1.2c0,0,0.1,0,0.1,0.1c0,0,0,0.1,0,0.1v4.2c0,0,0,0.1,0,0.1c0,0,0.1,0,0.1,0h1.7
				c0,0,0.1,0,0.1,0c0,0,0-0.1,0-0.1v-4.2c0,0,0-0.1,0-0.1c0,0,0.1-0.1,0.1-0.1L-114.2,235L-114.2,235z M-111.2,236.4
				C-111.3,236.4-111.3,236.4-111.2,236.4l0,1c0,0,0,0,0,0h2.4c0,0,0.1,0,0.1,0c0,0,0,0.1,0,0.1v0.9c0,0.1-0.1,0.2-0.2,0.2h-2.4
				c0,0,0,0,0,0v0.9c0,0,0,0,0,0h2.9c0,0,0.1,0,0.1,0c0,0,0,0.1,0,0.1v1.1c0,0,0,0.1,0,0.1c0,0-0.1,0-0.1,0h-3.2c0,0-0.1,0-0.2,0
				c-0.1,0-0.1,0-0.1-0.1l-0.8-0.8c0,0,0-0.1-0.1-0.1c0-0.1,0-0.1,0-0.2v-3.7c0,0,0-0.1,0-0.2c0-0.1,0-0.1,0.1-0.1l0.8-0.8
				c0,0,0.1,0,0.1,0c0.1,0,0.1,0,0.2,0h3.2c0,0,0.1,0,0.1,0.1c0,0,0,0.1,0,0.1v1.1c0,0,0,0.1,0,0.1c0,0-0.1,0-0.1,0L-111.2,236.4
				L-111.2,236.4z M-99.2,235c0,0,0.1,0,0.1,0.1c0,0,0.1,0.1,0.1,0.1v5.6c0,0,0,0.1-0.1,0.1c0,0-0.1,0-0.1,0h-1.2c0,0-0.1,0-0.1,0
				c0,0,0-0.1,0-0.1v-2c0,0,0-0.1,0-0.1c0,0-0.1,0-0.1,0h-1.7c0,0-0.1,0-0.1,0c0,0,0,0.1,0,0.1v2c0,0.1-0.1,0.2-0.2,0.2h-1.2
				c-0.1,0-0.2-0.1-0.2-0.2v-5.6c0-0.1,0.1-0.2,0.2-0.2h1.2c0.1,0,0.2,0.1,0.2,0.2v1.9c0,0.1,0.1,0.2,0.2,0.2h1.7c0,0,0.1,0,0.1,0
				c0,0,0-0.1,0-0.1v-1.9c0,0,0-0.1,0-0.1c0,0,0.1-0.1,0.1-0.1H-99.2z M-92.8,235.9c0,0,0,0.1,0,0.2c0,0.1,0,0.1,0,0.2v4.6
				c0,0,0,0.1,0,0.1c0,0-0.1,0-0.1,0H-94c0,0-0.1,0-0.1,0c0,0,0-0.1,0-0.1v-1.5c0,0,0-0.1,0-0.1c0,0-0.1,0-0.1,0H-96
				c0,0-0.1,0-0.1,0c0,0,0,0.1,0,0.1v1.5c0,0,0,0.1,0,0.1c0,0-0.1,0-0.1,0h-1.2c0,0-0.1,0-0.1,0c0,0,0-0.1,0-0.1v-4.7
				c0,0,0-0.1,0-0.1s0-0.1,0-0.1l0.8-0.8c0,0,0.1,0,0.1,0c0.1,0,0.1,0,0.2,0h2.7c0,0,0.1,0,0.2,0c0.1,0,0.1,0,0.1,0L-92.8,235.9z
				 M-94.2,236.4h-2v1.5h2V236.4z M-89.8,236.5c0,0-0.1,0-0.1,0c0,0,0,0.1,0,0.1v2.8c0,0,0,0.1,0,0.1c0,0,0.1,0,0.1,0h2.7
				c0,0,0.1,0,0.1,0c0,0,0,0.1,0,0.1v1.1c0,0,0,0.1,0,0.1c0,0-0.1,0-0.1,0h-3.2c0,0-0.1,0-0.2,0c-0.1,0-0.1,0-0.1-0.1l-0.8-0.8
				c0,0,0-0.1-0.1-0.1c0-0.1,0-0.1,0-0.2v-3.7c0,0,0-0.1,0-0.2c0-0.1,0-0.1,0.1-0.1l0.8-0.8c0,0,0.1,0,0.1,0c0,0,0.1,0,0.1,0h3.3
				c0,0,0.1,0,0.1,0.1c0,0,0,0.1,0,0.1v1.1c0,0,0,0.1,0,0.1c0,0-0.1,0-0.1,0H-89.8z M-82.1,237.6C-82.2,237.6-82.2,237.6-82.1,237.6
				l2,3.3c0,0,0,0.1,0,0.1c0,0-0.1,0-0.1,0h-1.4c0,0-0.1,0-0.1,0c0,0-0.1-0.1-0.1-0.1l-1.3-2.3c0,0,0,0,0,0l-0.7,0.8
				c0,0-0.1,0.1-0.1,0.1c0,0.1,0,0.1,0,0.1v1.3c0,0.1-0.1,0.2-0.2,0.2h-1.2c-0.1,0-0.2-0.1-0.2-0.2v-5.6c0-0.1,0.1-0.2,0.2-0.2h1.2
				c0.1,0,0.2,0.1,0.2,0.2v2.5l2.2-2.6c0,0,0.1-0.1,0.1-0.1c0.1,0,0.1,0,0.1,0h1.4c0,0,0.1,0,0.1,0c0,0,0,0.1,0,0.1L-82.1,237.6z
				 M-77.6,240.8c0,0.1-0.1,0.2-0.2,0.2h-1.2c-0.1,0-0.2-0.1-0.2-0.2v-5.6c0-0.1,0.1-0.2,0.2-0.2h1.2c0.1,0,0.2,0.1,0.2,0.2V240.8z
				 M-71.3,235.9c0,0,0,0.1,0,0.1c0,0.1,0,0.1,0,0.2v4.6c0,0,0,0.1-0.1,0.1c0,0-0.1,0-0.1,0h-1.2c0,0-0.1,0-0.1,0c0,0,0-0.1,0-0.1
				v-4.2c0,0,0-0.1,0-0.1c0,0-0.1,0-0.1,0h-1.7c0,0-0.1,0-0.1,0c0,0,0,0.1,0,0.1v4.2c0,0.1-0.1,0.2-0.2,0.2h-1.2
				c-0.1,0-0.2-0.1-0.2-0.2v-5.6c0,0,0-0.1,0-0.1c0,0,0.1-0.1,0.1-0.1h3.7c0,0,0.1,0,0.2,0c0.1,0,0.1,0,0.1,0L-71.3,235.9z
				 M-65.1,237.8c0,0,0.1,0,0.1,0.1c0,0,0,0.1,0,0.1v1.9c0,0,0,0.1,0,0.2c0,0.1,0,0.1,0,0.1l-0.8,0.8c0,0-0.1,0-0.2,0.1
				c-0.1,0-0.1,0-0.2,0h-2.7c0,0-0.1,0-0.2,0c-0.1,0-0.1,0-0.1-0.1l-0.8-0.8c0,0,0-0.1-0.1-0.1c0-0.1,0-0.1,0-0.2v-3.7
				c0,0,0-0.1,0-0.2c0-0.1,0-0.1,0.1-0.1l0.8-0.8c0,0,0.1,0,0.1,0c0.1,0,0.1,0,0.2,0h3.4c0,0,0.1,0,0.1,0.1c0,0,0,0.1,0,0.1v1.1
				c0,0,0,0.1,0,0.1c0,0-0.1,0-0.1,0h-2.9c0,0-0.1,0-0.1,0c0,0,0,0.1,0,0.1v2.8c0,0,0,0.1,0,0.1c0,0,0.1,0,0.1,0h1.7
				c0,0,0.1,0,0.1,0c0,0,0-0.1,0-0.1v-1.5c0,0,0-0.1,0-0.1c0,0,0.1-0.1,0.1-0.1L-65.1,237.8L-65.1,237.8z"/>
		</g>
	</g>
</g>
</svg>
