<?xml version="1.0" encoding="utf-8"?>
<!-- Generator: Adobe Illustrator 18.1.1, SVG Export Plug-In . SVG Version: 6.00 Build 0)  -->
<!DOCTYPE svg PUBLIC "-//W3C//DTD SVG 1.1//EN" "http://www.w3.org/Graphics/SVG/1.1/DTD/svg11.dtd">
<svg version="1.1" id="_x3C_Layer_x3E_" xmlns="http://www.w3.org/2000/svg" xmlns:xlink="http://www.w3.org/1999/xlink" x="0px"
	 y="0px" viewBox="0 0 288 288" enable-background="new 0 0 288 288" xml:space="preserve">
<g>
	<rect x="0" fill="#353C47" width="288" height="288"/>
	<g>
		<g>
			<g>
				<path fill="#FFFFFF" d="M31.5,36.7h13.2c1.4,0,2.6-1.2,2.6-2.6s-1.2-2.6-2.6-2.6H31.5V36.7z M44.8,26.2c4.3,0,7.8,3.5,7.8,7.9
					c0,2-0.7,3.8-2,5.2c1.2,1.4,2,3.2,2,5.2v7.9h-5.2v-7.9c0-1.4-1.2-2.6-2.6-2.6H31.5v10.5h-5.2V26.2H44.8z"/>
			</g>
			<g>
				<path fill="#FFFFFF" d="M104.9,26.2v17.3c0,4.4-3.1,8.9-7.8,8.9H86.5c-4.8,0-7.8-4.5-7.8-8.9V26.2h5.2v17.3
					c0,2.5,1.6,3.7,2.6,3.7h10.5c1,0,2.6-1.2,2.6-3.7V26.2H104.9z"/>
			</g>
			<g>
				<path fill="#FFFFFF" d="M136.1,36.7h13.2c1.4,0,2.6-1.2,2.6-2.6s-1.2-2.6-2.6-2.6h-13.2V36.7z M149.3,41.9h-13.2v5.2h13.2
					c1.4,0,2.6-1.2,2.6-2.6S150.8,41.9,149.3,41.9z M136.1,26.2h13.2c4.3,0,7.9,3.5,7.9,7.9c0,2-0.8,3.8-2,5.2c1.2,1.4,2,3.2,2,5.2
					c0,4.3-3.5,7.9-7.9,7.9h-13.2h-5.2V26.2H136.1z"/>
			</g>
			<g>
				<g>
					<polygon fill="#FFFFFF" points="188.5,47.2 209.4,47.2 209.4,52.4 183.3,52.4 183.3,26.2 209.4,26.2 209.4,31.5 188.5,31.5 
						188.5,36.7 204.2,36.7 204.2,42 188.5,42 					"/>
				</g>
			</g>
			<g>
				<g>
					<polygon fill="#FFFFFF" points="256.5,44.9 256.5,26.2 261.8,26.2 261.8,52.4 255.8,52.4 240.9,33.7 240.9,52.4 235.6,52.4 
						235.6,26.2 241.6,26.2 					"/>
				</g>
			</g>
		</g>
		<g>
			<g>
				<polygon fill="#FFFFFF" points="256.5,97.2 256.5,78.5 261.8,78.5 261.8,104.7 255.8,104.7 240.9,86 240.9,104.7 235.6,104.7 
					235.6,78.5 241.6,78.5 				"/>
			</g>
			<g>
				<g>
					<polygon fill="#FFFFFF" points="183.3,78.5 209.4,78.5 209.4,83.8 199,83.8 199,99.5 209.4,99.5 209.4,104.7 183.3,104.7 
						183.3,99.5 193.7,99.5 193.7,83.8 183.3,83.8 					"/>
				</g>
			</g>
			<g>
				<polygon fill="#FFFFFF" points="136.2,99.5 157.1,99.5 157.1,104.7 130.9,104.7 130.9,78.5 157.1,78.5 157.1,83.8 136.2,83.8 
					136.2,89 151.8,89 151.8,94.3 136.2,94.3 				"/>
			</g>
			<g>
				<polygon fill="#FFFFFF" points="78.7,78.5 104.9,78.5 104.9,83.8 94.4,83.8 94.4,104.7 89.2,104.7 89.2,83.8 78.7,83.8 				"/>
			</g>
			<g>
				<path fill="#FFFFFF" d="M26.2,99.5h18.6c1.4,0,2.6-1.2,2.6-2.6c0-1.4-1.2-2.6-2.6-2.6H34.2c-4.3,0-7.8-3.5-7.8-7.8
					c0-4.3,3.5-7.9,7.8-7.9h18v5.2h-18c-1.4,0-2.6,1.2-2.6,2.6c0,1.4,1.2,2.6,2.6,2.6h10.6c4.3,0,7.8,3.5,7.8,7.9
					c0,4.3-3.5,7.8-7.8,7.8H26.2V99.5z"/>
			</g>
		</g>
		<g>
			<polygon fill="#FFFFFF" points="26.4,131 52.5,131 52.5,136.2 42.1,136.2 42.1,157.2 36.8,157.2 36.8,136.2 26.4,136.2 			"/>
			<g>
				<polygon fill="#FFFFFF" points="256.5,149.8 256.5,131.1 261.8,131.1 261.8,157.2 255.8,157.2 240.9,138.5 240.9,157.2 
					235.6,157.2 235.6,131.1 241.6,131.1 				"/>
			</g>
			<g>
				<polygon fill="#FFFFFF" points="84,151.5 104.9,151.5 104.9,156.8 78.7,156.8 78.7,130.6 104.9,130.6 104.9,135.8 84,135.8 
					84,141.1 99.6,141.1 99.6,146.4 84,146.4 				"/>
			</g>
			<g>
				<g>
					<path fill="#FFFFFF" d="M157.1,156.9h-17.5c-4.4,0-8.9-3.1-8.9-7.9v-10.6c0-4.8,4.4-7.8,8.9-7.8h17.5v5.2h-17.5
						c-2.5,0-3.7,1.6-3.7,2.6V149c0,1,1.2,2.6,3.7,2.6h17.5V156.9z"/>
				</g>
			</g>
			<g>
				<g>
					<polygon fill="#FFFFFF" points="183.3,156.8 183.3,130.6 188.5,130.6 188.5,141.1 204.2,141.1 204.2,130.6 209.4,130.6 
						209.4,156.8 204.2,156.8 204.2,146.3 188.5,146.3 188.5,156.8 					"/>
				</g>
			</g>
		</g>
		<g>
			<path fill="#FFFFFF" d="M35.1,188.2c-2.5,0-3.7,1.6-3.7,2.6v10.9c0,1,1.2,2.6,3.7,2.6h8.7c2.5,0,3.7-1.6,3.7-2.6v-10.9
				c0-1-1.2-2.6-3.7-2.6H35.1z M35.1,209.6c-4.4,0-8.9-3.1-8.9-7.9v-10.9c0-4.8,4.4-7.9,8.9-7.9h8.7c4.4,0,8.9,3.1,8.9,7.9v10.9
				c0,4.8-4.4,7.9-8.9,7.9H35.1z"/>
			<g>
				<path fill="#FFFFFF" d="M261.8,183.1v6.3c0,4.4-3.1,8.9-7.9,8.9h-2.8v11.1h-5.2v-11.1h-2.5c-4.8,0-7.8-4.5-7.8-8.9v-6.3h5.2v6.3
					c0,2.5,1.6,3.7,2.6,3.7H254c1,0,2.6-1.2,2.6-3.7v-6.3H261.8z"/>
			</g>
			<g>
				<path fill="#FFFFFF" d="M192.2,209.4c-4.6-0.1-8.9-3.2-8.9-7.9V191c0-4.8,4.4-7.9,8.9-7.9h17.3v5.2h-17.3
					c-2.5,0-3.7,1.6-3.7,2.6v10.5c0,1,1.1,2.5,3.5,2.6h8.9c1.5,0,3.4-0.5,3.4-2v-3.8h-10.5v-5.2h15.7v9.1c0,4.3-4.3,7.2-8.6,7.2
					H192.2z"/>
			</g>
			<g>
				<polygon fill="#FFFFFF" points="104.7,209.4 78.9,209.4 78.9,183.2 84.1,183.2 84.1,204.1 104.7,204.1 				"/>
			</g>
			<g>
				<path fill="#FFFFFF" d="M139.6,188.2c-2.5,0-3.7,1.6-3.7,2.6v10.9c0,1,1.2,2.6,3.7,2.6h8.7c2.5,0,3.7-1.6,3.7-2.6v-10.9
					c0-1-1.2-2.6-3.7-2.6H139.6z M139.6,209.6c-4.4,0-8.9-3.1-8.9-7.9v-10.9c0-4.8,4.4-7.9,8.9-7.9h8.7c4.4,0,8.9,3.1,8.9,7.9v10.9
					c0,4.8-4.4,7.9-8.9,7.9H139.6z"/>
			</g>
		</g>
		<g>
			<g>
				<path fill="#FFFFFF" d="M240.8,240.8v5.2H254c1.5,0,2.6-1.2,2.6-2.6c0-1.4-1.2-2.6-2.6-2.6H240.8z M240.8,261.7h-5.2v-26.2h5.2
					H254c4.3,0,7.9,3.5,7.9,7.8c0,4.3-3.5,7.9-7.9,7.9h-13.2V261.7z"/>
			</g>
			<g>
				<path fill="#FFFFFF" d="M209.5,235.5v17.7c0,4.4-3.1,8.9-7.8,8.9h-10.5c-4.8,0-7.8-4.4-7.8-8.9v-17.7h5.2v17.7
					c0,2.5,1.6,3.7,2.6,3.7h10.5c1,0,2.6-1.2,2.6-3.7v-17.7H209.5z"/>
			</g>
			<g>
				<path fill="#FFFFFF" d="M139.6,240.6c-2.5,0-3.7,1.6-3.7,2.6v10.7c0,1,1.2,2.8,3.7,2.8h8.7c2.5,0,3.7-1.8,3.7-2.8v-10.7
					c0-1-1.2-2.6-3.7-2.6H139.6z M139.6,262c-4.4,0-8.9-3.3-8.9-8v-10.7c0-4.8,4.4-7.8,8.9-7.8h8.7c4.4,0,8.9,3.1,8.9,7.8v10.7
					c0,4.8-4.4,8-8.9,8H139.6z"/>
			</g>
			<g>
				<path fill="#FFFFFF" d="M83.9,246.1h13.2c1.5,0,2.6-1.2,2.6-2.6c0-1.4-1.2-2.6-2.6-2.6H83.9V246.1z M83.9,235.6h13.2
					c4.3,0,7.8,3.5,7.8,7.9c0,2-0.8,3.8-2,5.2c1.2,1.4,2,3.2,2,5.2v7.9h-5.2v-7.9c0-1.4-1.2-2.6-2.6-2.6H83.9v10.5h-5.2v-26.2H83.9z
					"/>
			</g>
			<g>
				<path fill="#FFFFFF" d="M43.5,262h-8.4c-4.6-0.1-8.9-3.2-8.9-7.9V243c0-4.8,4.4-7.9,8.9-7.9h17.5v5.2H35.1
					c-2.5,0-3.7,1.6-3.7,2.6v11.1c0,1,1.1,2.5,3.5,2.6h8.6H44c1.4,0,3.4-0.5,3.4-2l0-4.2H36.9v-5.2h10.5h5.2v9.4
					c0,4.3-4.3,7.2-8.6,7.2H43.5z"/>
			</g>
		</g>
	</g>
</g>
<path fill="#FFFFFF" d="M-50.5,354.7c1,0,1.9,0,2.9,0"/>
</svg>
