<svg id="Layer_1" data-name="Layer 1" xmlns="http://www.w3.org/2000/svg" viewBox="0 0 425.33 117.73"><defs><style>.cls-1{fill:none;}.cls-1,.cls-2{fill-rule:evenodd;}.cls-2,.cls-3{fill:#3b3b3b;}</style></defs><title>vanguard</title><path class="cls-1" d="M308.53,97.62c0,0.58,0,1,0,1.44,0,4.16,0,8.32,0,12.48,0.08,4.34,2.44,7.2,6.63,8.27a10.63,10.63,0,0,0,9.41-1.9l1.2-.88v3.07h12.05a3.77,3.77,0,0,1-2.13-3.5c-0.05-.56-0.08-1.12-0.08-1.67q0-10.38,0-20.76c0-.46,0-0.92-0.07-1.45l-12,.5c1.88,0.89,2.13,2.49,2.15,4.13q0.08,5.88,0,11.76a9,9,0,0,1-.51,2.81,3.1,3.1,0,0,1-2.9,2.16c-2.34.17-3.78-1.27-3.79-3.88,0-5.36,0-10.72,0-16.08V92.76c-0.51,0-.9-0.06-1.29-0.06H290.73a16.16,16.16,0,0,0-8.84,2.2,8.68,8.68,0,0,0-1.61,13.87,38.09,38.09,0,0,0,4.06,3.11c-0.79.23-1.72,0.47-2.62,0.77a1.69,1.69,0,0,0-1.24,1.93,5.83,5.83,0,0,0,5.79,5.6c0.76,0,1.53-.06,2.28,0a34.29,34.29,0,0,1,5.54.75,3.52,3.52,0,0,1,2.5,3.59,3.76,3.76,0,0,1-2.43,3.89,9.07,9.07,0,0,1-6.79.25,4,4,0,0,1-2.88-2.8c-0.35-1.48.31-2.59,1.8-3.38-2.76-.4-5.27-0.54-7.64.63-3.46,1.71-3.88,5.72-.75,8a16.47,16.47,0,0,0,4.26,2.12c4.15,1.4,8.44,1.18,12.71.81a16.59,16.59,0,0,0,8.44-2.81,8.08,8.08,0,0,0-.72-13.79,11.05,11.05,0,0,0-4.17-1.37c-2.78-.27-5.59-0.19-8.38-0.28-1,0-2.18,0-2.26-1.25s1.18-1.12,2-1.24a25.67,25.67,0,0,0,9.47-2.83,7.84,7.84,0,0,0,2.53-11.91c-0.18-.24-0.34-0.49-0.58-0.83,0.34,0,.53-0.08.72-0.08h6.57Z" transform="translate(-6.08 -16.56)"/><path class="cls-2" d="M218.23,99.93c2.1-.57,4.07-1.2,6.09-1.62a6.22,6.22,0,0,1,5,.76c1.44,1,1.48,2.63,0,3.54a12,12,0,0,1-3,1.14c-2.64.75-5.39,1.23-7.94,2.22a6.65,6.65,0,0,0-4.38,6.32c-0.12,3,1.87,5.55,5.22,6.87,3,1.18,6.12,1,9.23,1a0.8,0.8,0,0,0,.61-0.27c0.65-1.24,1.25-2.51,1.83-3.67a19.58,19.58,0,0,1-3.78-.55A3.28,3.28,0,0,1,226,110a9.84,9.84,0,0,1,4.81-1.82c0,1.32,0,2.48,0,3.63,0,4.52,2.27,7.32,6.68,8.17a14.72,14.72,0,0,0,2.74.22c5.88,0,11.76,0,17.64,0h1.27c-1.85-1-2.21-2.66-2.22-4.44,0-4.08,0-8.16,0-12.24a7.08,7.08,0,0,1,.11-1.19,3.79,3.79,0,0,1,4.15-3.45c2,0.15,2.94,1.37,2.95,3.89,0,4.44,0,8.88,0,13.32v4h12.13a4.2,4.2,0,0,1-2.37-4.12c0-.4,0-0.8,0-1.2,0-4.44,0-8.88,0-13.32s-2.63-7.59-7.09-8.51a10.61,10.61,0,0,0-8.72,2l-1.08.79-0.13-3-12,.49c2,0.9,2.14,2.66,2.15,4.39,0,5.8,0,11.6,0,17.4,0,0.34-.05.69-0.08,1-4.09.75-6.37-1.13-6.39-5.16,0-2.68,0-5.36-.07-8-0.08-5.1-2.33-8-7.23-9.41a24.74,24.74,0,0,0-12.34.09,1.32,1.32,0,0,0-.82.72C219.43,96.09,218.85,98,218.23,99.93Z" transform="translate(-6.08 -16.56)"/><path class="cls-2" d="M369.93,93.21c1.59,0.73,2,2.08,2.13,3.56a9.72,9.72,0,0,1,0,1.08q0,8.52,0,17c0,0.38,0,.76-0.07,1.12-4.28.76-6.48-1.08-6.52-5.28,0-2.88,0-5.76-.17-8.64-0.19-3.71-1.69-6.64-5.35-8.08-4.7-1.86-9.48-1.58-14.27-.5a1.07,1.07,0,0,0-.67.58c-0.66,2-1.27,3.92-1.88,5.85,2.06-.56,4-1.19,6-1.62a6.47,6.47,0,0,1,4.78.6c1.72,1,1.79,2.81.09,3.81a11.09,11.09,0,0,1-2.79,1c-2.24.59-4.54,1-6.74,1.67-3.69,1.2-5.69,3.87-5.64,7.19,0,3,2.16,5.51,5.74,6.75,2.83,1,5.75.83,8.67,0.81a0.92,0.92,0,0,0,.7-0.33c0.64-1.21,1.22-2.45,1.79-3.61a27.1,27.1,0,0,1-3.79-.55,3.19,3.19,0,0,1-2.26-2.84,2.9,2.9,0,0,1,1.45-3.07,42.73,42.73,0,0,1,4.57-1.88c0,1.87-.06,3.35,0,4.82a6.84,6.84,0,0,0,4.66,6.62,13.33,13.33,0,0,0,4.32.82c6.16,0.09,12.32,0,18.48,0,0.31,0,.63,0,0.94-0.07-1.88-.85-2.12-2.48-2.15-4.09-0.07-3.92-.09-7.84,0-11.76a4.71,4.71,0,0,1,4.6-4.9,32.44,32.44,0,0,1,3.36,0c0-1.89,0-3.76,0-5.63a1,1,0,0,0-1.08-1.19,6.66,6.66,0,0,0-6.2,2.68c-0.17.22-.37,0.43-0.8,0.92V92.72Z" transform="translate(-6.08 -16.56)"/><path class="cls-2" d="M409.21,94.42a1.4,1.4,0,0,1-.29,0l-1.07-.54a11,11,0,0,0-11.89.92c-6.57,4.64-7.5,15.86-1.88,21.78a11.44,11.44,0,0,0,10,3.9,2.62,2.62,0,0,0,1.71-.61c0.93-1.36,1.66-2.87,2.5-4.38-4.11,0-6.06-1.54-7.09-5.41a14.32,14.32,0,0,1,0-7.59,7.32,7.32,0,0,1,1.4-2.73,3.55,3.55,0,0,1,6.14,1,9.07,9.07,0,0,1,.52,3.16c0.05,5,0,9.92,0,14.88,0,0.42,0,.84.05,1.28h12.24a3.19,3.19,0,0,1-2.08-2.77,12.44,12.44,0,0,1-.16-2q0-16.55,0-33.11c0-.46,0-0.92,0-1.46l-12.2.5a3.45,3.45,0,0,1,2.06,3.24C409.26,87.76,409.21,91.06,409.21,94.42Z" transform="translate(-6.08 -16.56)"/><path class="cls-2" d="M181.86,80.72L181.8,81c1.88,1,2.64,2.7,3.3,4.53,3,8.31,6,16.6,8.91,24.94,2.07,6,6.83,8.37,12.49,9.83l13.38-39.52H209.32c2.8,2,3.16,3.07,2.17,6.23l-3.27,10.4-3.57,11.43c-0.28-.77-0.45-1.19-0.6-1.63q-4.32-12.71-8.61-25.43a1.32,1.32,0,0,0-1.5-1.1c-2.8.06-5.6,0-8.4,0h-3.66Z" transform="translate(-6.08 -16.56)"/><path class="cls-2" d="M308.53,97.62H302c-0.19,0-.38,0-0.72.08,0.24,0.34.4,0.59,0.58,0.83a7.84,7.84,0,0,1-2.53,11.91,25.67,25.67,0,0,1-9.47,2.83c-0.87.12-2.13-.07-2,1.24s1.31,1.22,2.26,1.25c2.79,0.1,5.6,0,8.38.28a11.05,11.05,0,0,1,4.17,1.37,8.08,8.08,0,0,1,.72,13.79,16.59,16.59,0,0,1-8.44,2.81c-4.27.37-8.57,0.59-12.71-.81a16.47,16.47,0,0,1-4.26-2.12c-3.13-2.23-2.71-6.24.75-8,2.37-1.18,4.88-1,7.64-.63-1.5.79-2.15,1.9-1.8,3.38a4,4,0,0,0,2.88,2.8,9.07,9.07,0,0,0,6.79-.25,3.76,3.76,0,0,0,2.43-3.89,3.52,3.52,0,0,0-2.5-3.59,34.29,34.29,0,0,0-5.54-.75c-0.75-.08-1.52,0-2.28,0a5.83,5.83,0,0,1-5.79-5.6,1.69,1.69,0,0,1,1.24-1.93c0.9-.3,1.83-0.54,2.62-0.77a38.09,38.09,0,0,1-4.06-3.11,8.68,8.68,0,0,1,1.61-13.87,16.16,16.16,0,0,1,8.84-2.2h26.52c0.39,0,.78,0,1.29.06v1.36c0,5.36,0,10.72,0,16.08,0,2.61,1.45,4.05,3.79,3.88a3.1,3.1,0,0,0,2.9-2.16,9,9,0,0,0,.51-2.81q0.08-5.88,0-11.76c0-1.63-.27-3.24-2.15-4.13l12-.5c0,0.54.07,1,.07,1.45q0,10.38,0,20.76c0,0.56,0,1.12.08,1.67a3.77,3.77,0,0,0,2.13,3.5H325.81V117l-1.2.88a10.63,10.63,0,0,1-9.41,1.9c-4.19-1.07-6.55-3.93-6.63-8.27-0.07-4.16,0-8.32,0-12.48C308.53,98.63,308.53,98.2,308.53,97.62ZM294,102.55a15.65,15.65,0,0,0-.9-3,3,3,0,0,0-5-.51c-1.33,1.62-1.5,5.43-.28,7.16a3.2,3.2,0,0,0,3.07,1.48,2.79,2.79,0,0,0,2.5-2.1C293.67,104.63,293.79,103.67,294,102.55Z" transform="translate(-6.08 -16.56)"/><path class="cls-2" d="M218.23,99.93c0.62-1.94,1.2-3.84,1.86-5.72a1.32,1.32,0,0,1,.82-0.72,24.74,24.74,0,0,1,12.34-.09c4.91,1.36,7.16,4.31,7.23,9.41,0,2.68.06,5.36,0.07,8,0,4,2.3,5.91,6.39,5.16,0-.32.08-0.66,0.08-1,0-5.8,0-11.6,0-17.4,0-1.73-.14-3.49-2.15-4.39l12-.49,0.13,3,1.08-.79a10.61,10.61,0,0,1,8.72-2c4.46,0.92,7,3.92,7.09,8.51s0,8.88,0,13.32c0,0.4,0,.8,0,1.2a4.2,4.2,0,0,0,2.37,4.12H264.12v-4c0-4.44,0-8.88,0-13.32,0-2.53-.95-3.74-2.95-3.89a3.79,3.79,0,0,0-4.15,3.45,7.08,7.08,0,0,0-.11,1.19c0,4.08,0,8.16,0,12.24,0,1.78.37,3.43,2.22,4.44h-1.27c-5.88,0-11.76,0-17.64,0a14.72,14.72,0,0,1-2.74-.22c-4.41-.86-6.67-3.66-6.68-8.17,0-1.15,0-2.31,0-3.63A9.84,9.84,0,0,0,226,110a3.28,3.28,0,0,0,1.09,5.7,19.58,19.58,0,0,0,3.78.55c-0.57,1.16-1.18,2.43-1.83,3.67a0.8,0.8,0,0,1-.61.27c-3.12,0-6.24.18-9.23-1-3.35-1.32-5.33-3.85-5.22-6.87a6.65,6.65,0,0,1,4.38-6.32c2.55-1,5.29-1.46,7.94-2.22a12,12,0,0,0,3-1.14c1.48-.91,1.44-2.54,0-3.54a6.22,6.22,0,0,0-5-.76C222.3,98.73,220.33,99.36,218.23,99.93Z" transform="translate(-6.08 -16.56)"/><path class="cls-2" d="M369.93,93.21l12-.48V96.1c0.43-.49.63-0.7,0.8-0.92a6.66,6.66,0,0,1,6.2-2.68A1,1,0,0,1,390,93.7c-0.06,1.87,0,3.74,0,5.63a32.44,32.44,0,0,0-3.36,0,4.71,4.71,0,0,0-4.6,4.9c-0.09,3.92-.07,7.84,0,11.76,0,1.61.27,3.25,2.15,4.09-0.31,0-.62.07-0.94,0.07-6.16,0-12.32.05-18.48,0a13.33,13.33,0,0,1-4.32-.82,6.84,6.84,0,0,1-4.66-6.62c-0.07-1.47,0-2.94,0-4.82a42.73,42.73,0,0,0-4.57,1.88,2.9,2.9,0,0,0-1.45,3.07,3.19,3.19,0,0,0,2.26,2.84,27.1,27.1,0,0,0,3.79.55c-0.57,1.16-1.15,2.4-1.79,3.61a0.92,0.92,0,0,1-.7.33c-2.91,0-5.84.17-8.67-.81-3.58-1.24-5.69-3.7-5.74-6.75,0-3.32,1.94-6,5.64-7.19,2.2-.71,4.5-1.09,6.74-1.67a11.09,11.09,0,0,0,2.79-1c1.7-1,1.63-2.79-.09-3.81a6.47,6.47,0,0,0-4.78-.6c-2,.43-4,1.06-6,1.62,0.61-1.93,1.22-3.9,1.88-5.85a1.07,1.07,0,0,1,.67-0.58c4.8-1.07,9.58-1.35,14.27.5,3.66,1.45,5.16,4.38,5.35,8.08,0.15,2.87.14,5.76,0.17,8.64,0,4.2,2.23,6,6.52,5.28,0-.35.07-0.73,0.07-1.12q0-8.52,0-17a9.72,9.72,0,0,0,0-1.08C371.9,95.29,371.52,93.93,369.93,93.21Z" transform="translate(-6.08 -16.56)"/><path class="cls-2" d="M409.21,94.42c0-3.36.05-6.66,0-10a3.45,3.45,0,0,0-2.06-3.24l12.2-.5c0,0.53,0,1,0,1.46q0,16.56,0,33.11a12.44,12.44,0,0,0,.16,2,3.19,3.19,0,0,0,2.08,2.77H409.35c0-.43-0.05-0.85-0.05-1.28,0-5,0-9.92,0-14.88a9.07,9.07,0,0,0-.52-3.16,3.55,3.55,0,0,0-6.14-1,7.32,7.32,0,0,0-1.4,2.73,14.32,14.32,0,0,0,0,7.59c1,3.86,3,5.38,7.09,5.41-0.84,1.52-1.57,3-2.5,4.38a2.62,2.62,0,0,1-1.71.61,11.44,11.44,0,0,1-10-3.9c-5.61-5.92-4.69-17.14,1.88-21.78a11,11,0,0,1,11.89-.92l1.07,0.54A1.4,1.4,0,0,0,409.21,94.42Z" transform="translate(-6.08 -16.56)"/><path class="cls-2" d="M181.86,80.72h3.66c2.8,0,5.6,0,8.4,0a1.32,1.32,0,0,1,1.5,1.1q4.27,12.73,8.61,25.43c0.15,0.43.32,0.86,0.6,1.63l3.57-11.43L211.49,87c1-3.16.63-4.27-2.17-6.23h10.57L206.5,120.31c-5.66-1.46-10.42-3.85-12.49-9.83-2.89-8.34-5.94-16.63-8.91-24.94-0.65-1.83-1.42-3.57-3.3-4.53Z" transform="translate(-6.08 -16.56)"/><path class="cls-1" d="M294,102.55c-0.24,1.13-.35,2.08-0.64,3a2.79,2.79,0,0,1-2.5,2.1,3.2,3.2,0,0,1-3.07-1.48c-1.22-1.73-1.05-5.53.28-7.16a3,3,0,0,1,5,.51A15.65,15.65,0,0,1,294,102.55Z" transform="translate(-6.08 -16.56)"/><path class="cls-2" d="M427,80.12a4.43,4.43,0,1,0,4.43,4.43A4.43,4.43,0,0,0,427,80.12Zm0,8.24a3.8,3.8,0,1,1,3.8-3.8A3.8,3.8,0,0,1,427,88.36Z" transform="translate(-6.08 -16.56)"/><path class="cls-3" d="M425.24,86.53V82.58H427a2.33,2.33,0,0,1,.8.11,0.87,0.87,0,0,1,.44.37,1.12,1.12,0,0,1,.16.59,1,1,0,0,1-.27.71,1.37,1.37,0,0,1-.84.37,1.35,1.35,0,0,1,.31.2,2.73,2.73,0,0,1,.43.52l0.69,1.07h-0.66l-0.52-.82q-0.23-.36-0.38-0.54a1.21,1.21,0,0,0-.26-0.26,0.8,0.8,0,0,0-.24-0.11l-0.29,0h-0.61v1.75h-0.52Zm0.52-2.2h1.12a1.68,1.68,0,0,0,.56-0.07,0.59,0.59,0,0,0,.31-0.24,0.64,0.64,0,0,0,.11-0.35,0.59,0.59,0,0,0-.2-0.46A1,1,0,0,0,427,83h-1.25v1.3Z" transform="translate(-6.08 -16.56)"/><path class="cls-2" d="M86.4,114.31h3.77l0.23-1.06h1.47l0.18,1.06h3.83l0.24-1c0.71-.47,1.47,0,1.68,1h3.82l0.25-1c0.83-.11,1.65-0.34,1.5,1h3.94l0.19-1h1.43l0.26,1.06c3.25,0.09,6.55.47,9.31-2.28-4.35.93-8.6,0.51-12.83,0.52-26.84,0-53.67,0-80.51.05-1.31,0-2.1-.23-2.38-1.61a2.17,2.17,0,0,0-2-2,3.23,3.23,0,0,1-.92-1h8.69l0.07-.37a4.89,4.89,0,0,0-1.07-.26c-1.72,0-3.44,0-5.16,0a1.14,1.14,0,0,1-1.32-.88,2.69,2.69,0,0,0-1.73-2,3.09,3.09,0,0,1-.81-1H22c-0.86-1.17-1.59-2.25-2.42-3.25a1.78,1.78,0,0,0-1.07-.39c-3.72-.51-7.45-1-11.17-1.5-0.41-.06-0.82-0.15-1.23-0.23V97.75a9.87,9.87,0,0,1,1.13,0c1.71,0.2,3.42.38,5.12,0.64a2.82,2.82,0,0,0,2.84-.76,4.2,4.2,0,0,1,.56-0.45c1.49-1.2,1.48-1.19.81-3-3.3-8.82-3.19-17.51,1-26,0.26-.53.57-1,0.92-1.65C20.81,68.08,23,69.6,25.27,71a3.47,3.47,0,0,0,1.87.52,60.91,60.91,0,0,0,7.64-.73L33,69.88a16,16,0,0,0,1.38-1.25c3.15-3.54,3.46-8.13,4.53-12.44,0.18-.73.33-1.48,0.45-2l-3.77-1.71c2.25-2.25,4.79-4.14,5.92-7.08L37.73,43.8a7.09,7.09,0,0,0,1.23-1c1.55-2.07,3.07-4.18,4.48-6.12a29.31,29.31,0,0,1,3.56.9c1.58,0.61,2.55.14,3.67-1.1C56.31,30.21,62.07,24,67.78,17.83a15.82,15.82,0,0,0,1-1.27c0.68,0.36,1.4.8,2.17,1.13q16.38,7.1,32.77,14.2a1.1,1.1,0,0,0,1.66-.42c1.25-1.84,2.6-3.62,4.16-5.75,3.83,4,7.61,8.1,11.58,12q21.44,21.14,43,42.19c0.92,0.9,1.67,1.57,2.88.6a0.61,0.61,0,0,1,.33,0s0.06,0,0,0c-5.48,4.62-10.09,10.13-15.13,15.22s-10,10.35-15,15.54c-0.32.34-.6,0.72-0.83,1a4.23,4.23,0,0,0-1-.56c-3-.75-6.07-1.42-9.09-2.19a2,2,0,0,0-2.29,1c-1.16,1.6-2.24,3.28-3.48,4.81a9.07,9.07,0,0,0-2.37,4.22,1.16,1.16,0,0,1-.68.6,2.29,2.29,0,0,1-.83,0H24.62c-0.51-2.38,1.17-4.74-.49-7h5.45l-0.68,1.07h4l-0.14-.21a3.94,3.94,0,0,1,1.31-.81,1.38,1.38,0,0,1,.81,1h3.78l0.28-1h1.43l0.2,1h3.83l0.26-1h1.45l0.21,1h3.9l0.14-1c0.86-.08,1.76-0.42,1.61,1h3.94l0.18-.93c0.68-.5,1.49,0,1.67.94h3.78l-0.14-.23a3.09,3.09,0,0,1,1.18-.81,2.51,2.51,0,0,1,1.08.75l-0.16.3h3.78l0.26-1h1.41l0.25,1H73c-0.05-1.16.63-1.28,1.62-1l0.26,1h3.86l0.18-1h1.43l0.22,1h3.8L84.24,114a3.71,3.71,0,0,1,1.28-.74,2.29,2.29,0,0,1,1,.75Zm50.67-20.25a3.61,3.61,0,0,0,1.68.26c2.17-1,4.29-2.06,6.42-3.12L145,90.94,137.1,94.1l-3.18,1.2,0.62,1.1C136.89,95.55,137,95.41,137.06,94.06Zm-15.3,12.56,2.82-.57v2.08c1.56-.44,2-1.81,3-2.72a13.52,13.52,0,0,0-3,.25,27.83,27.83,0,0,0-2.82.95l-6.34,3.25C118.22,110.21,119.75,109.37,121.77,106.62ZM62,25a1.56,1.56,0,0,0-.41.23q-5.82,6.3-11.62,12.62a1,1,0,0,0-.09.32l5.46,1.24c2.75,0.62,2.77.62,4.22-1.83a3.6,3.6,0,0,0,.14-1.3c1.94-.21,5.81-5.8,6.26-9.61-1.73.37-2.79-.82-4-1.7,1.27,0,2.54,0,3.81-.11a1.18,1.18,0,0,0,.9-0.49c0.6-2,1.13-4.1,1.68-6.16a35.92,35.92,0,0,0-3.66,3.64C63.74,22.91,62.86,24,62,25Zm28.62,82.68c0.24-3.79.49-7.33,0.65-10.88a1.82,1.82,0,0,0-.7-1.13C88.36,93.77,86,92,84,89.94a7.81,7.81,0,0,0-6.46-2.32c-3.55.15-7,.19-10,2.34L67.37,90a1.07,1.07,0,0,0-.81,1.25c0,2,0,3.92,0,5.88v9.3a10.2,10.2,0,0,1,1.29.57c0.37,0.23.65,0.6,1,.82a2.13,2.13,0,0,0,1.06.36C76.77,108,83.63,108.72,90.59,107.71ZM118.8,68.35c2.06,3.68,4.11,7.15,6,10.73,0.78,1.51,1.67,2.32,3.4,2a2.4,2.4,0,0,1,.76.11L129,81.39l-1.76.86a3.37,3.37,0,0,0,.13,1.31c2.07,3.78,4.19,7.53,6.34,11.36l16-6.26-39-36.6c2.66,3.79,5.53,7.38,8.27,11.07,1.11,1.49,2.19,2.71,4.25,2.26a0.36,0.36,0,0,1,.09.13ZM117,45.12l1.2,1.41,33.23,38.65c1.78,2.07,1.78,2.07,4.26.85l7.13-3.51c-0.37-.35-0.63-0.59-0.9-0.83Q140.67,63.37,119.43,45A1.49,1.49,0,0,0,117,45.12Zm35.77,42.29L116.9,45.67c-2.23.68-4.25,1.27-6.25,1.92a1.43,1.43,0,0,0-.92.67,2.75,2.75,0,0,0,.47,1.16,1.65,1.65,0,0,1,0,.39l-0.7.47c0.27,0.28.46,0.48,0.67,0.67l38.48,36.11C150.42,88.74,150.42,88.74,152.77,87.41Zm-45.68,20.22a14.2,14.2,0,0,0,3.41-.22,28.23,28.23,0,0,0,5.49-2.27c4.36-2.49,8.62-5.15,13.09-7.84-0.41-.34-0.72-0.58-1-0.84-3-2.68-6.09-5.3-9-8.07-1.2-1.14-2.32-1.62-3.9-1a8.82,8.82,0,0,1-2,.33l-6.05.7v19.25ZM111,37.21l0.6,0.54Q137,59.67,162.47,81.62c1,0.91,1.63.33,2.45-.26L112.8,30.27l-0.22.21c1.24,1.32,2,3.08,3.77,4.3Zm-39.4,6.45a1.76,1.76,0,0,0,.29.15,60.41,60.41,0,0,0,26.94.81,4.89,4.89,0,0,0,2.27-.86c1.66-1.5,3.17-3.15,4.72-4.77a4,4,0,0,0,.49-1.09c-0.9.06-1.58,0.15-2.25,0.13-3.5-.12-7,0-10.5-0.48A53.35,53.35,0,0,1,73.39,30a4.49,4.49,0,0,0-1-.31,4,4,0,0,0,.44,1.08q1.93,2.37,3.94,4.67a7.67,7.67,0,0,0,1.23,1ZM95.08,65.38l0.1-.28L70.09,45.24a2,2,0,0,0,.39,1c2.88,4.33,5.8,8.62,8.61,13,0.94,1.47,1.83,2.68,3.81,2.22a0.22,0.22,0,0,1,.13.07l-10.58,6.8c2.35,2.12,4.57,4.13,6.81,6.11a1.1,1.1,0,0,0,.87.18,39,39,0,0,0,14.8-7.52,4,4,0,0,0-.75-1.05,4.54,4.54,0,0,0-1.25-.41L93,65.38h2.1ZM73.34,28.49c0.28,0.15.51,0.29,0.76,0.41a58.49,58.49,0,0,0,15.59,4.94,109,109,0,0,0,11.2.88c1.43,0.07,2.86-.29,3.4-2.12L70.06,17.81a25,25,0,0,0,2.69,3.94c1,1.15,1.49,2.7,3,3.36a2.19,2.19,0,0,0-.54.42C74.58,26.49,74,27.48,73.34,28.49ZM18.65,67.23c-5.33,8.79-4.91,20.71-.9,28.33,1.13-.9,2.22-1.83,3.39-2.67A1.86,1.86,0,0,0,22,91.08c-0.28-6.58-.62-13.16-0.73-19.75C21.19,69.29,20.53,68,18.65,67.23ZM72,45.82l-0.15.25L96.27,65.41l4.55-6.2Zm1.08,0L101.32,59l2.42-10.07A66.79,66.79,0,0,1,73.07,45.83ZM22.32,69.72l1.87,20.71,7.51-6L26.33,82l0.08-.3c0.42,0,.85,0,1.27,0a3.27,3.27,0,0,0,1.72-.21c1.39-1.3,2.63-2.75,4-4.18Zm88.84,39.62H29l0.93,1.6,0.82-1.1H32l0.2,1.08H36l0.31-1.08h1.38l0.23,1.06h3.85L42,109.82h1.39l0.28,1.09h3.82l0.27-1.08H49.2l0.14,1.06h3.89l0.21-1h1.48l0.18,1H59l0.25-1.05h1.42l0.19,1.06h3.86l0.23-1.05h1.35l0.27,1.05h3.84l0.28-1.06H72l0.21,1.06h3.86l0.22-1.05h1.44l0.23,1h3.85l0.22-1.07h1.41l0.27,1.08h3.85l0.15-1.07h1.52l0.14,1.05h3.9l0.22-1.07h1.4l0.23,1.08H99l0.21-1.08h1.39l0.31,1.09h3.77l0.25-1.06h1.42l0.26,1.07h4.91ZM80.06,61.45L69.51,45.6l-0.4,0a5.77,5.77,0,0,0-.52,1.62c0,2.52.07,5,.09,7.55s0,4.85,0,7.41h4.85a0.94,0.94,0,0,0,.57-0.08c0.48-1,1.36-.59,2.09-0.62C77.38,61.42,78.57,61.45,80.06,61.45Zm19,7.23-3.46-1.54a40.59,40.59,0,0,1-15.51,8c1.37,1.47,2.54,2.77,4.71,2.46,1.73-.25,3.51-0.18,5.26-0.3,0.88-.06,1.75-0.21,2.87-0.35l-2.65-2.29,0.27-.32,3,2.32c1.36-1,2.67-1.89,4-2.84A1.47,1.47,0,0,0,98,73.08C98.38,71.61,98.71,70.13,99.05,68.68Zm65.06,14a2.3,2.3,0,0,0-.52.08c-3.18,1.67-6.36,3.34-9.53,5a3,3,0,0,0-.88.79q-8,9.93-16,19.87a2.94,2.94,0,0,0-.45,2.67ZM118,86.91c3.72,3.31,7.36,6.55,11,9.76a1,1,0,0,0,.91.09c1.1-.55,2.16-1.17,3.29-1.8l-5.49-9.82c-1.24-2.21-1.23-2.2-3.29-.91a12.7,12.7,0,0,1-2,1C121,85.85,119.57,86.34,118,86.91ZM109,78.58a0.82,0.82,0,0,0,.09.41c1.58,1.47,3,3.3,5.56,2.79a13.19,13.19,0,0,1,2.39,0,1.17,1.17,0,0,0,.69-0.07c0.71-1.07,1.78-.57,2.7-0.62,1.28-.07,2.57,0,3.85,0-3.71-3.15-7.43-6-11.16-8.93a1.1,1.1,0,0,0-.84-0.25c-1,.35-1.93.77-2.87,1.2a0.74,0.74,0,0,0-.38.52c0,1.18,0,2.35,0,3.47l1.44,0.3,0.09,0.32Zm-4.83-32.14a10.08,10.08,0,0,1-2.72-1,2.29,2.29,0,0,0-2.16-.47,58,58,0,0,1-21.08.57c-2.23-.32-4.44-0.8-7-1.27,0.58,0.27.86,0.42,1.15,0.53A60.85,60.85,0,0,0,102,48.63C104,48.42,104,48.38,104.21,46.44Zm2.38-9.89-2.75-.88a6.94,6.94,0,0,0-1.8-.56c-1.71,0-3.43.15-5.14,0.07a63.12,63.12,0,0,1-22.83-5.8c-0.34-.15-0.69-0.27-1-0.41a1.8,1.8,0,0,0,.84.84c2.41,1.24,4.77,2.6,7.25,3.68a47.51,47.51,0,0,0,24.29,4C106.15,37.43,106.71,37.31,106.6,36.55ZM48.43,86.83a38.63,38.63,0,0,1-4.17,3.79,5.1,5.1,0,0,0-2.42,5.43,22.82,22.82,0,0,1,0,3.1c1.44-.44,2.61-0.84,3.81-1.13a1.72,1.72,0,0,0,1.41-1.38c0.67-2.42,1.37-4.83,2.18-7.21A1.93,1.93,0,0,0,48.43,86.83ZM32.27,84.56c-1.52,1.21-3.08,2.44-4.63,3.69-1.11.9-2.67,1.63-3.17,2.81s0,2.81.16,4.24,0.26,2.64.43,4.31C28.19,94.67,32.34,90.66,32.27,84.56Zm59,11.18,0.74-9a8.42,8.42,0,0,0-2.59-.54c-2.5.34-5,.87-7.65,1.36Zm17.64-44.09c0,3.58,0,6.85,0,10.13a1.47,1.47,0,0,0,.71,1Q112,64,114.35,65a14.89,14.89,0,0,0,2.36.52Zm4.22,19.88,11.78,9.16,0.18-.16-6.64-11.84Zm-69.7-2.16,6.67-1.61L43.45,57.51V69.37ZM69.58,75a23.4,23.4,0,0,0,9.4-.21l-3.55-3.21-3.31-3c-3.47,2.13-3.47,2.13-3.06,4.81l1.71,0.2Zm-3,11.55c4.16,1.6,7.37-.1,10.4-2.44a3.66,3.66,0,0,0-3.62-1.61c-1.35.12-2.71,0-4.07,0H66.62v4ZM51.89,96.45c-1.61.53-3,1-4.31,1.44a1.14,1.14,0,0,0-.63.62c-0.68,2.16-1.31,4.34-2,6.62l4.58,0.32ZM45,45.31c1.47,1.34,3,2.8,4.65,4.21a1.26,1.26,0,0,0,1,.13c2.47-.65,2.59-3.22,4.22-4.74l-5.54-.84a1.36,1.36,0,0,0-.59,0C47.48,44.48,46.26,44.88,45,45.31ZM136.65,108l0.24,0.09L150.71,90.9c-4.62,4.16-9.07,8.46-13.51,12.77a1.23,1.23,0,0,0-.33.72C136.77,105.58,136.72,106.78,136.65,108ZM57.74,57.58a16.93,16.93,0,0,1-1.51-1.42,1.31,1.31,0,0,0-1.85-.26c-1.63.75-3.31,1.39-5,2-0.74.29-1.52,0.48-2.55,0.8,2.78,0.81,5.26,1.56,7.76,2.24a1.13,1.13,0,0,0,1-.32C56.32,59.69,57,58.66,57.74,57.58Zm69.31,50.62,9,0.8v-4.55C132.38,104,129.52,105.49,127.05,108.21Zm-64-46.38,2.86-13-0.32-.25c-0.9.89-2.24,1.63-2.61,2.7A69.45,69.45,0,0,0,61,59.21a1.21,1.21,0,0,0,.22.94C61.75,60.7,62.34,61.17,63.06,61.82ZM57.59,40.42c-2.82-.64-5.34-1.22-7.87-1.77a0.92,0.92,0,0,0-.72.24c-0.69.7-1.34,1.45-2,2.21,0.51,0.7.93,1.33,1.43,1.9a1,1,0,0,0,.8.32A31.2,31.2,0,0,0,57.59,40.42Zm14.31-10c-1.8,1.59-3.48,3.09-2.46,5.76h7.3ZM54,65.24l-9.39-7.17C46.23,61,48,63.64,49.71,66.32c0.91,1.4,1.32,1.61,2.77.83A7,7,0,0,0,54,65.24Zm76.29,33.38a1.14,1.14,0,0,0-1.9-.45c-2.22,1.42-4.5,2.73-6.76,4.09l-6.1,3.68,0.09,0.31a13.47,13.47,0,0,0,3.65-.63c2.91-1.39,5.7-3,8.55-4.58l-0.2-1ZM95.69,99.75l0.41-.06,4.77-11.39c-1.79.22-.85,2.08-2,3l0.58-3.18-1.84-.21a2,2,0,0,0-.2.38c-0.76,3.35-1.53,6.69-2.22,10.05A3.36,3.36,0,0,0,95.69,99.75Zm-1-1.27,2.37-10.71-1.91-.3L94,92.57,93.6,92.5l1.06-5.15-1.43-.19c0,3,.07,5.89,0,8.75A2.31,2.31,0,0,0,94.69,98.48ZM50,88.47l-2.7,9,0.78-.21c4-1.25,4-1.25,4.13-5.45a1.88,1.88,0,0,0-.31-1.09C51.34,90,50.72,89.33,50,88.47Zm5.88,5.89c0.48-2.16.93-4.25,1.4-6.33,0.6-2.69.6-2.69-2.24-3.55-0.34,1.68-.75,3.33-1,5C53.75,91.33,53.76,93.17,55.85,94.36Zm-0.67-39.1c-1-1-1.91-1.67-2.66-2.48a1.19,1.19,0,0,0-1.78-.12c-2,1.33-2.83,3.53-4.2,5.32L46.8,58.4Zm22.8,29c1,0.87,1.92,1.68,2.86,2.46a1.11,1.11,0,0,0,.75.25c2.24-.29,4.47-0.61,6.7-0.92-2.53-1.22-5-2.24-7.56-3.22A1,1,0,0,0,80,83C79.33,83.33,78.72,83.77,78,84.25ZM42,92.13l6.23-5.68-1.52-1.79c-4.77,2.22-5,2.59-4.83,7C41.89,91.73,41.9,91.77,42,92.13Zm-0.13,12.69c2.58,0.51,2.58.51,3.29-1.84,0.17-.57.34-1.14,0.51-1.72l0.89-3c-1.5.45-2.76,0.8-4,1.22a1,1,0,0,0-.65.66C41.84,101.67,41.87,103.26,41.87,104.82Zm34-66.48H69.28a29.7,29.7,0,0,0,0,3.46,3.12,3.12,0,0,0,.87,1.55,1.1,1.1,0,0,0,1-.14C72.76,41.66,74.25,40.06,75.88,38.34Zm39.63,5.71-5.86-6.82v6.82h5.86ZM120,65.17l-9.86-12.71a1.85,1.85,0,0,0,.29,1c1.81,3.24,3.74,6.42,5.39,9.74C116.77,65,117.87,65.87,120,65.17ZM52.54,49l0.17,0.26c2.18-.68,4.35-1.43,6.56-2a2.2,2.2,0,0,0,1.89-2.38c-1.83,0-3.65,0-5.48,0a0.83,0.83,0,0,0-.59.3C54.22,46.42,53.39,47.71,52.54,49ZM29.31,100.55c1.19-.37,2.1-0.58,2.33-1.81,0.39-2,.86-4.06,1.28-6.09,0.34-1.64.68-3.28,1-4.93a9.89,9.89,0,0,0-2.45,3.55C30.62,94.21,30.07,97.24,29.31,100.55Zm4.81-2.8a2.81,2.81,0,0,0,2.07-2.45c0.15-1.3.53-2.58,0.8-3.87q0.74-3.54,1.47-7.09L38.16,84c-0.45.27-1.22,0.47-1.3,0.83C35.9,89.08,35,93.35,34.13,97.75Zm75.46-70.5v7.07H115ZM69.2,24.83h5.29L69.2,17.76v7.08ZM52.55,52.24c0.89,0.81,1.73,1.6,2.6,2.34a0.81,0.81,0,0,0,.63.14,5.27,5.27,0,0,0,4.07-5.27Zm96.85,39-0.12-.19c-3.57,2.72-7.09,5.52-10.75,8.11-1.48,1-1.7,2.27-1.53,4Zm-113-6.93L36,84.07a2.38,2.38,0,0,1-.3.63c-1.15,1.26-1.27,2.88-1.6,4.43L32,99.1A2.38,2.38,0,0,0,33.86,97c0.7-3.69,1.49-7.35,2.25-11C36.22,85.45,36.32,84.89,36.43,84.33ZM22.05,92.71l-4.21,3.35c1.41,3.27,1.75,3.53,4.21,3.32V92.71ZM52.11,71.83l0.21-.3,1.61,1,0.78-3.19c-0.67.21-1.14,0.33-1.58,0.5a3.54,3.54,0,0,0-1.66.73c-1.07,1.66-2,3.44-3,5.21l1,0.81,4.29-3.32Zm-8.54,5.85c0.46,0.1.79,0.19,1.14,0.25,0.61,0.11,1.5.5,1.79,0.23A7.66,7.66,0,0,0,47.83,76a0.6,0.6,0,0,0-.22-0.38l-4-3.78v5.88Zm73.08,9.06,0.09-.42a3.58,3.58,0,0,0-1.35-.78c-2.74-.07-5.49,0-8.23,0V88ZM55.52,44.5c2-.09,3.67-0.15,5.32-0.27a0.93,0.93,0,0,0,.66-0.51c0.25-.7.39-1.44,0.6-2.25-1.22-.29-2.33-0.58-3.46-0.8a1,1,0,0,0-.78.35C57.12,42,56.44,43.12,55.52,44.5Zm3.66,24.9a19.14,19.14,0,0,0-1,2c-0.25.67-.25,1.43-0.53,2.08-0.55,1.25-.07,1.95,1,2.63,0.84,0.55,1.22.37,1.43-.52a33.42,33.42,0,0,1,.77-3.37C61.27,70.84,60.8,70,59.18,69.41Zm90.09,21.12-0.15-.17-9.2,4.85c-1.84,1-2,1.25-1.43,3.53ZM72.14,68.08l5-3.35H68.86L68.75,65ZM30.7,92.47l-0.21-.09-5.12,7.54,3.53,0.44ZM51.12,50.69l0.14,0.63a4.05,4.05,0,0,0,1.63.19c2.18-.75,4.32-1.63,6.48-2.44a1.53,1.53,0,0,0,1.1-1.71c-2.49.73-4.95,1.4-7.36,2.18A10.55,10.55,0,0,0,51.12,50.69ZM21.82,69.34l-0.34,0,1.15,22,0.44,0.07a3.78,3.78,0,0,0,.4-1.27c-0.47-6.65-1-13.29-1.5-19.94C21.95,70,21.87,69.65,21.82,69.34Zm28.64,2H44.2l-0.09.32,4.07,3.79ZM90.71,85.46c-1.21-.46-2.15-0.76-3-1.18s-1.74-1-2.45-1.36L83,81.28c1.64-.51,3.38.42,4.79-0.72-2.42-.08-5-0.73-6.8,2,2.76,1,5.52,2,8.29,2.94A4.7,4.7,0,0,0,90.71,85.46Zm-46.49-29-0.39.42,1.94,1.48,3-4.5h-5Zm-2.39,2c-2.82,3.13-2.38,7.28-3.65,10.95,0.83,0.26,1.33.3,1.52-.65C40.38,65.36,41.12,61.93,41.83,58.5Zm13.8,36.76L55.32,95c-0.49.38-1.39,0.75-1.4,1.16-0.12,2.85-.07,5.7-0.07,8.7,1-2.81,1.89-5.5,2.76-8.22a2.9,2.9,0,0,0-.53-1.14l-1.31,5.6L54.41,101Zm51.5-43.55c-1.2,1.27-2.41,2.48-2.61,4.31a26.82,26.82,0,0,1-.56,2.69c-0.34,1.54-.34,1.54,1.34,1.93ZM56.38,94l0.32,0.22a2.63,2.63,0,0,0,1-.76c0.87-2.38,1.66-4.8,2.49-7.26l-1.92-.56ZM43.88,50.87l4.37-.74-4.37-4.88v5.62ZM64,36.48c1.18-.56,2.12-0.9,2.4-2,0.55-2.15,1.06-4.32,1.6-6.56C65.19,30,64.74,33.13,64,36.48Zm62,72.09L126,109l10.13,2.4v-2ZM82.41,78.29V78c-2.2-.24-4.41-0.39-6.59-0.73s-4.36-.85-6.53-1.28A37.76,37.76,0,0,0,73.9,78.8c0.58,0.28,1.82.39,2,.1,0.56-.92,1.31-0.57,2-0.59C79.38,78.26,80.9,78.29,82.41,78.29ZM55.05,63.15L52.38,61.5l1.34-.07,0-.2L47.7,59.47l-0.14.28,6.58,5ZM27.16,72l0,0.28c0.83,0.55,1.63,1.13,2.49,1.64a1.28,1.28,0,0,0,1,.13c1.46-.55,2.88-1.17,4.33-1.76a7.26,7.26,0,0,1,.79-0.23l-0.4-.58Zm82.63-3.44-0.11.25c0.87,0.68,1.74,1.37,2.63,2a0.82,0.82,0,0,0,.63.2c1.54-.75,3.05-1.54,4.57-2.32l-0.12-.16h-7.6Zm-42.44-21c-0.89.52-3.62,11.29-3.62,14.56a1.43,1.43,0,0,0,.69-0.8c0.66-3.44,1.27-6.9,1.91-10.35,0.07-.38.19-0.76,0.29-1.14l0.3,0.08-0.52,3.33,0.34,0.22a1.88,1.88,0,0,0,.59-0.73C67.38,51.07,67.35,49.37,67.35,47.6ZM81.51,77.66c-1-1.81-2.32-2.82-4.28-2a1.63,1.63,0,0,1-.59.06H70.77l0,0.36Zm-1.25,9.52,0.1-.28c-0.83-.71-1.65-1.44-2.5-2.13a0.69,0.69,0,0,0-.62-0.08c-1.39.78-2.75,1.6-4.27,2.49h7.28Zm13.83,15.68-0.34-.08a21.68,21.68,0,0,1,.55-2.48c0.38-1.1-.07-1.69-1.21-2.21v8.74c0.91-2.18,1.76-4.11,2.51-6.08a2.46,2.46,0,0,0-.34-1.18l-0.34.08ZM52.35,90.22l0.53-6.44c-0.88.13-1.52,0.15-1.88,1.1C50.22,87,49.86,88.85,52.35,90.22Zm53.35-41.4-0.29-.36a3.17,3.17,0,0,0-1.32.94c-0.67,2.44-1.2,4.92-1.8,7.48C105,54.75,105,51.63,105.7,48.82ZM40.22,84a3.17,3.17,0,0,0-1.34.78c-0.48,1.8-.81,3.64-1.18,5.46l0.39,0.17c1.32-.47.37-2.15,1.31-3.12l-0.22,3,0.39,0.2a2.1,2.1,0,0,0,.62-0.82C40.25,87.9,40.22,86.14,40.22,84Zm22.7,3.9,0.64-5.52c-0.79.29-1.63,0.34-1.79,0.69-0.67,1.54-1.14,3.16-1.67,4.75,0.91,0.32,1.22,0,1.35-.75s0.38-1.66.58-2.49l0.34,0.09-0.64,3.24h1.19Zm1.95-23.19c-2,.09-2.17.21-2.25,1.77l1.85-1.27,0.17,0.25A3.77,3.77,0,0,1,64,66a4.38,4.38,0,0,0-2.21,3.57,1.18,1.18,0,0,0,1,1.57L63.63,67l0.3,0.07L63.76,68.6h1.11V64.67ZM41.11,54l-0.27-.33a2.21,2.21,0,0,0-1,.62c-0.72,2.88-1.35,5.77-2.07,8.9C40.47,60.47,40.15,57,41.11,54ZM62.2,52.28L62,52.18l-3.68,5.33,2.16,2ZM83.61,78.09l-0.06.21h3.51l0.08,0.29-2.08,1.17a6.46,6.46,0,0,0,6.86-2.14ZM104.21,66l1-4.77-1.62-.74L102.34,66h1.87Zm10.28,0,0.13-.36-5.54-2.58V66h5.41ZM35.2,72.65l-4.65,1.93L34.21,77Zm66.42-12.93-1.3,5.53L102,65.49c0.28-1.29.48-2.63,0.89-3.91S102.82,59.9,101.62,59.72Zm31.71,40.08L129,104.57c2.54,0.18,3.69-1.67,5.36-2.72ZM64.08,74.58c-2,.18-3,1.5-4.44,2.27L62.58,79ZM36.34,69.86c0.67-.32,1.41-0.45,1.48-0.74,0.57-2.25,1-4.52,1.53-7C37.2,64.3,36.93,66.92,36.34,69.86Zm5.09-5.59h0.33l-0.17,2a2.66,2.66,0,0,0,.85-0.74c0-2.21,0-4.42,0-6.63l-0.29,0L40,69.47l0.44,0.09ZM101.1,60l-0.2-.16-4,5.44h2.93ZM52.56,105.73l0.46-.22v-9.6a2.24,2.24,0,0,0-.57.78c-0.21,2.75-.4,5.5-0.52,8.26A1.94,1.94,0,0,0,52.56,105.73Zm-2.26-62,0,0.18c1.52,0.15,3,.32,4.57.45A0.68,0.68,0,0,0,55.3,44c0.58-.84,1.13-1.69,1.81-2.72Zm57.9-6.28c-2.56,1.79-2,4.42-2.75,6.66a1.81,1.81,0,0,0,1.33-.36C107.31,41.74,107.7,39.73,108.21,37.41ZM54.3,72.91c1.27-1,2.37-1.78,3.41-2.65,0.66-.56.69-2,0.28-1.92a5.81,5.81,0,0,0-2.79,1.39C54.6,70.44,54.61,71.66,54.3,72.91Zm51.42-32.5-4.07,3.73a20,20,0,0,0,2.52,0,1.23,1.23,0,0,0,.81-0.72C105.32,42.25,105.55,41.09,105.72,40.4Zm-59.33.65-2.47-3.3v6Zm56.84,29.39c-2.55.85-2.58,2.94-2.88,4.93,1.39,0,2.16-.49,2.26-1.91A24.37,24.37,0,0,1,103.22,70.44ZM60.54,106.16l0.5-2.81H58.2l-0.49,2.58ZM24.21,99.6l-0.62-7.89-0.39-.08a3.74,3.74,0,0,0-.47,1.27c0.06,2,.24,4,0.32,6C23.08,99.67,23.41,99.84,24.21,99.6Zm94-55.62L111,37.81c1.32,1.89,2.85,3.57,4.25,5.35A2.43,2.43,0,0,0,118.16,44ZM59.85,52.19c2.21-.84,3.43-2.29,3.33-4.66C60.65,48.61,60.33,49,59.85,52.19ZM39,43.47a12.24,12.24,0,0,0,2.06,0A1.27,1.27,0,0,0,42,42.77c0.4-1.45.69-2.92,1-4.39a0.53,0.53,0,0,0-.5.34Zm18.58,59.9c-3.13-.16-2.78-0.58-3.41,2.26C57.8,106.15,56.94,106.17,57.62,103.37Zm48.29-42.22h0.39l0.76-5,0.32,0.05-0.21,2.64c0.76-.56.93-7,0.37-8a13.05,13.05,0,0,1-.12,1.54c-0.5,2.58-1,5.16-1.54,7.74A4.37,4.37,0,0,0,105.91,61.15Zm-0.79-28.66,2.24,1,1.25-5.33L108.38,28ZM92.3,97.09l-0.37.08c-0.18,3.26-.37,6.51-0.54,9.77a1.56,1.56,0,0,0,.34.63,2.24,2.24,0,0,0,.44-0.81c0.13-2.87.23-5.74,0.31-8.61A5.28,5.28,0,0,0,92.3,97.09ZM53.4,74.44l-0.22-.12L49.76,77A8,8,0,0,0,51,78.07c0.54,0.31,1.25.59,1.53-.31C52.87,76.67,53.12,75.55,53.4,74.44Zm1.16-.39v4l1.27,0.71C57,75.76,56.9,75.24,54.56,74.06Zm7,29.31-0.26,2.8,2.28,0.18a4,4,0,0,0,.56,0A2.49,2.49,0,0,0,61.53,103.36ZM124.44,105c3.21,0.58,5.06-1.06,6.66-3.62ZM96.13,83.23a3.27,3.27,0,0,0,.67,1.33,13.66,13.66,0,0,0,3.21,0,3.27,3.27,0,0,0,.55-1.32H96.13Zm5.06-14.59H99.52l-1,4.23C100.67,72.16,101.1,70.55,101.19,68.63Zm0.94,7c-2.22.27-2.39,0.52-2.6,3.56,1.78,0.13,1.82.1,2.16-1.47C101.84,77,102,76.38,102.13,75.6Zm13.63,7.64h-4.47a3.4,3.4,0,0,0,.73,1.34,14.72,14.72,0,0,0,3.24-.07A3.21,3.21,0,0,0,115.76,83.24Zm0.09-.08a3.61,3.61,0,0,0,.68,1.4,17.43,17.43,0,0,0,3.25,0,1.16,1.16,0,0,0,.35-0.87,0.82,0.82,0,0,0-.62-0.49C118.41,83.13,117.3,83.16,115.85,83.16Zm-54.5-.52H58.92l-0.58,2.58,2,0.56Zm45.44,0.51a3.76,3.76,0,0,0,.75,1.44,14.83,14.83,0,0,0,3.14-.06,1.43,1.43,0,0,0,.36-1,1,1,0,0,0-.71-0.38C109.3,83.13,108.27,83.16,106.79,83.16ZM57.29,61.59c1.09-.49,2.24.59,2.87-0.75,0.41-.88-0.24-1.68-2-2.63ZM44.56,37.45l-0.15.22,2.29,3,2.1-2.3ZM64.72,41.6l0.71-3.12c-2.06-.44-2.22-0.27-2.64,2.64ZM34,78.13L33.74,78l-3.51,3.69c0.78,0,1.57,0,2.34,0a1,1,0,0,0,.68-0.59C33.53,80.12,33.73,79.12,34,78.13ZM67.29,38.4c-1.49-.13-1.85.49-2,3.32l2,0.41V38.4Zm2.06,42A3.46,3.46,0,0,0,70,81.75a16.43,16.43,0,0,0,3.36-.1,3.62,3.62,0,0,0,.46-1.33H70.21C70.05,80.32,69.9,80.34,69.36,80.39Zm-30.61-7c-1.59,1.09-1.58,1.15-2.2,4.1a1.12,1.12,0,0,0,1,1.58ZM70.48,79l0.12-.29c-1.37-.43-1.95-2.58-4-1.71v2h3.83ZM53.21,80.42a3.23,3.23,0,0,0,.59,1.27,16.44,16.44,0,0,0,3.33,0,3.3,3.3,0,0,0,.51-1.29H53.21Zm4.55,0a3.37,3.37,0,0,0,.71,1.34,14.45,14.45,0,0,0,3.25-.06,3.25,3.25,0,0,0,.44-1.28h-4.4Zm54.52-9L109.13,69v3.77ZM71.55,30l-2.23-2.6v5Zm0.21,38.29L69,65.79v4.39ZM31.92,89.09c1.1-1.49,2.66-2.7,2.69-5-0.64.22-1.51,0.28-1.61,0.6C32.52,86.09,32.26,87.6,31.92,89.09ZM99.46,76.27c-2,.18-2.37.71-2.31,3.16C99.13,79.55,99.32,79.28,99.46,76.27ZM58.36,100.66c-2.61-.36-2.79-0.24-3.21,2.09h2.73ZM101,81.76h4.06V79.17Zm3.86,6c0.11-.85-0.88-2.28-1.74-2.26-1.41,0-1,1.42-1.67,2.26h3.4ZM66.62,89.89l4-2-0.06-.23-4-.36v2.59Zm42.11-52-0.16-.06-1.38,6.32,1.53-.08V37.88Zm27.36,63.23L132.25,104l0.1,0.23,3.74-.44v-2.71ZM108.8,79.33c-0.44.93-2.33,0.65-1.61,2.3h4.18Zm-3.85-8.22,0.37,0,0.11-2.35c-2.68,1.44-1.81,4-2.43,5.95,1.21-1.08.78-2.78,1.47-4.13ZM61.07,36.27a9.73,9.73,0,0,0,1.72,0,1.24,1.24,0,0,0,.85-0.56c0.38-1.16.65-2.35,1-3.78-0.37.39-.57,0.58-0.74,0.79ZM58.46,82.64c-0.46,0-.77-0.06-1.09-0.06H55.63c-0.61,1.52-.43,1.7,2.27,2.4ZM50,51.88c-0.66-.55-1.15-1.28-1.59-1.26a33.4,33.4,0,0,0-4.32.72,1.45,1.45,0,0,0-.26.54H50ZM93,87l-0.55,0L92,96.55l0.54,0ZM17.43,96.38l-2.77,2.26,4.2,0.5ZM97.9,76c2-.18,2.31-0.58,2.42-3.5A3.39,3.39,0,0,0,97.9,76ZM40.56,51l0.34,0.32a2.4,2.4,0,0,0,.87-0.77c0.39-1.55.68-3.12,1-4.89C40.84,47.17,41.16,49.28,40.56,51Zm21.7-10,0.67-2.66-0.25-.19L59,40.29ZM45.36,69.38l0,0.17h5.66l0.19-.27c-0.44-.34-0.93-1-1.31-1C48.4,68.54,46.88,69,45.36,69.38Zm12.39,1.77L57.51,71l-2.84,2.21,2.2,1.62Zm0.62,31.67c0.77,0,1.43,0,2.1,0a0.67,0.67,0,0,0,.74-1,3.14,3.14,0,0,0-1.49-1.26c-0.86-.32-1,0.42-1.12,1.08C58.54,102,58.46,102.34,58.36,102.82Zm3.1-31.74-1,4.74,1.53-1c0.16-.73.23-1.17,0.36-1.6C62.54,72.37,62.81,71.54,61.46,71.08Zm-20.7-23-0.2-.1-3.35,3.65c1-.1,1.65-0.13,2.3-0.26a1,1,0,0,0,.62-0.55C40.39,49.94,40.56,49,40.76,48.1ZM64.59,82.66l-0.47-.08a20.21,20.21,0,0,0-.54,5.35,1.36,1.36,0,0,0,1-.66C64.63,85.73,64.59,84.19,64.59,82.66ZM34.4,78.16l-0.8,3.55c0.74-.12,1.47.43,1.76-0.63C36,79,36,79,34.4,78.16Zm59,29.34c2.37,0.26,2.57.12,2.82-1.95C94.12,105.24,94,105.33,93.44,107.5Zm-29.18-4.8v-2.08H61.87C61.73,102.19,62.6,102.94,64.26,102.7ZM108,48.61l-0.48-.54a3.65,3.65,0,0,0-1.34,1.07,32.43,32.43,0,0,0-.9,3.79c1.74-1.72,2.08-2.45,1.8-3.39Zm-70.87,56,0.21-2.27-2.06-.23-0.4,2.3ZM59,53.44l-3.12,1.8L58,57.17Zm8.15,11.24c-0.6.35-.84,4.31-0.42,6.82C67.37,71.07,67.65,66.48,67.12,64.68Zm7.32,15.43L74,80.57a2.68,2.68,0,0,0,.6,1.2,3,3,0,0,0,3.35-.4Zm27,27.48,0.3-2.08c-2.35-.16-2.35-0.16-2.4,2l0.94,0h1.17ZM62,44.07c2.25-.18,2.25-0.18,2.52-2l-1.93-.48c-0.21.74-.39,1.34-0.55,2A3.33,3.33,0,0,0,62,44.07ZM52.19,69.48c2.32,0,3-.61,3-2.42C53.07,67.33,52.82,67.53,52.19,69.48ZM34.94,76c1.93-1.39,2.16-1.86,2.21-4.07C34.72,72.36,35.63,74.6,34.94,76Zm11,3.44c-0.92-.32-1.87-1.4-2.56-0.23s0.74,1.57,1.36,2.36Zm0.24,0.47L45.29,81.6h4.25l0.07-.33ZM33.51,101.2c0.66-.28,1.39-0.36,1.51-0.68a18.85,18.85,0,0,0,.64-2.93C33.9,98,33.68,99.32,33.51,101.2Zm4,3.47h2.34v-1.91l-2.06-.28Zm61.41,0.89c-2.12-.27-2.21-0.2-2.44,1.93C98.63,107.78,98.71,107.72,98.95,105.55Zm-34.66-5.5V98.23H62.11L62,100.06h2.32ZM56.07,100c2.07,0.35,2.53.25,2.56-.72a1.33,1.33,0,0,0-.68-1.05C56.66,97.87,56.43,98.13,56.07,100ZM42.31,71.51l-0.3,0v6.22h0.3V71.51ZM62.44,95.73l-0.23,1.9h2.14v-1.9H62.44Zm-0.72,1.91L62,95.82c-2-.41-2.26-0.23-2.34,1.82h2.1Zm58.7-14.41a3,3,0,0,0,.61,1.21c0.85,0.44,2.61-.25,3.22-1.21h-3.83ZM35.65,100.77c2.12-.44,2.28-0.65,2-2.54C35.82,98.07,35.61,98.33,35.65,100.77ZM40.47,59c0.41-.94,2-1.41,1.38-2.51a9.65,9.65,0,0,0,.53-1.74A2.21,2.21,0,0,0,42,53.8a2.48,2.48,0,0,0-.57.76C41.06,56,40.78,57.5,40.47,59Zm63.68-3.18-0.2-.13-1.52,2.08c-1,1.33-.89,1.51.84,2ZM56.61,64.06l-0.52,2.06c1.09-.47,2.63.15,3.19-1.45Zm35,19.17H87.73a3,3,0,0,0,3.1,1.24A3.42,3.42,0,0,0,91.61,83.23Zm1.5-5.75L90,79.7,90.1,80l3-.19V77.48ZM104.66,105v-1.87h-2.05L102.36,105h2.3ZM96.29,80.07a11.16,11.16,0,0,0-1.65.13,5.38,5.38,0,0,0-1.11.53c0.31,0.47.33,1.09,1.21,1.15C96.13,82,96.21,81.18,96.29,80.07ZM56.53,78.94h4.64L59,77.28Zm37,4.27v1.6c1.82,0.28,2.5-.2,2.2-1.6h-2.2Zm3.63,19.89c-2.18-.21-2.28-0.13-2.59,1.84C96.67,105.23,96.72,105.19,97.15,103.1ZM68.39,24.83V20.15l-0.09,0L67,24.83h1.37ZM98,85.55l-0.36,1.84,1.94,0.27,0.4-2.11H98ZM62,95.22l0.22-1.87c-1.88-.3-2-0.17-2,1.87H62ZM53.53,83.67c-0.7,1.93-.81,7.31,0,7.8v-7.8Zm51.19,16.73-1.77.1-0.19,2h2v-2.1ZM69.13,80.47H66.67V82C68.65,82.15,69.15,81.84,69.13,80.47Zm33.11,22c0.06-.44.11-0.75,0.15-1.06s0.07-.6.1-0.89c-1.82-.27-1.86-0.23-2.07,2h1.82ZM64.67,79V74.81l-0.2,0L63.09,79h1.59Zm2.58-18.3C65,60.32,64.74,60.49,65,62.1h2.25V60.68ZM88.37,80.8l0.11,0.33c1.26,0,2.53,0,3.79,0a2.38,2.38,0,0,0,.83-0.41,2.65,2.65,0,0,0-.9-0.41,19.54,19.54,0,0,0-2.61.1A5.84,5.84,0,0,0,88.37,80.8Zm-24,14.41V93.27H62.75l-0.27,1.95h1.86Zm-31.05,6.63-0.52,2.49,1.57,0.07,0.38-2.32Zm63.8,3.21c1-.24,2.06.63,2.37-0.9,0.12-.61.05-1-0.63-1.14C97.31,102.75,97.5,104,97.09,105.06ZM53.21,80.48H49.28c0.85,1,2.46,1.55,3.28,1.14A3,3,0,0,0,53.21,80.48Zm51.48-14.62,0.25,0.3a1.92,1.92,0,0,0,.74-0.54c0.56-1.48.53-3.62-.09-4.07Zm-64.16,6.6-0.11,0-0.92,5.21,0.3,0.25a2,2,0,0,0,.71-0.72C40.56,75.6,40.53,74,40.53,72.46Zm-0.75-.2a14.93,14.93,0,0,0-1.24,5.49C39.54,76.07,39.6,74.15,39.78,72.26Zm25.68-14L65.15,60h2.07V58.26H65.46ZM68.31,29.2l-0.18,0-1.2,5.07,0.28,0.15a3.6,3.6,0,0,0,1-1.33A33.65,33.65,0,0,0,68.31,29.2Zm35.86,37.66c-0.85,0-1.64,0-2.42,0a1.63,1.63,0,0,0-.56.64A7.88,7.88,0,0,0,103,68C103.58,68.08,104.38,68,104.18,66.85Zm-1,21.6c-1.89-.4-1.9-0.39-2.39,1.46C102.91,90.29,103,90.25,103.18,88.45Zm0.27-13.15L103,75.12c-0.87,1.06-.77,2.44-1.12,3.86l2.5-.55c-1.1-.26-2.14-0.3-1.23-1.65A3.89,3.89,0,0,0,103.45,75.31ZM40,95.75H38.52l-0.21,1.88H40V95.75ZM101.8,83.21a9.07,9.07,0,0,0,1.47,1.14,1.77,1.77,0,0,0,1.33.16,2.73,2.73,0,0,0,.48-1.29H101.8Zm12-16.56-0.09.2a1.82,1.82,0,0,0-.59,0,10.14,10.14,0,0,0-1,.48,10.07,10.07,0,0,0,.92.69,0.74,0.74,0,0,0,.57.07c0.53-.22,1-0.5,1.54-0.75ZM48.13,43.44l-1.5-2-1.78,2h3.27Zm56.79,47.18c-1.81-.28-1.86-0.23-2,1.62h2V90.62ZM82.42,80.43H78.48a3.64,3.64,0,0,0,.78,1.16C80.07,82,81.55,81.45,82.42,80.43Zm-57.1,22.39,2.9-1.41-0.07-.25-3-.34Zm-3-2.41-2.4-.35,2.4,3.14v-2.79ZM70.45,26.8L70.36,27l2.53,1.28L74,26.59ZM99,79.83a6.27,6.27,0,0,0,.45,1.51,1,1,0,0,0,.89.19,18.74,18.74,0,0,0,1.18-2Zm2.38-8.77c0.79-.85,2.13-1,2.11-2.4C101.58,68.45,101.44,68.61,101.41,71.05ZM71.91,63c-0.19,1.27.73,1.16,1.42,1.15S75,64.29,74.93,63h-3Zm28.42,37.5c-1-.07-2-0.36-2,0.88,0,0.81.65,1.13,1.52,1.19ZM97.54,85.6c-2.12-.24-2.24-0.15-2.1,1.47l1.71,0.23ZM38.25,98.2L38,100.11c2.15-.38,2.15-0.38,1.9-1.91H38.25Zm68.88-24.89,0.35,0.05c0.66-1.11.18-2.43,0.3-3.64a4.23,4.23,0,0,0-.23-1.17l-0.42.08v4.67Zm6.69,38.22c0.62-1.4-.85-1.86-1-2.91C111.67,109.81,112,110.75,113.82,111.53ZM61.67,98.26H59.36c0.43,1.42,1,1.88,2.1,1.68Zm32.52-21,2.43,1.87,0.5-2.37Zm8.88,22.7h1.69V98h-1.41ZM59.44,95.67a7.53,7.53,0,0,0-1.56,0,1,1,0,0,0-.51.63c0.39,0.54.87,1,1.54,1.77Zm-25-13.2c-0.18,1.16.65,1.15,1.32,1.16s1.63,0.14,1.46-1.16H34.44ZM98.81,98C97.18,97.79,97,98,96.68,99.88,98.43,100.11,98.47,100.08,98.81,98ZM40.52,82.75l-0.21-.34a21.07,21.07,0,0,0-2.23,0,1.61,1.61,0,0,0-.44.7,9.25,9.25,0,0,0,2,.39A2.29,2.29,0,0,0,40.52,82.75Zm4.16-.26H41.9c0,1.29.86,1.14,1.55,1.12S44.91,83.65,44.68,82.49Zm17.5-15.75-0.3-.38c-0.85.39-1.72,0.75-2.54,1.21a1.19,1.19,0,0,0-.32.86,0.89,0.89,0,0,0,.65.27C60.53,68.08,61.34,67.4,62.17,66.75Zm73.82,32-1.87,1,0.81,1.53C136.27,100.83,136.26,99.9,136,98.72ZM63.71,63H60.77c-0.09,1.31.85,1.13,1.54,1.13S63.86,64.25,63.71,63ZM63.55,49.13l3.17-4.42C65.4,45.95,63.3,46.6,63.55,49.13ZM51.46,100.74H51.23l-1.18,4.57,0.27,0.26a2,2,0,0,0,.78-0.69C51.28,103.51,51.35,102.13,51.46,100.74Zm52.36-66.48h3.33l0.08-.33-2.35-1.09ZM61.66,51.91c-2.08.56-2.58,2-2.76,4ZM46.58,82.17l-1.46.71a3.41,3.41,0,0,0,1.38.7A4.12,4.12,0,0,0,48,82.84ZM98.91,99.83c1.64,0.34,1.73.25,1.92-1.77C99.3,97.77,99.27,97.8,98.91,99.83Zm-75.79.81,0.2,2.7c1.08,0.08,1.27-.41,1.08-1.18S24.74,100.37,23.11,100.64Zm9.72-18.5-1.46.71a3.73,3.73,0,0,0,1.37.74,3.31,3.31,0,0,0,1.34-.65ZM97.52,97.4c1.77,0.15,1.82.1,2.13-1.95C97.89,94.91,98.11,96.48,97.52,97.4Zm-33.66-53c-2.21.11-2.21,0.11-2.41,1.79C63.25,45.76,63.83,45.33,63.86,44.4Zm45-10.47V29.56c-0.41,1.09-.65,2.21-1,3.3C107.72,33.62,108,33.9,108.89,33.93Zm-2.74,12.34c-1.48-.17-1.66.06-1.63,2C106,48.21,106,48.2,106.15,46.27ZM58.53,92.66c1.71,0.23,1.71.23,1.93-1.76C59,90.65,59,90.65,58.53,92.66ZM107.72,66V64.15c-1.49-.19-1.62,0-1.44,1.87h1.44ZM97.64,74.23l-3.23,2.35C97.2,76.55,97.33,76.45,97.64,74.23Zm16.23,34.43,3.81-2.07C115.31,106.46,114.05,106.89,113.87,108.67ZM65.84,56l-0.21,1.73h1.62V56H65.84ZM34.47,69.38l0.19,0.41A3,3,0,0,0,36,69a12.55,12.55,0,0,0,.59-2.51l-0.26-.19a2.76,2.76,0,0,1-.18.45C35.58,67.66,35,68.52,34.47,69.38Zm67.09,26.11c-1.43-.19-1.55,0-1.84,1.94h1.34Zm-53.23-13c-0.08,1.41.88,1.18,1.61,1.16s1.23-.25.94-1.16H48.33ZM57.7,95.13c1.94,0.37,2.25.11,2-1.73C59,93.89,57.73,93.76,57.7,95.13ZM68.81,63c0.29,1.27,1.14,1.3,2,1a3.81,3.81,0,0,0,1-1h-3Zm34,35c-1.52-.12-1.6,0-1.66,1.88C102.75,100.11,102.81,100,102.77,98Zm-72,4.59c-1.89,0-2.11.11-2.08,1.46l1.75,0.12Zm74-5.16v-2c-1.26-.08-1.4.15-1.23,2h1.23ZM54.07,74.12l-0.11,0-1.1,4.19,1.21-.07V74.12Zm25.76,8.16-3.57.32C77.63,84.21,77.85,84.19,79.83,82.28ZM31.08,104.1c1.36,0.28,1.66-.12,1.51-2C31.16,102.23,31.12,102.3,31.08,104.1ZM42.72,86.47l3.51-2.16C43.72,84,43.61,84.11,42.72,86.47Zm50.93-9v2.25l2.59-.12ZM36.74,95.15c1.51,0.19,1.74-.15,1.38-1.88C36.93,93.22,36.93,93.22,36.74,95.15ZM100,87.71c1.71,0,1.39-1.35,2-2.13h-1.56Zm9-20.85c0.59,1.08,1.31,1.48,2.27,1.06a0.94,0.94,0,0,0,.42-0.61,0.6,0.6,0,0,0-.4-0.42C110.59,66.83,109.83,66.86,109.07,66.86ZM58.84,39.51l0.23,0.21,2.7-1.53-1.43-1ZM101.62,97.4H103c0.06-.38.12-0.69,0.16-1s0.06-.6.09-0.9C102,95.33,102,95.33,101.62,97.4Zm16.55-30.55c-0.85,0-1.51,0-2.16,0a0.62,0.62,0,0,0-.46.37,0.72,0.72,0,0,0,.25.58A1.78,1.78,0,0,0,118.17,66.86ZM50.1,84.31H47l1.51,1.75Zm22.74-5.53L68.62,76.3l-0.16.28C69.95,77.31,70.76,79.2,72.84,78.78Zm25.3-11.93c0.61,1,1.82,1.44,2.44,1a0.73,0.73,0,0,0,.25-0.59,0.64,0.64,0,0,0-.48-0.36C99.69,66.83,99,66.86,98.14,66.86Zm-25-41.18H69.11C69.85,26.49,72.18,26.52,73.19,25.67Zm36.56,21.68,3.5-.93,0-.21h-3.45v1.14Zm-14.3,55,0.2,0.32,1.88-.53-1.24-1.82Zm-31-12.13V88.44H63.27l-0.14,1.83h1.35Zm61.79,17.35,0.19,0.25,3.72-2.82C127.9,104.88,127.42,106.68,126.27,107.62ZM61.56,88.41l-0.39,1.93,1.46-.07,0.17-1.86H61.56Zm2-42.42c-1,.57-2.56.36-2.7,2.31C61.93,47.52,63.15,47.27,63.56,46ZM75.31,63C75,63.84,75.58,64,76.15,64s1.56,0.1,1.7-1.06H75.31ZM36.15,79.4l-0.42,2.28h1.19C37.28,80.74,37.7,79.83,36.15,79.4Zm30.2-43.48,0.35,0.26h1.49V33.85ZM59.27,90.21c1.58,0.19,1.66.1,1.67-1.79C59.39,88.06,59.71,89.4,59.27,90.21Zm6.56-60.57L68,26.86C66.41,26.65,66.41,26.65,65.83,29.64ZM131.58,96.3l-1.66,1c0.75,1.32,1.5.88,2.34,0.22ZM58.64,77l-1.55-1.18-0.57,2.59ZM43,47l-0.82,4C43.24,50.85,43.24,50.85,43,47Zm9.54,48.52,0.32,0.13a2,2,0,0,0,.43-0.81c-0.06-.92.43-2-0.57-2.72ZM64.81,69.23c-1.61-.5-1.31.7-1.51,1.56h1.51V69.23Zm-5.54-2.08,3-1.59C59.81,65.54,59.46,65.73,59.27,67.15ZM57.91,63a1.3,1.3,0,0,0,1.74,1,2.7,2.7,0,0,0,.83-0.79L60.24,63H57.91ZM36,97.38l0.21,0.28h1.6L38,95.94l-0.24-.14ZM54.51,65l1.12,0.84c0.69-2,.69-2-0.19-2.46Zm66.17,20.36-4,.18C117.51,86.55,118.92,86.45,120.68,85.38Zm-22,9.42c1.86,0.43,1.52-1,1.93-1.8C98.91,92.61,99.14,94,98.64,94.8Zm6.3-6.39c-1.51-.36-1.35.68-1.49,1.57h1.49V88.41Zm2.41-11.3a4.44,4.44,0,0,0,.18-3.28C106.83,74.84,107.12,76,107.35,77.12ZM50.68,84.61l-0.19-.08L48.8,86.4l1,1.12Zm12-4.48c-0.22,1.66.37,2.1,2.27,1.71ZM39.42,71.57c-1.73-.12-1.95.21-1.82,2.22Zm68.3-4.25,0-.31h-3.17c0,0.1,0,.21,0,0.31h3.13ZM36,78.18l0.54-2.61-0.2-.14-1.66,1.87Zm3.94,21.69-2,1.27,2,0.67V99.87Zm60.56-5.09C101.81,95,102,94.85,102,93,100.45,92.74,101,94.13,100.48,94.78Zm7.59-47.12a4,4,0,0,0-.79-1.41c-1.1.08-.64,1-0.91,1.8ZM40.13,92.73v-2a2.29,2.29,0,0,0-1,.41,6.58,6.58,0,0,0-.17,1.62h1.21Zm61.79,12.15,0.18-1.79H99.9ZM38.72,90.8c-1.74,0-1.24,1.12-1.48,1.9C39.07,93,38.26,91.61,38.72,90.8Zm22.29,0-0.32,1.65c1.78-.62,1.78-0.62,1.67-1.65H61ZM64.23,49c1.33-.61,2.39-1.38,2.2-3.16ZM42.3,43.38c1.05-.06,1.25-1,0.85-3.68ZM96.82,80.19l-0.34,1.55h2.24c-0.46-.4-0.75-0.66-1-0.9S97.18,80.47,96.82,80.19ZM104.45,79c-2.75.21-2.9,0.31-2.7,1.76Zm9.76-34.15h-2.59C112.35,45.93,113.22,45.95,114.21,44.9Zm-8.62,30.47-0.84-1.79-1.16,1.79h2ZM25.5,103.49c1.86,0.78,2.54.63,2.66-.52Zm76.73-8.7c1.24,0.19,1.44-.15,1.17-1.88C102,93,102.54,94.11,102.23,94.79Zm-0.8-4.25c-1.57-.11-1.29,1.13-1.77,1.86C101.36,92.69,100.93,91.32,101.43,90.54Zm2.62-45.69-0.12.51a8.6,8.6,0,0,0,1.61.28,1.88,1.88,0,0,0,.76-0.53l-0.14-.26h-2.12ZM59,66.28l-0.23-.22-1.94.51-0.07.29a3.52,3.52,0,0,0,1.47.6A2.68,2.68,0,0,0,59,66.28Zm43.07,41.19h2.18l-1.95-1.67ZM43.91,81.65l0.17-.32a5.38,5.38,0,0,0-1.47-.8,2.46,2.46,0,0,0-.85.86L42,81.65h1.95Zm0-37.5c0,0.1,0,.2,0,0.3H47c0-.1,0-0.2,0-0.3H43.9Zm60.93,48.77c-1.32.14-.66,1.26-1,1.84C105,95,105.09,94.88,104.83,92.92Zm-2.13,12.56,1.93,1.73v-1.73h-1.93Zm-65,1.79v-1c-1.55-.16-1.55-0.16-1.39,1h1.39ZM93.52,85.55c-0.32,1.33.47,1.27,1.29,1.26L95,85.55H93.52ZM67.27,53.88c-1.48-.17-1.08.83-1.23,1.57h1.23V53.88Zm40.91,9.67L107,61.89l-0.31.15-0.25,1.5h1.75ZM33.46,98.76c-0.76.75-1.84,0.73-1.64,1.95l1.21,0.1Zm10.09,8.52a2.22,2.22,0,0,0-.35-1,1.53,1.53,0,0,0-1.13,0,2,2,0,0,0-.22,1h1.71Zm-11.73.27c0.32-1.1.09-1.51-.68-1.35a2.21,2.21,0,0,0-.73.63ZM133,97.32l1.1-.65-0.69-1.19-1.14.53Zm-85.39,9.93h1.43l0.22-.35a2.81,2.81,0,0,0-.89-0.69C47.64,106,47.44,106.47,47.66,107.25ZM92.57,84.93L93,84.65V83.26H91.38Zm8.65,7.52c1.67,0,1.18-1.15,1.56-2C101.42,90.59,101.65,91.62,101.22,92.45ZM40.79,69.19L41,69.52h1.34l0.25-.29a2.28,2.28,0,0,0-.8-0.81A3,3,0,0,0,40.79,69.19ZM29,82.4l-0.11.4a8.59,8.59,0,0,0,1.43.52,1.54,1.54,0,0,0,.69-0.4,1.72,1.72,0,0,0-.6-0.5A8.5,8.5,0,0,0,29,82.4Zm10.27-2.17L39.57,79l-1.42-.37C38,79.62,38,79.62,39.31,80.24ZM63.48,25.62c1.91,1,2.59,1,3,0h-3Zm-6,42.23L55.91,66.7l-0.46,1.92Zm2.43,1.31,1.34,1,0.51-2.37ZM65,42.1l-0.28,1.6L66.56,43c0-.12,0-0.25,0-0.37ZM42,84.25v2.37l1.29-2.37H42ZM55.6,61.46c2,0,1.29-1.57,1.68-2.4Zm7.09,0.62-1.84-1.67C60.54,61.51,61.26,62.18,62.69,62.08Zm42.47,15V76H103.8l-0.17,1.17h1.52ZM40.27,70.68l-0.1-.59L38,70.36,38.09,71Zm66.39-9.86c1.31,0.36,1.2-.32,1.16-0.85a2.28,2.28,0,0,0-.36-0.73Zm-53.25,22-0.1-.46a10.54,10.54,0,0,0-1.5,0,1.37,1.37,0,0,0-.48.51,1.19,1.19,0,0,0,.48.39A15.78,15.78,0,0,0,53.4,82.87ZM45.5,70.28c1,1,1.66,1,2.39,0H45.5Zm-4.4-2.73,0.54,0.51a3.3,3.3,0,0,0,.78-0.82A1.73,1.73,0,0,0,42,66.5Zm23.63,5.3V71.41H62.86ZM55.28,94.73l-1.35-1.61v2Zm50.05-22.94-0.42-.29-0.73,1.61C105.71,73.23,105.22,72.32,105.33,71.79ZM64.81,73.48L63,72.11l-0.3,1.37h2.09ZM22.3,104.94l-0.41.31c0.23,0.52-.05,1.49,1.37,1.16ZM71.93,37l-0.22.3a2.62,2.62,0,0,0,.95.44A6,6,0,0,0,74,37.48L74,37h-2ZM67.25,63.38c0-.1,0-0.21,0-0.31H64.18q0,0.16,0,.31h3.07ZM37.5,81.61h2.11l-1.85-1.27Zm26.91,9.72-1.71,1.05,0.16,0.31h1.55V91.32ZM63.5,37l-0.11.5a7.85,7.85,0,0,0,1.53.27,2,2,0,0,0,.78-0.5L65.57,37H63.5Zm52,75.18c0.4-1.53.4-1.53-1.16-1.47ZM24,104.93l-0.4.36c0.28,0.46,0,1.45,1.46,1.1Zm1.7,0-0.41.37c0.31,0.43,0,1.44,1.48,1.1ZM31,101.86c-1.72-.69-1.73-0.69-1.9.46ZM69,37c1.66,1,2,1,2.39,0H69Z" transform="translate(-6.08 -16.56)"/></svg>