<?xml version="1.0" encoding="UTF-8" standalone="no"?>
<svg width="718px" height="115px" viewBox="0 0 718 115" version="1.1" xmlns="http://www.w3.org/2000/svg" xmlns:xlink="http://www.w3.org/1999/xlink" xmlns:sketch="http://www.bohemiancoding.com/sketch/ns">
    <!-- Generator: Sketch 3.4.4 (17249) - http://www.bohemiancoding.com/sketch -->
    <title>Untitled</title>
    <desc>Created with Sketch.</desc>
    <defs></defs>
    <g id="Page-1" stroke="none" stroke-width="1" fill="none" fill-rule="evenodd" sketch:type="MSPage">
        <g id="viacom" sketch:type="MSLayerGroup" fill="#353C47">
            <path d="M468,113.43992 C453.75039,110.36842 439.93203,100.64042 433.79081,89.356974 C424.65741,72.575921 424.62437,43.712638 433.71904,26.675477 C437.36611,19.84337 447.28107,9.904738 453.68949,6.657345 C463.02993,1.9241897 472.23794,0 485.54753,0 C505.41022,0 516.96092,4.018123 527.79143,14.695308 C534.80644,21.611013 539.87625,31.144047 542.04657,41.5 C543.69129,49.347988 543.68594,67.041577 542.03674,74 C537.18799,94.458254 522.49507,108.66804 501.30259,113.39472 C492.55313,115.34616 476.94191,115.36735 468,113.43992 L468,113.43992 Z M500.62698,90.481676 C506.92321,87.401217 510.95675,82.522724 513.69361,74.677799 C516.43762,66.812408 516.16057,46.49832 513.20703,39 C510.3426,31.727928 506.32496,27.028363 500.3746,23.989482 C496.14181,21.827778 494.18335,21.5 485.5,21.5 C476.55048,21.5 474.89557,21.796807 469.74614,24.325439 C460.26683,28.980261 455.52706,37.925897 454.40854,53.272961 C452.85757,74.553653 460.03937,88.503084 474.67233,92.631905 C482.17816,94.749744 493.88583,93.779815 500.62698,90.481676 L500.62698,90.481676 Z M143.31382,112.04977 C141.56142,110.98126 139.64892,109.21253 139.06382,108.11925 C138.35076,106.78689 138,88.79961 138,53.565741 L138,1 L151,1 L164,1 L164,57.5 L164,114 L155.25,113.99626 C148.35059,113.99331 145.82613,113.58164 143.31382,112.04977 L143.31382,112.04977 Z M219.75145,112.97733 C203.18442,111.09056 194.22526,103.15886 190.99725,87.520734 C187.89766,72.504741 194.34162,55.437499 205.20275,49.896567 C212.92644,45.956234 220.97472,45.035771 247.86522,45.017364 L273.23045,45 L272.54195,39.25 C271.56586,31.098036 269.2684,26.884201 264.5,24.5 C260.85424,22.677118 257.91144,22.455721 231.27019,22 L202.04037,21.5 L199.28944,18.74653 C196.86962,16.324467 196.4925,15.081763 196.15617,8.421602 L195.77383,0.8501429 L233.63692,1.2380891 C275.13248,1.6632537 277.01906,1.9041361 286.04524,7.929715 C291.49564,11.568221 295.33136,17.530823 297.40418,25.587104 C299.51168,33.778234 299.7028,79.650743 297.66481,88.147448 C294.83224,99.95693 287.27129,108.11957 276.01267,111.5226 C269.51659,113.4861 232.60026,114.44064 219.75145,112.97733 L219.75145,112.97733 Z M266.23284,89.203387 C270.03276,86.958719 271.75803,82.749906 272.57531,73.730828 L273.27586,66 L250.88793,66.056442 C226.60656,66.117658 223.01501,66.709014 219.6909,71.193093 C215.75306,76.505066 217.557,87.421105 222.81759,90.113362 C226.0987,91.792564 251.23083,92.881548 258.499,91.659449 C261.24845,91.197147 264.72868,90.091918 266.23284,89.203387 L266.23284,89.203387 Z M362.54724,112.88869 C339.49973,109.53026 324.51742,94.991974 320.40971,72 C317.13641,53.678388 320.08041,35.748114 328.5372,22.5 C334.85243,12.606779 341.85307,7.368616 354,3.4476966 C358.5752,1.9708617 364.25009,1.6003029 387.75,1.2438868 L416,0.8154276 L416,7.891937 C416,14.295478 415.72277,15.279019 413.0848,18.234223 L410.1696,21.5 L388.83164,22.005353 C367.58721,22.508491 367.46739,22.523833 361.49684,25.505353 C350.89226,30.800969 347,39.380525 347,57.460127 C347,74.251654 351.66879,84.092452 361.89304,88.851436 C367.19643,91.319956 368.60991,91.491498 388,92.019825 C401.4629,92.386652 409.26881,93.004206 410.73965,93.818841 C414.28134,95.780437 416,100.2341 416,107.45034 L416,114 L392.25,113.87806 C379.1875,113.81099 365.82126,113.36578 362.54724,112.88869 L362.54724,112.88869 Z M45.082041,110.77998 C44.591852,109.52599 38.25458,94.325 30.999213,77 C3.5926048,11.556101 0,2.8572642 0,1.9410668 C0,1.4033929 5.3342821,1 12.444236,1 C23.947949,1 25.075893,1.1700529 27.36827,3.25 C29.707417,5.3723837 32.173765,11.26141 54.194341,67.303987 C56.961401,74.34618 59.35106,79.97118 59.504695,79.803987 C59.764074,79.521719 80.700757,30.323815 88.063399,12.695537 C92.754113,1.464623 93.575595,1 108.74185,1 C118.32831,1 121.09449,1.2892118 120.69756,2.25 C119.81033,4.3975544 85.413124,81.077551 75.951582,102 L71.203276,112.5 L58.588284,112.77998 C46.263333,113.05352 45.952801,113.00753 45.082041,110.77998 L45.082041,110.77998 Z M565,57 L565,1 L585.94424,1 C606.23784,1 606.96812,1.0698967 609.4524,3.25 C611.87783,5.3784547 615.95851,15.114921 636.76859,68.426125 L641.42396,80.352251 L643.81301,74.926125 C645.12699,71.941756 652.26634,55.1 659.67824,37.5 C668.44004,16.694568 674.02149,4.712882 675.63297,3.25 C678.02921,1.0747259 678.77391,1 698.05576,1 L718,1 L718,57 L718,113 L708.72251,113 C698.8891,113 696.25683,112.06752 693.75774,107.69872 C692.8317,106.07986 692.36814,95.192293 692,66.415339 L691.5,27.330679 L672.47972,69.915339 L653.45944,112.5 L640.85033,112.77898 L628.24122,113.05795 L623.28352,101.27898 C620.55678,94.800539 612.29001,75.034916 604.91291,57.355368 L591.5,25.210737 L591,65.355368 C590.63096,94.985357 590.17057,106.07589 589.24226,107.69872 C586.74317,112.06752 584.1109,113 574.27749,113 L565,113 L565,57 L565,57 Z" id="path2222" sketch:type="MSShapeGroup"></path>
        </g>
    </g>
</svg>