<?xml version="1.0" encoding="utf-8"?>
<!-- Generator: Adobe Illustrator 18.1.1, SVG Export Plug-In . SVG Version: 6.00 Build 0)  -->
<!DOCTYPE svg PUBLIC "-//W3C//DTD SVG 1.1//EN" "http://www.w3.org/Graphics/SVG/1.1/DTD/svg11.dtd">
<svg version="1.1" id="Layer_1" xmlns="http://www.w3.org/2000/svg" xmlns:xlink="http://www.w3.org/1999/xlink" x="0px" y="0px"
	 viewBox="0 0 167.1 24.1" enable-background="new 0 0 167.1 24.1" xml:space="preserve">
<g>
	<g>
		<g>
			<path fill="#42B872" d="M78.3,18.7c-2.3,2.3-4.7,3.4-7.6,3.4c-5.3,0-9.4-4.4-9.4-10.1c0-5.6,4.1-10,9.4-10c3.7,0,5.9,1.6,7.5,3.2
				l0.4,0.3L80,4l-0.4-0.3C77.3,1.5,74.9,0,70.8,0c-6.5,0-11.5,5.3-11.5,12.1c0,6.7,5,12,11.5,12c3.6,0,6.5-1.3,9.1-4l0.4-0.4
				l-1.5-1.4L78.3,18.7z"/>
			<polygon fill="#42B872" points="109.2,0.4 106.2,0.4 92,14.6 92,0.4 89.9,0.4 89.9,23.7 92,23.7 92,17.3 97.4,12 106.7,23.7 
				109.4,23.7 98.9,10.5 			"/>
			<path fill="#42B872" d="M165.1,0.4v13.2c0,5.5-2.6,8.5-7.4,8.5c-4.8,0-7.5-3.1-7.5-8.6V0.4H148v13.2c0,6.6,3.6,10.5,9.6,10.5
				c6,0,9.6-4,9.6-10.6V0.4H165.1z"/>
			<rect x="16.4" y="0.4" fill="#42B872" width="2.1" height="23.3"/>
			<rect y="0.4" fill="#42B872" width="2.1" height="23.3"/>
			<polygon fill="#42B872" points="39.2,0.2 28.1,23.7 30.3,23.7 40,3.2 49.6,23.7 51.9,23.7 40.8,0.2 			"/>
			<path fill="#42B872" d="M133.3,11.7c1.9-1,3-2.9,3-5.3c0-1.6-0.5-2.9-1.6-4c-1.3-1.3-3.5-2.1-6.2-2.1h-9.7v2h9.7
				c3.5,0,5.7,1.6,5.7,4.2c0,3.2-2.8,4.3-5.5,4.3h-9.9v2h10.3c3,0,6.2,1.1,6.2,4.4c0,2.7-2.4,4.4-6.4,4.4h-10.2v2H129
				c5.2,0,8.5-2.5,8.5-6.5C137.6,14.7,136,12.6,133.3,11.7z"/>
		</g>
	</g>
</g>
</svg>
