<svg xmlns="http://www.w3.org/2000/svg" viewBox="0 0 167.1 24.1" enable-background="new 0 0 167.1 24.1">
    <g fill="#42B872">
        <path d="M78.3 18.7c-2.3 2.3-4.7 3.4-7.6 3.4-5.3 0-9.4-4.4-9.4-10.1 0-5.6 4.1-10 9.4-10 3.7 0 5.9 1.6 7.5 3.2l.4.3L80 4l-.4-.3C77.3 1.5 74.9 0 70.8 0c-6.5 0-11.5 5.3-11.5 12.1 0 6.7 5 12 11.5 12 3.6 0 6.5-1.3 9.1-4l.4-.4-1.5-1.4-.5.4zM109.2.4h-3L92 14.6V.4h-2.1v23.3H92v-6.4l5.4-5.3 9.3 11.7h2.7L98.9 10.5zM165.1.4v13.2c0 5.5-2.6 8.5-7.4 8.5-4.8 0-7.5-3.1-7.5-8.6V.4H148v13.2c0 6.6 3.6 10.5 9.6 10.5s9.6-4 9.6-10.6V.4h-2.1zM16.4.4h2.1v23.3h-2.1zM0 .4h2.1v23.3H0zM39.2.2L28.1 23.7h2.2L40 3.2l9.6 20.5h2.3L40.8.2zM133.3 11.7c1.9-1 3-2.9 3-5.3 0-1.6-.5-2.9-1.6-4-1.3-1.3-3.5-2.1-6.2-2.1h-9.7v2h9.7c3.5 0 5.7 1.6 5.7 4.2 0 3.2-2.8 4.3-5.5 4.3h-9.9v2h10.3c3 0 6.2 1.1 6.2 4.4 0 2.7-2.4 4.4-6.4 4.4h-10.2v2H129c5.2 0 8.5-2.5 8.5-6.5.1-2.4-1.5-4.5-4.2-5.4z"/>
    </g>
</svg>
