<svg xmlns="http://www.w3.org/2000/svg" viewBox="0 0 216 216" enable-background="new 0 0 216 216">
    <g fill="#353C47">
        <path d="M79.7 82H51c-.8 0-1.5.5-1.7 1.3-.2.8.1 1.6.8 2l28.7 16.8c.3.2.6.2.9.2.3 0 .6-.1.9-.2.6-.3.9-.9.9-1.5V83.7c0-.9-.8-1.7-1.8-1.7zm-1.8 15.4L57.6 85.5h20.3v11.9zM210.7 109v-.4l-1.5-46.7c0-.6-.3-1.1-.8-1.4-.5-.3-1.1-.4-1.7-.1L195.5 65V1.8c0-.6-.3-1.2-.9-1.5-.5-.3-1.2-.3-1.7-.1l-51.6 26.4H74.7L23.1.2c-.6-.3-1.2-.3-1.7.1-.5.3-.9.9-.9 1.5V65L9.4 60.3c-.5-.2-1.2-.2-1.7.1-.5.3-.8.9-.8 1.4l-1.6 47c0 .2 0 .3.1.5l5.2 18.9c.1.2.1.4.3.6l20.6 29.5-2.9 24.7c-.1.6.2 1.2.6 1.6.1.1.3.2.5.3 0 0 .1 0 .1.1.2 0 .3.1.5.1h.1c.2 0 .3 0 .5-.1l33.5-9.2 13.9 24.3c.2.3.4.5.7.7l28.3 14.9c.3.1.5.2.8.2.3 0 .6-.1.8-.2l28.3-14.9c.1-.1.2-.1.3-.2.1-.1.2-.2.3-.4l13.9-24.3 33.5 9.2c.1 0 .3.1.5.1h.1c.2 0 .3 0 .5-.1 0 0 .1 0 .1-.1.2-.1.3-.2.5-.3.5-.4.7-1 .6-1.6l-2.9-24.7 20.6-29.5.3-.6 5.1-18.7c0-.1.1-.4.1-.6zm-15.3-9.5l.1-30.6 10.1-4.3 1.4 41.3-11.6-6.4zM24.1 4.7L73.5 30c.3.1.5.2.8.2h67.4c.3 0 .6-.1.8-.2l49.4-25.3v59.9l-54.7-31.4c-.5-.3-1.2-.3-1.8 0L108 48.9 80.6 33.2c-.5-.3-1.2-.3-1.8 0L24.1 64.6V4.7zm137.3 46.5L108 81.7 54.6 51.2l25.1-14.4 27.4 15.7c.5.3 1.2.3 1.8 0l27.4-15.7 25.1 14.4zM20.5 68.9l.1 30.6L9 105.9l1.4-41.3 10.1 4.3zm-6.6 58.2l-4.7-17.3 13.2-7.2L49.1 118v58.3l-16.7 4.6 2.7-22.7c.1-.4-.1-.9-.3-1.2l-20.9-29.9zm94.1 85.1l-26.4-13.9-.1-28.7 25.6 14.7c.3.2.6.2.9.2s.6-.1.9-.2l25.6-14.7v28.7L108 212.2zm0-62.1L81.5 135v-14.7l25.6 14.7c.5.3 1.2.3 1.8 0l25.6-14.7V135L108 150.1zm0 4.1l24.5 12.3-24.5 14-24.5-14 24.5-12.3zm43.4 17.8c-.8-.2-1.6.1-2 .8l-11.3 19.7v-26.3c0-.1 0-.2-.1-.4v-.1c0-.1-.1-.2-.2-.3v-.1l-.3-.3s-.1 0-.1-.1c-.1-.1-.2-.1-.3-.2h-.1l-25.3-12.8 25.4-14.5c.6-.3.9-.9.9-1.5v-18.8c0-.6-.3-1.2-.9-1.5-.6-.3-1.2-.3-1.8 0L108 131.3l-27.4-15.7c-.6-.3-1.2-.3-1.8 0-.6.3-.9.9-.9 1.5V136c0 .6.3 1.2.9 1.5l25.4 14.5-25.3 12.8h-.1c-.1.1-.2.1-.3.2 0 0-.1 0-.1.1l-.3.3v.1c-.1.1-.1.2-.2.3v.1c0 .1-.1.2-.1.4v.1l.1 26.3-11.4-19.8c-.4-.7-1.2-1-2-.8l-11.9 3.3V117c0-.6-.3-1.2-.9-1.5l-27.5-16-.1-30.8L51 53.3l56.1 32c.3.2.6.2.9.2s.6-.1.9-.2l56.1-32 26.9 15.5-.1 30.8-27.6 15.9c-.6.3-.9.9-.9 1.5v58.3l-11.9-3.3zm29.8-15.1c-.3.4-.4.8-.3 1.2l2.7 22.7-16.7-4.6V118l26.7-15.4 13.2 7.2-4.7 17.3-20.9 29.8zM166.7 83.3c-.2-.8-.9-1.3-1.7-1.3h-28.7c-1 0-1.8.8-1.8 1.8v16.8c0 .6.3 1.2.9 1.5.3.2.6.2.9.2.3 0 .6-.1.9-.2l28.7-16.8c.7-.4 1-1.2.8-2zm-28.6 14.1V85.5h20.3l-20.3 11.9z"/>
    </g>
</svg>
