<?xml version="1.0" encoding="utf-8"?>
<!-- Generator: Adobe Illustrator 18.1.1, SVG Export Plug-In . SVG Version: 6.00 Build 0)  -->
<!DOCTYPE svg PUBLIC "-//W3C//DTD SVG 1.1//EN" "http://www.w3.org/Graphics/SVG/1.1/DTD/svg11.dtd">
<svg version="1.1" id="Layer_1" xmlns="http://www.w3.org/2000/svg" xmlns:xlink="http://www.w3.org/1999/xlink" x="0px" y="0px"
	 viewBox="0 0 384 53.8" enable-background="new 0 0 384 53.8" xml:space="preserve">
<g>
	<path fill="#40B26F" d="M180.6,42.8c-5.4,5.6-11.2,8.2-18.2,8.2c-12.7,0-22.6-10.6-22.6-24v-0.1c0-13.5,9.9-24,22.6-24
		c8.8,0,14,3.9,17.9,7.7l0.2,0.2l2.1-2.2l-0.2-0.2c-5.5-5.1-10.7-8.2-20-8.2c-14.4,0-25.7,11.8-25.7,26.9V27
		c0,15,11.2,26.8,25.6,26.8c7.9,0,14.4-2.8,20.4-8.9l0.2-0.2l-2.1-2L180.6,42.8z"/>
	<polygon fill="#40B26F" points="248.9,0.9 244.7,0.9 210.5,35 210.5,0.9 207.5,0.9 207.5,52.9 210.5,52.9 210.5,38.7 224,25.4 
		245.8,52.9 249.7,52.9 226.1,23.3 	"/>
	<path fill="#40B26F" d="M381,0.9v29.5c0,13-6.6,20.5-18.1,20.5c-11.5,0-18.3-7.7-18.3-20.7V0.9h-3v29.5c0,14.6,7.9,23.3,21.2,23.3
		c13.2,0,21.2-8.8,21.2-23.5V0.9H381z"/>
	<rect x="37.8" y="0.9" fill="#40B26F" width="3" height="52"/>
	<rect y="0.9" fill="#40B26F" width="3" height="52"/>
	<polygon fill="#40B26F" points="92.8,0.5 90.1,0.5 65.4,52.9 68.6,52.9 91.4,4.3 106,35.5 106,35.5 106.9,37.4 106.9,37.4 
		114.1,52.8 114.2,52.9 117.5,52.9 92.9,0.7 	"/>
	<path fill="#40B26F" d="M304.2,26.3c5.5-1.9,8.8-6.4,8.8-12.2v-0.1c0-3.4-1.1-6.2-3.4-8.5c-2.9-2.9-7.8-4.6-13.6-4.6h-21.5v2.8
		h21.4c8.7,0,14.1,4,14.1,10.5v0.1c0,5.3-3.6,10.9-13.5,10.9h-22V28h22.9c9.4,0,15.3,4.2,15.3,10.9v0.1c0,6.9-5.8,11-15.6,11h-22.6
		v2.8H297c11.7,0,18.7-5.2,18.7-13.9v-0.1C315.7,31.5,309.9,27.6,304.2,26.3z"/>
</g>
</svg>
