<svg xmlns="http://www.w3.org/2000/svg" viewBox="0 0 384 53.8" enable-background="new 0 0 384 53.8">
    <g fill="#40B26F">
        <path d="M180.6 42.8c-5.4 5.6-11.2 8.2-18.2 8.2-12.7 0-22.6-10.6-22.6-24v-.1c0-13.5 9.9-24 22.6-24 8.8 0 14 3.9 17.9 7.7l.2.2 2.1-2.2-.2-.2c-5.5-5.1-10.7-8.2-20-8.2-14.4 0-25.7 11.8-25.7 26.9V27c0 15 11.2 26.8 25.6 26.8 7.9 0 14.4-2.8 20.4-8.9l.2-.2-2.1-2-.2.1zM248.9.9h-4.2L210.5 35V.9h-3v52h3V38.7L224 25.4l21.8 27.5h3.9l-23.6-29.6zM381 .9v29.5c0 13-6.6 20.5-18.1 20.5-11.5 0-18.3-7.7-18.3-20.7V.9h-3v29.5c0 14.6 7.9 23.3 21.2 23.3 13.2 0 21.2-8.8 21.2-23.5V.9h-3zM37.8.9h3v52h-3zM0 .9h3v52H0zM92.8.5h-2.7L65.4 52.9h3.2L91.4 4.3 106 35.5l.9 1.9 7.2 15.4.1.1h3.3L92.9.7zM304.2 26.3c5.5-1.9 8.8-6.4 8.8-12.2V14c0-3.4-1.1-6.2-3.4-8.5-2.9-2.9-7.8-4.6-13.6-4.6h-21.5v2.8h21.4c8.7 0 14.1 4 14.1 10.5v.1c0 5.3-3.6 10.9-13.5 10.9h-22V28h22.9c9.4 0 15.3 4.2 15.3 10.9v.1c0 6.9-5.8 11-15.6 11h-22.6v2.8H297c11.7 0 18.7-5.2 18.7-13.9v-.1c0-7.3-5.8-11.2-11.5-12.5z"/>
    </g>
</svg>
