<svg xmlns="http://www.w3.org/2000/svg" viewBox="0 0 370 310" enable-background="new 0 0 370 310">
    <path fill="#fff" stroke="#42B872" stroke-width="2" stroke-miterlimit="10" d="M276.7 297.9H106.8c-1.7 0-3.1-1.4-3.1-3.1V186.1c0-1.7 1.4-3.1 3.1-3.1h169.9c1.7 0 3.1 1.4 3.1 3.1v108.7c0 1.7-1.4 3.1-3.1 3.1z"/>
    <path fill="none" stroke="#42B872" stroke-width="2" stroke-miterlimit="10" d="M266.3 284H117.2c-1.4 0-2.6-1.2-2.6-2.6v-86.8c0-1.4 1.2-2.6 2.6-2.6h149.1c1.4 0 2.6 1.2 2.6 2.6v86.8c0 1.4-1.2 2.6-2.6 2.6z"/>
    <path fill="#fff" stroke="#42B872" stroke-width="2" stroke-miterlimit="10" d="M292.2 306.4H91.3c-.6 0-1.1-.5-1.1-1.1v-9.9c0-.6.5-1.1 1.1-1.1h200.9c.6 0 1.1.5 1.1 1.1v9.9c0 .6-.5 1.1-1.1 1.1z"/>
    <path fill="none" stroke="#42B872" stroke-width="2" stroke-miterlimit="10" d="M114 202h155"/>
    <circle fill="#42B872" cx="121.1" cy="196.6" r="1.5"/>
    <circle fill="#42B872" cx="127" cy="196.6" r="1.5"/>
    <circle fill="#42B872" cx="132.9" cy="196.6" r="1.5"/>
    <g fill="none" stroke="#42B872" stroke-width="2" stroke-miterlimit="10">
        <path d="M137 212h61M137 269h61M137 275h31M137 220h77M142 227h35M142 233h77M142 248h51M147 240h56M142 254h71M147 261h72"/>
    </g>
    <path fill="#fff" stroke="#42B872" stroke-width="2" stroke-miterlimit="10" d="M354.3 205.5h-7.1c-.9 0-1.6-.7-1.6-1.6v-74.5c0-.9.7-1.6 1.6-1.6h7.1c.9 0 1.6.7 1.6 1.6v74.5c0 .9-.7 1.6-1.6 1.6zM359.9 177.1h-18.2c-.6 0-1.2-.5-1.2-1.2v-18.6c0-.6.5-1.2 1.2-1.2h18.2c.6 0 1.2.5 1.2 1.2V176c-.1.6-.6 1.1-1.2 1.1zM356.4 173.1h-11.3c-.4 0-.7-.3-.7-.7v-11.5c0-.4.3-.7.7-.7h11.3c.4 0 .7.3.7.7v11.5c0 .4-.3.7-.7.7z"/>
    <g fill="none" stroke="#42B872" stroke-width="2" stroke-linecap="round" stroke-miterlimit="10">
        <path d="M350 167v-2M350.8 167.7l1 1.1"/>
    </g>
    <circle fill="#42B872" cx="351.1" cy="193.1" r="1"/>
    <circle fill="#42B872" cx="351.1" cy="196.5" r="1"/>
    <circle fill="#42B872" cx="351.1" cy="200" r="1"/>
    <path fill="none" stroke="#42B872" stroke-width="2" stroke-linecap="round" stroke-linejoin="round" stroke-miterlimit="10" d="M352 131v-7"/>
    <g stroke="#42B872" stroke-width="2" stroke-miterlimit="10">
        <path fill="#fff" d="M74 280H51.3c-.4 0-.6-.2-.6-.4 0 0-3.2-2.2-3.2-3 0-.7 3.2-3 3.2-3 0-.2.3-.4.6-.4H74c.4 0 .6.2.6.4v5.9c0 .3-.3.5-.6.5zM67.5 281.7H45c-.4 0-.6-.2-.6-.5 0 0-3.2-3.4-3.2-4.5s3.2-4.5 3.2-4.5c0-.3.3-.5.6-.5h22.4c.4 0 .6.2.6.5v9c.1.3-.2.5-.5.5z"/>
        <path fill="none" d="M74 276h-3"/>
    </g>
    <g stroke="#42B872" stroke-width="2" stroke-miterlimit="10">
        <path fill="none" d="M214.5 27.4h-33.1c-.3 0-.5-.2-.5-.4l4.5-7.9c0-.2.2-.4.5-.4h24c.3 0 .5.2.5.4L215 27c0 .2-.2.4-.5.4zM218 33.9h-40c-.3 0-.5-.2-.5-.5v-5.5c0-.3.2-.5.5-.5h40c.3 0 .5.2.5.5v5.5c0 .3-.2.5-.5.5zM181.4 33.9h33.1c.3 0 .5.2.5.4L210.5 78c0 .2-.2.4-.5.4h-24c-.3 0-.5-.2-.5-.4L181 34.4c-.1-.3.2-.5.4-.5z"/>
        <path fill="#fff" d="M213 62.5h-30c-.7 0-1.3-.6-1.3-1.3l-1.4-13.3c0-.7.6-1.3 1.3-1.3h32.7c.7 0 1.3.6 1.3 1.3l-1.4 13.3c.1.7-.5 1.3-1.2 1.3z"/>
    </g>
    <path fill="#fff" stroke="#42B872" stroke-width="2" stroke-miterlimit="10" d="M309.9 84.5h-53.8c-.5 0-1-.4-1-1V4.3c0-.5.4-1 1-1h53.8c2.3 0 4.2 1.9 4.2 4.2v72.9c0 2.2-1.9 4.1-4.2 4.1z"/>
    <path fill="#42B872" d="M301.1 3.8h3.2V84h-3.2zM256.1 3.3h5.7v81.2h-5.7z"/>
    <g fill="#fff" stroke="#42B872" stroke-width="2" stroke-miterlimit="10">
        <path d="M331.8 71.7H329c-.8 0-1.5-.7-1.5-1.5V30c0-.8.7-1.5 1.5-1.5h2.8c.8 0 1.5.7 1.5 1.5v40.3c0 .8-.7 1.4-1.5 1.4z"/>
        <path stroke-linecap="round" stroke-linejoin="round" d="M327.5 29l2.9-4.9 2.9 4.9z"/>
    </g>
    <path fill="none" stroke="#42B872" stroke-width="2" stroke-miterlimit="10" d="M36 152h18.3s9.5.5 9.5-6.3c0-7.2-9.5-6.7-9.5-6.7H25M32 178h18.1s9.5.5 9.5-6.3c0-7.2-9.5-6.7-9.5-6.7H37M32 126h4.9s9.1.2 9.1-6.5V95M38 126H26.4s-9.5-.5-9.5 6.3c0 7.2 9.5 6.7 9.5 6.7H56M39 152h-4.3s-9.5-.5-9.5 6.3c0 7.2 9.5 6.7 9.5 6.7H46M39 178h-5.4s-9.6-.1-9.6 6.6V241"/>
    <g fill="#42B872">
        <circle cx="24.3" cy="247" r="3.7"/>
        <path d="M22.9 239.9h2.9c.4 0 .7.3.7.7v6.5c0 .4-.3.7-.7.7h-2.9c-.4 0-.7-.3-.7-.7v-6.5c0-.4.3-.7.7-.7z"/>
    </g>
    <g fill="#42B872">
        <circle cx="39.9" cy="231.5" r="3.7"/>
        <path d="M38.5 224.3h2.9c.4 0 .7.3.7.7v6.5c0 .4-.3.7-.7.7h-2.9c-.4 0-.7-.3-.7-.7V225c0-.4.3-.7.7-.7z"/>
    </g>
    <g fill="#fff" stroke="#42B872" stroke-width="2" stroke-miterlimit="10">
        <path d="M58.6 101.2H18.3c-1 0-1.7-.8-1.7-1.7V31.3c0-1 .8-1.7 1.7-1.7h40.3c1 0 1.7.8 1.7 1.7v68.2c0 .9-.7 1.7-1.7 1.7zM54.2 86.1H22.7c-.7 0-1.3-.6-1.3-1.3V36.3c0-.7.6-1.3 1.3-1.3h31.5c.7 0 1.3.6 1.3 1.3v48.6c0 .6-.6 1.2-1.3 1.2z"/>
        <circle cx="38" cy="93.8" r="2.1"/>
    </g>
    <circle fill="#42B872" cx="34.2" cy="66.3" r="2.2"/>
    <circle fill="#42B872" cx="42.5" cy="63.2" r="2.2"/>
    <path fill="none" stroke="#42B872" stroke-width="2" stroke-linecap="round" stroke-linejoin="round" stroke-miterlimit="10" d="M44 63V52.2l-8 3.1V66"/>
    <path fill="none" stroke="#42B872" stroke-width="2" stroke-miterlimit="10" d="M25 194h5.7s9.3-.5 9.3 6.2V226"/>
    <g stroke="#42B872" stroke-width="2" stroke-linecap="round" stroke-linejoin="round" stroke-miterlimit="10">
        <path fill="none" d="M134.7 10l-19 47-19-47z"/>
        <path fill="#fff" d="M136 9.9H95.9V.6H136z"/>
        <circle fill="none" cx="117.9" cy="40" r="3.8"/>
        <circle fill="none" cx="109.8" cy="19" r="3.8"/>
        <circle fill="none" cx="123.8" cy="24.8" r="3.8"/>
    </g>
    <g fill="none" stroke="#42B872" stroke-width="2" stroke-miterlimit="10">
        <path d="M330.8 276H313c-2.3 0-4.1-1.9-4.1-4.1v-31.4c0-.4.4-.8.8-.8h24.4c.4 0 .8.4.8.8v31.4c0 2.2-1.8 4.1-4.1 4.1zM322 239v13M309 252h25"/>
    </g>
    <g stroke="#42B872" stroke-width="2" stroke-miterlimit="10">
        <path fill="none" stroke-linecap="round" stroke-linejoin="round" d="M278.4 144.4v-23.6c0-.6.5-1.1 1.1-1.1h29.2c.6 0 1.1.5 1.1 1.1l9.5 11.8-9.5 11.8c0 .6-.5 1.1-1.1 1.1h-29.2c-.5.1-1.1-.4-1.1-1.1z"/>
        <circle fill="#fff" cx="306.5" cy="132.7" r="2.3"/>
    </g>
    <text transform="translate(286.44 136.418)" fill="#42B872" font-family="'ProximaNovaSoft-Bold'" font-size="13.583">
        $
    </text>
    <g stroke="#42B872" stroke-width="2" stroke-linecap="round" stroke-linejoin="round" stroke-miterlimit="10">
        <path fill="#fff" d="M142.6 141.8H93c-.5 0-.9-.4-.9-.9V112c0-.5.4-.9.9-.9l24.8-18.4 24.8 18.4c.5 0 .9.4.9.9v28.9c-.1.5-.4.9-.9.9zM135.4 134.4h-35.2c-.5 0-.9-.4-.9-.9v-33c0-.5.4-.9.9-.9h35.2c.5 0 .9.4.9.9v33c0 .6-.4.9-.9.9zM142.6 141.8H93c-.5 0-.9-.4-.9-.9V112c0-.5.4-.9.9-.9l24.8 14.9 24.8-14.9c.5 0 .9.4.9.9v28.9c-.1.5-.4.9-.9.9zM92.1 140.9l25.7-14.9M142.6 140.9L117.8 126"/>
        <path fill="none" d="M104 106h16M104 111h13"/>
    </g>
    <path fill="none" stroke="#42B872" stroke-width="2" stroke-miterlimit="10" d="M235.4 162.4h-47.1c-.6 0-1.1-.5-1.1-1.1v-60.6c0-.6.5-1.1 1.1-1.1h47.1c.6 0 1.1.5 1.1 1.1v60.6c0 .6-.5 1.1-1.1 1.1zM244.6 102.2h-3.9v-1.4c0-.6-.5-1.1-1.1-1.1h-51.2c-.6 0-1.1.5-1.1 1.1v60.5c0 .6.5 1.1 1.1 1.1h51.2c.6 0 1.1-.5 1.1-1.1v-38.4h3.9c.1 0 .3-.1.3-.3v-20.2c0-.1-.2-.2-.3-.2z"/>
</svg>
