<?xml version="1.0" encoding="utf-8"?>
<!-- Generator: Adobe Illustrator 18.1.1, SVG Export Plug-In . SVG Version: 6.00 Build 0)  -->
<!DOCTYPE svg PUBLIC "-//W3C//DTD SVG 1.1//EN" "http://www.w3.org/Graphics/SVG/1.1/DTD/svg11.dtd">
<svg version="1.1" id="Layer_1" xmlns="http://www.w3.org/2000/svg" xmlns:xlink="http://www.w3.org/1999/xlink" x="0px" y="0px"
	 viewBox="0 0 370 310" enable-background="new 0 0 370 310" xml:space="preserve">
<g>
	<g>
		<g>
			<path fill="#FFFFFF" stroke="#42B872" stroke-width="2" stroke-miterlimit="10" d="M276.7,297.9H106.8c-1.7,0-3.1-1.4-3.1-3.1
				V186.1c0-1.7,1.4-3.1,3.1-3.1h169.9c1.7,0,3.1,1.4,3.1,3.1v108.7C279.8,296.5,278.4,297.9,276.7,297.9z"/>
			<path fill="none" stroke="#42B872" stroke-width="2" stroke-miterlimit="10" d="M266.3,284H117.2c-1.4,0-2.6-1.2-2.6-2.6v-86.8
				c0-1.4,1.2-2.6,2.6-2.6h149.1c1.4,0,2.6,1.2,2.6,2.6v86.8C268.9,282.8,267.7,284,266.3,284z"/>
			<path fill="#FFFFFF" stroke="#42B872" stroke-width="2" stroke-miterlimit="10" d="M292.2,306.4H91.3c-0.6,0-1.1-0.5-1.1-1.1
				v-9.9c0-0.6,0.5-1.1,1.1-1.1h200.9c0.6,0,1.1,0.5,1.1,1.1v9.9C293.3,305.9,292.8,306.4,292.2,306.4z"/>
			<line fill="none" stroke="#42B872" stroke-width="2" stroke-miterlimit="10" x1="114" y1="202" x2="269" y2="202"/>
			<circle fill="#42B872" cx="121.1" cy="196.6" r="1.5"/>
			<circle fill="#42B872" cx="127" cy="196.6" r="1.5"/>
			<circle fill="#42B872" cx="132.9" cy="196.6" r="1.5"/>
		</g>
		<g>
			<line fill="none" stroke="#42B872" stroke-width="2" stroke-miterlimit="10" x1="137" y1="212" x2="198" y2="212"/>
			<line fill="none" stroke="#42B872" stroke-width="2" stroke-miterlimit="10" x1="137" y1="269" x2="198" y2="269"/>
			<line fill="none" stroke="#42B872" stroke-width="2" stroke-miterlimit="10" x1="137" y1="275" x2="168" y2="275"/>
			<line fill="none" stroke="#42B872" stroke-width="2" stroke-miterlimit="10" x1="137" y1="220" x2="214" y2="220"/>
			<line fill="none" stroke="#42B872" stroke-width="2" stroke-miterlimit="10" x1="142" y1="227" x2="177" y2="227"/>
			<line fill="none" stroke="#42B872" stroke-width="2" stroke-miterlimit="10" x1="142" y1="233" x2="219" y2="233"/>
			<line fill="none" stroke="#42B872" stroke-width="2" stroke-miterlimit="10" x1="142" y1="248" x2="193" y2="248"/>
			<line fill="none" stroke="#42B872" stroke-width="2" stroke-miterlimit="10" x1="147" y1="240" x2="203" y2="240"/>
			<line fill="none" stroke="#42B872" stroke-width="2" stroke-miterlimit="10" x1="142" y1="254" x2="213" y2="254"/>
			<line fill="none" stroke="#42B872" stroke-width="2" stroke-miterlimit="10" x1="147" y1="261" x2="219" y2="261"/>
		</g>
	</g>
	<g>
		<path fill="#FFFFFF" stroke="#42B872" stroke-width="2" stroke-miterlimit="10" d="M354.3,205.5h-7.1c-0.9,0-1.6-0.7-1.6-1.6
			v-74.5c0-0.9,0.7-1.6,1.6-1.6h7.1c0.9,0,1.6,0.7,1.6,1.6v74.5C355.9,204.8,355.2,205.5,354.3,205.5z"/>
		<path fill="#FFFFFF" stroke="#42B872" stroke-width="2" stroke-miterlimit="10" d="M359.9,177.1h-18.2c-0.6,0-1.2-0.5-1.2-1.2
			v-18.6c0-0.6,0.5-1.2,1.2-1.2h18.2c0.6,0,1.2,0.5,1.2,1.2V176C361,176.6,360.5,177.1,359.9,177.1z"/>
		<path fill="#FFFFFF" stroke="#42B872" stroke-width="2" stroke-miterlimit="10" d="M356.4,173.1h-11.3c-0.4,0-0.7-0.3-0.7-0.7
			v-11.5c0-0.4,0.3-0.7,0.7-0.7h11.3c0.4,0,0.7,0.3,0.7,0.7v11.5C357.1,172.8,356.8,173.1,356.4,173.1z"/>
		<g>
			
				<line fill="none" stroke="#42B872" stroke-width="2" stroke-linecap="round" stroke-miterlimit="10" x1="350" y1="167" x2="350" y2="165"/>
			
				<line fill="none" stroke="#42B872" stroke-width="2" stroke-linecap="round" stroke-miterlimit="10" x1="350.8" y1="167.7" x2="351.8" y2="168.8"/>
		</g>
		
			<ellipse fill="none" stroke="#42B872" stroke-width="2" stroke-linecap="round" stroke-linejoin="round" stroke-miterlimit="10" cx="361.9" cy="167.2" rx="0.8" ry="0"/>
		<circle fill="#42B872" cx="351.1" cy="193.1" r="1"/>
		<circle fill="#42B872" cx="351.1" cy="196.5" r="1"/>
		<circle fill="#42B872" cx="351.1" cy="200" r="1"/>
		
			<line fill="none" stroke="#42B872" stroke-width="2" stroke-linecap="round" stroke-linejoin="round" stroke-miterlimit="10" x1="352" y1="131" x2="352" y2="124"/>
	</g>
	<g>
		<path fill="#FFFFFF" stroke="#42B872" stroke-width="2" stroke-miterlimit="10" d="M74,280H51.3c-0.4,0-0.6-0.2-0.6-0.4
			c0,0-3.2-2.2-3.2-3c0-0.7,3.2-3,3.2-3c0-0.2,0.3-0.4,0.6-0.4H74c0.4,0,0.6,0.2,0.6,0.4v5.9C74.6,279.8,74.3,280,74,280z"/>
		<path fill="#FFFFFF" stroke="#42B872" stroke-width="2" stroke-miterlimit="10" d="M67.5,281.7H45c-0.4,0-0.6-0.2-0.6-0.5
			c0,0-3.2-3.4-3.2-4.5c0-1.1,3.2-4.5,3.2-4.5c0-0.3,0.3-0.5,0.6-0.5h22.4c0.4,0,0.6,0.2,0.6,0.5v9
			C68.1,281.5,67.8,281.7,67.5,281.7z"/>
		<line fill="none" stroke="#42B872" stroke-width="2" stroke-miterlimit="10" x1="74" y1="276" x2="71" y2="276"/>
	</g>
	<g>
		<path fill="none" stroke="#42B872" stroke-width="2" stroke-miterlimit="10" d="M214.5,27.4h-33.1c-0.3,0-0.5-0.2-0.5-0.4l4.5-7.9
			c0-0.2,0.2-0.4,0.5-0.4h24c0.3,0,0.5,0.2,0.5,0.4L215,27C215,27.2,214.8,27.4,214.5,27.4z"/>
		<path fill="none" stroke="#42B872" stroke-width="2" stroke-miterlimit="10" d="M218,33.9h-40c-0.3,0-0.5-0.2-0.5-0.5v-5.5
			c0-0.3,0.2-0.5,0.5-0.5h40c0.3,0,0.5,0.2,0.5,0.5v5.5C218.5,33.7,218.3,33.9,218,33.9z"/>
		<path fill="none" stroke="#42B872" stroke-width="2" stroke-miterlimit="10" d="M181.4,33.9h33.1c0.3,0,0.5,0.2,0.5,0.4L210.5,78
			c0,0.2-0.2,0.4-0.5,0.4h-24c-0.3,0-0.5-0.2-0.5-0.4l-4.5-43.6C180.9,34.1,181.2,33.9,181.4,33.9z"/>
		<path fill="#FFFFFF" stroke="#42B872" stroke-width="2" stroke-miterlimit="10" d="M213,62.5h-30c-0.7,0-1.3-0.6-1.3-1.3
			l-1.4-13.3c0-0.7,0.6-1.3,1.3-1.3h32.7c0.7,0,1.3,0.6,1.3,1.3l-1.4,13.3C214.3,61.9,213.7,62.5,213,62.5z"/>
	</g>
	<g>
		<g>
			<path fill="#FFFFFF" stroke="#42B872" stroke-width="2" stroke-miterlimit="10" d="M309.9,84.5h-53.8c-0.5,0-1-0.4-1-1V4.3
				c0-0.5,0.4-1,1-1h53.8c2.3,0,4.2,1.9,4.2,4.2v72.9C314.1,82.6,312.2,84.5,309.9,84.5z"/>
			<rect x="301.1" y="3.8" fill="#42B872" width="3.2" height="80.2"/>
		</g>
		<rect x="256.1" y="3.3" fill="#42B872" width="5.7" height="81.2"/>
	</g>
	<g>
		<path fill="#FFFFFF" stroke="#42B872" stroke-width="2" stroke-miterlimit="10" d="M331.8,71.7H329c-0.8,0-1.5-0.7-1.5-1.5V30
			c0-0.8,0.7-1.5,1.5-1.5h2.8c0.8,0,1.5,0.7,1.5,1.5v40.3C333.3,71.1,332.6,71.7,331.8,71.7z"/>
		
			<polygon fill="#FFFFFF" stroke="#42B872" stroke-width="2" stroke-linecap="round" stroke-linejoin="round" stroke-miterlimit="10" points="
			327.5,29 330.4,24.1 333.3,29 		"/>
	</g>
	<g>
		<path fill="none" stroke="#42B872" stroke-width="2" stroke-miterlimit="10" d="M36,152h18.3c0,0,9.5,0.5,9.5-6.3
			c0-7.2-9.5-6.7-9.5-6.7H25"/>
		<path fill="none" stroke="#42B872" stroke-width="2" stroke-miterlimit="10" d="M32,178h18.1c0,0,9.5,0.5,9.5-6.3
			c0-7.2-9.5-6.7-9.5-6.7H37"/>
		<path fill="none" stroke="#42B872" stroke-width="2" stroke-miterlimit="10" d="M32,126h4.9c0,0,9.1,0.2,9.1-6.5V95"/>
		<path fill="none" stroke="#42B872" stroke-width="2" stroke-miterlimit="10" d="M38,126H26.4c0,0-9.5-0.5-9.5,6.3
			c0,7.2,9.5,6.7,9.5,6.7H56"/>
		<path fill="none" stroke="#42B872" stroke-width="2" stroke-miterlimit="10" d="M39,152h-4.3c0,0-9.5-0.5-9.5,6.3
			c0,7.2,9.5,6.7,9.5,6.7H46"/>
		<path fill="none" stroke="#42B872" stroke-width="2" stroke-miterlimit="10" d="M39,178h-5.4c0,0-9.6-0.1-9.6,6.6V241"/>
		<g>
			<circle fill="#42B872" cx="24.3" cy="247" r="3.7"/>
			<path fill="#42B872" d="M22.9,239.9h2.9c0.4,0,0.7,0.3,0.7,0.7v6.5c0,0.4-0.3,0.7-0.7,0.7h-2.9c-0.4,0-0.7-0.3-0.7-0.7v-6.5
				C22.2,240.2,22.5,239.9,22.9,239.9z"/>
		</g>
		<g>
			<circle fill="#42B872" cx="39.9" cy="231.5" r="3.7"/>
			<path fill="#42B872" d="M38.5,224.3h2.9c0.4,0,0.7,0.3,0.7,0.7v6.5c0,0.4-0.3,0.7-0.7,0.7h-2.9c-0.4,0-0.7-0.3-0.7-0.7V225
				C37.8,224.6,38.1,224.3,38.5,224.3z"/>
		</g>
		<g>
			<g>
				<path fill="#FFFFFF" stroke="#42B872" stroke-width="2" stroke-miterlimit="10" d="M58.6,101.2H18.3c-1,0-1.7-0.8-1.7-1.7V31.3
					c0-1,0.8-1.7,1.7-1.7h40.3c1,0,1.7,0.8,1.7,1.7v68.2C60.3,100.4,59.6,101.2,58.6,101.2z"/>
				<path fill="#FFFFFF" stroke="#42B872" stroke-width="2" stroke-miterlimit="10" d="M54.2,86.1H22.7c-0.7,0-1.3-0.6-1.3-1.3V36.3
					c0-0.7,0.6-1.3,1.3-1.3h31.5c0.7,0,1.3,0.6,1.3,1.3v48.6C55.5,85.5,54.9,86.1,54.2,86.1z"/>
				<circle fill="#FFFFFF" stroke="#42B872" stroke-width="2" stroke-miterlimit="10" cx="38" cy="93.8" r="2.1"/>
			</g>
			<g>
				<circle fill="#42B872" cx="34.2" cy="66.3" r="2.2"/>
				<circle fill="#42B872" cx="42.5" cy="63.2" r="2.2"/>
				
					<polyline fill="none" stroke="#42B872" stroke-width="2" stroke-linecap="round" stroke-linejoin="round" stroke-miterlimit="10" points="
					44,63 44,52.2 36,55.3 36,66 				"/>
			</g>
		</g>
		<path fill="none" stroke="#42B872" stroke-width="2" stroke-miterlimit="10" d="M25,194h5.7c0,0,9.3-0.5,9.3,6.2V226"/>
	</g>
	<g>
		
			<polygon fill="none" stroke="#42B872" stroke-width="2" stroke-linecap="round" stroke-linejoin="round" stroke-miterlimit="10" points="
			134.7,10 115.7,57 96.7,10 		"/>
		
			<polygon fill="#FFFFFF" stroke="#42B872" stroke-width="2" stroke-linecap="round" stroke-linejoin="round" stroke-miterlimit="10" points="
			136,9.9 116,9.9 95.9,9.9 95.9,0.6 115.9,0.6 136,0.6 		"/>
		
			<circle fill="none" stroke="#42B872" stroke-width="2" stroke-linecap="round" stroke-linejoin="round" stroke-miterlimit="10" cx="117.9" cy="40" r="3.8"/>
		
			<circle fill="none" stroke="#42B872" stroke-width="2" stroke-linecap="round" stroke-linejoin="round" stroke-miterlimit="10" cx="109.8" cy="19" r="3.8"/>
		
			<circle fill="none" stroke="#42B872" stroke-width="2" stroke-linecap="round" stroke-linejoin="round" stroke-miterlimit="10" cx="123.8" cy="24.8" r="3.8"/>
	</g>
	<g>
		<path fill="none" stroke="#42B872" stroke-width="2" stroke-miterlimit="10" d="M330.8,276H313c-2.3,0-4.1-1.9-4.1-4.1v-31.4
			c0-0.4,0.4-0.8,0.8-0.8h24.4c0.4,0,0.8,0.4,0.8,0.8v31.4C334.9,274.1,333.1,276,330.8,276z"/>
		<g>
			<line fill="none" stroke="#42B872" stroke-width="2" stroke-miterlimit="10" x1="322" y1="239" x2="322" y2="252"/>
			<line fill="none" stroke="#42B872" stroke-width="2" stroke-miterlimit="10" x1="309" y1="252" x2="334" y2="252"/>
		</g>
	</g>
	<g>
		<g>
			<path fill="none" stroke="#42B872" stroke-width="2" stroke-linecap="round" stroke-linejoin="round" stroke-miterlimit="10" d="
				M278.4,144.4v-23.6c0-0.6,0.5-1.1,1.1-1.1h29.2c0.6,0,1.1,0.5,1.1,1.1l9.5,11.8l-9.5,11.8c0,0.6-0.5,1.1-1.1,1.1h-29.2
				C279,145.6,278.4,145.1,278.4,144.4z"/>
			<circle fill="#FFFFFF" stroke="#42B872" stroke-width="2" stroke-miterlimit="10" cx="306.5" cy="132.7" r="2.3"/>
		</g>
		<text transform="matrix(1 0 0 1 286.4404 136.4185)" fill="#42B872" font-family="'ProximaNovaSoft-Bold'" font-size="13.5826">$</text>
	</g>
	<g>
		
			<path fill="#FFFFFF" stroke="#42B872" stroke-width="2" stroke-linecap="round" stroke-linejoin="round" stroke-miterlimit="10" d="
			M142.6,141.8H93c-0.5,0-0.9-0.4-0.9-0.9V112c0-0.5,0.4-0.9,0.9-0.9l24.8-18.4l24.8,18.4c0.5,0,0.9,0.4,0.9,0.9v28.9
			C143.4,141.4,143.1,141.8,142.6,141.8z"/>
		
			<path fill="#FFFFFF" stroke="#42B872" stroke-width="2" stroke-linecap="round" stroke-linejoin="round" stroke-miterlimit="10" d="
			M135.4,134.4h-35.2c-0.5,0-0.9-0.4-0.9-0.9v-33c0-0.5,0.4-0.9,0.9-0.9h35.2c0.5,0,0.9,0.4,0.9,0.9v33
			C136.3,134.1,135.9,134.4,135.4,134.4z"/>
		
			<path fill="#FFFFFF" stroke="#42B872" stroke-width="2" stroke-linecap="round" stroke-linejoin="round" stroke-miterlimit="10" d="
			M142.6,141.8H93c-0.5,0-0.9-0.4-0.9-0.9V112c0-0.5,0.4-0.9,0.9-0.9l24.8,14.9l24.8-14.9c0.5,0,0.9,0.4,0.9,0.9v28.9
			C143.4,141.4,143.1,141.8,142.6,141.8z"/>
		
			<line fill="#FFFFFF" stroke="#42B872" stroke-width="2" stroke-linecap="round" stroke-linejoin="round" stroke-miterlimit="10" x1="92.1" y1="140.9" x2="117.8" y2="126"/>
		
			<line fill="#FFFFFF" stroke="#42B872" stroke-width="2" stroke-linecap="round" stroke-linejoin="round" stroke-miterlimit="10" x1="142.6" y1="140.9" x2="117.8" y2="126"/>
		
			<line fill="none" stroke="#42B872" stroke-width="2" stroke-linecap="round" stroke-linejoin="round" stroke-miterlimit="10" x1="104" y1="106" x2="120" y2="106"/>
		
			<line fill="none" stroke="#42B872" stroke-width="2" stroke-linecap="round" stroke-linejoin="round" stroke-miterlimit="10" x1="104" y1="111" x2="117" y2="111"/>
	</g>
	<path fill="none" stroke="#42B872" stroke-width="2" stroke-miterlimit="10" d="M235.4,162.4h-47.1c-0.6,0-1.1-0.5-1.1-1.1v-60.6
		c0-0.6,0.5-1.1,1.1-1.1h47.1c0.6,0,1.1,0.5,1.1,1.1v60.6C236.5,161.9,236,162.4,235.4,162.4z"/>
	<g>
		<g>
			<path fill="none" stroke="#42B872" stroke-width="2" stroke-miterlimit="10" d="M244.6,102.2h-3.9v-1.4c0-0.6-0.5-1.1-1.1-1.1
				h-51.2c-0.6,0-1.1,0.5-1.1,1.1v60.5c0,0.6,0.5,1.1,1.1,1.1h51.2c0.6,0,1.1-0.5,1.1-1.1v-38.4h3.9c0.1,0,0.3-0.1,0.3-0.3v-20.2
				C244.9,102.3,244.7,102.2,244.6,102.2z"/>
		</g>
	</g>
</g>
</svg>
